M48
; DRILL file KiCad 10.0.0-10.0.0~ubuntu24.04.1 date 2026-04-15T14:20:57
; FORMAT={-:-/ absolute / metric / decimal}
; #@! TF.CreationDate,2026-04-15T14:20:57+02:00
; #@! TF.GenerationSoftware,Kicad,Pcbnew,10.0.0-10.0.0~ubuntu24.04.1
; #@! TF.FileFunction,Plated,1,2,PTH
FMAT,2
METRIC
; #@! TA.AperFunction,Plated,PTH,ComponentDrill
T1C0.200
; #@! TA.AperFunction,Plated,PTH,ViaDrill
T2C0.300
; #@! TA.AperFunction,Plated,PTH,ComponentDrill
T3C0.500
; #@! TA.AperFunction,Plated,PTH,ViaDrill
T4C0.508
; #@! TA.AperFunction,Plated,PTH,ComponentDrill
T5C1.000
%
G90
G05
T1
X49.784Y-61.642
X49.784Y-63.167
X50.546Y-60.88
X50.546Y-62.405
X50.546Y-63.93
X51.309Y-61.642
X51.309Y-63.167
X52.072Y-60.88
X52.072Y-62.405
X52.072Y-63.93
X52.834Y-61.642
X52.834Y-63.167
T2
X36.576Y-72.949
X36.576Y-74.168
X36.576Y-88.265
X36.576Y-89.281
X36.576Y-90.297
X36.576Y-91.313
X36.576Y-92.329
X36.576Y-100.203
X36.576Y-101.727
X36.576Y-109.728
X36.576Y-111.379
X36.576Y-127.305
X36.881Y-66.904
X36.881Y-115.672
X36.881Y-116.688
X36.881Y-117.704
X36.881Y-118.72
X36.881Y-122.53
X36.881Y-123.546
X36.881Y-124.562
X36.881Y-125.578
X36.881Y-142.24
X36.881Y-143.256
X36.881Y-144.272
X36.881Y-145.288
X36.982Y-136.398
X37.287Y-54.915
X38.557Y-55.778
X38.735Y-76.454
X39.091Y-98.4
X39.091Y-99.289
X39.726Y-56.591
X39.98Y-98.4
X39.98Y-99.289
X40.005Y-110.49
X40.023Y-64.345
X40.132Y-93.218
X40.64Y-116.84
X40.7Y-125.416
X40.767Y-128.397
X40.844Y-93.217
X40.894Y-73.533
X40.894Y-110.871
X40.902Y-74.549
X40.956Y-119.634
X41.021Y-114.3
X41.021Y-141.326
X41.021Y-142.215
X41.109Y-109.093
X41.351Y-72.644
X41.402Y-111.862
X41.529Y-93.218
X41.91Y-141.326
X41.91Y-142.215
X42.418Y-73.66
X43.014Y-107.442
X43.014Y-108.204
X43.129Y-70.307
X43.18Y-88.773
X43.18Y-90.043
X43.18Y-91.313
X43.282Y-65.227
X43.307Y-56.388
X43.434Y-72.644
X43.485Y-63.906
X43.688Y-144.145
X43.776Y-107.442
X43.815Y-73.533
X43.902Y-74.549
X43.942Y-54.737
X44.196Y-67.257
X44.907Y-54.762
X45.517Y-75.336
X45.593Y-101.092
X45.72Y-70.612
X45.744Y-68.198
X46.025Y-71.374
X46.321Y-75.359
X46.355Y-114.681
X46.444Y-110.344
X46.454Y-142.837
X46.482Y-133.934
X46.549Y-112.354
X46.632Y-113.15
X47.052Y-103.694
X47.244Y-118.11
X47.244Y-119.38
X47.244Y-120.65
X47.244Y-123.952
X47.244Y-125.222
X47.244Y-126.492
X47.244Y-127.762
X47.244Y-133.934
X47.359Y-114.669
X47.371Y-98.806
X47.371Y-100.965
X47.459Y-110.363
X47.752Y-111.506
X47.752Y-144.145
X47.879Y-86.133
X47.879Y-99.568
X48.006Y-133.934
X48.26Y-100.33
X48.463Y-68.732
X48.793Y-133.934
X48.877Y-113.236
X49.657Y-55.626
X49.657Y-57.15
X49.727Y-113.236
X50.38Y-109.923
X50.419Y-108.966
X50.546Y-112.573
X51.181Y-55.626
X51.181Y-57.15
X51.816Y-143.264
X53.034Y-108.914
X53.2Y-144.145
X53.238Y-71.222
X53.264Y-70.46
X53.467Y-114.046
X53.721Y-91.948
X54.0Y-70.46
X54.0Y-71.222
X54.356Y-144.272
X55.245Y-98.171
X55.245Y-99.949
X55.245Y-100.965
X55.245Y-101.981
X55.245Y-102.997
X55.448Y-144.272
X56.007Y-101.346
X56.261Y-81.026
X56.439Y-144.272
X56.693Y-74.422
X56.727Y-101.283
X56.794Y-62.941
X56.891Y-123.725
X57.023Y-122.881
X57.455Y-74.422
X57.669Y-122.41
X57.836Y-147.904
X58.434Y-114.52
X59.182Y-120.142
X59.194Y-73.394
X59.701Y-122.53
X59.817Y-95.885
X59.893Y-74.981
X59.944Y-97.409
X60.126Y-92.05
X60.198Y-103.327
X60.198Y-112.141
X60.401Y-79.604
X60.808Y-83.058
X60.96Y-76.251
X60.96Y-77.267
X61.214Y-54.991
X61.214Y-59.055
X61.214Y-68.377
X61.722Y-91.948
X61.722Y-93.726
X61.824Y-83.058
X61.976Y-76.251
X61.976Y-77.267
X62.357Y-85.471
X62.611Y-137.668
X62.636Y-87.071
X62.636Y-88.087
X62.738Y-132.588
X62.992Y-108.839
X63.094Y-105.766
X63.195Y-95.656
X63.246Y-97.384
X63.297Y-99.212
X63.297Y-100.99
X63.297Y-102.819
X63.805Y-126.594
X63.805Y-127.61
X63.805Y-128.626
X63.805Y-129.642
X63.805Y-139.344
X63.805Y-140.36
X63.805Y-141.376
X63.805Y-142.392
X63.856Y-145.288
X63.856Y-147.472
X64.567Y-144.272
X64.567Y-146.406
X64.668Y-54.356
X64.77Y-68.174
X64.77Y-69.647
X64.77Y-79.35
X64.77Y-80.518
X64.77Y-81.661
X64.897Y-107.315
X64.897Y-108.331
X64.897Y-109.347
T3
X42.164Y-146.812
X42.164Y-148.717
X42.164Y-150.622
X59.436Y-146.812
X59.436Y-148.717
X59.436Y-150.622
T4
X44.958Y-96.139
X45.085Y-114.554
X48.133Y-94.488
X55.245Y-96.012
X57.912Y-56.845
T5
X37.541Y-57.76
X37.541Y-60.3
X37.541Y-62.84
X37.541Y-65.38
X38.984Y-144.323
X39.243Y-102.367
X39.243Y-104.907
X39.624Y-83.317
X39.624Y-85.857
X41.524Y-144.323
X61.849Y-115.43
X61.849Y-117.97
X61.849Y-120.51
X62.992Y-60.706
X62.992Y-63.246
X62.992Y-65.786
X62.992Y-68.326
X62.992Y-70.866
X62.992Y-73.406
T5
G00X48.1Y-76.2
M15
G01X53.5Y-76.2
M16
G05
G00X48.1Y-141.224
M15
G01X53.5Y-141.224
M16
G05
M30
