%TF.GenerationSoftware,KiCad,Pcbnew,10.0.0-10.0.0~ubuntu24.04.1*%
%TF.CreationDate,2026-04-15T14:11:24+02:00*%
%TF.ProjectId,MoistureESP,4d6f6973-7475-4726-9545-53502e6b6963,rev?*%
%TF.SameCoordinates,Original*%
%TF.FileFunction,Legend,Top*%
%TF.FilePolarity,Positive*%
%FSLAX46Y46*%
G04 Gerber Fmt 4.6, Leading zero omitted, Abs format (unit mm)*
G04 Created by KiCad (PCBNEW 10.0.0-10.0.0~ubuntu24.04.1) date 2026-04-15 14:11:24*
%MOMM*%
%LPD*%
G01*
G04 APERTURE LIST*
%ADD10C,0.152400*%
%ADD11C,0.150000*%
%ADD12C,0.127000*%
%ADD13C,0.200000*%
%ADD14C,0.120000*%
G04 APERTURE END LIST*
D10*
X46765028Y-83729162D02*
X46692457Y-83692876D01*
X46692457Y-83692876D02*
X46619885Y-83620305D01*
X46619885Y-83620305D02*
X46511028Y-83511447D01*
X46511028Y-83511447D02*
X46438457Y-83475162D01*
X46438457Y-83475162D02*
X46365885Y-83475162D01*
X46402171Y-83656590D02*
X46329600Y-83620305D01*
X46329600Y-83620305D02*
X46257028Y-83547733D01*
X46257028Y-83547733D02*
X46220742Y-83402590D01*
X46220742Y-83402590D02*
X46220742Y-83148590D01*
X46220742Y-83148590D02*
X46257028Y-83003447D01*
X46257028Y-83003447D02*
X46329600Y-82930876D01*
X46329600Y-82930876D02*
X46402171Y-82894590D01*
X46402171Y-82894590D02*
X46547314Y-82894590D01*
X46547314Y-82894590D02*
X46619885Y-82930876D01*
X46619885Y-82930876D02*
X46692457Y-83003447D01*
X46692457Y-83003447D02*
X46728742Y-83148590D01*
X46728742Y-83148590D02*
X46728742Y-83402590D01*
X46728742Y-83402590D02*
X46692457Y-83547733D01*
X46692457Y-83547733D02*
X46619885Y-83620305D01*
X46619885Y-83620305D02*
X46547314Y-83656590D01*
X46547314Y-83656590D02*
X46402171Y-83656590D01*
X47019028Y-82967162D02*
X47055314Y-82930876D01*
X47055314Y-82930876D02*
X47127886Y-82894590D01*
X47127886Y-82894590D02*
X47309314Y-82894590D01*
X47309314Y-82894590D02*
X47381886Y-82930876D01*
X47381886Y-82930876D02*
X47418171Y-82967162D01*
X47418171Y-82967162D02*
X47454457Y-83039733D01*
X47454457Y-83039733D02*
X47454457Y-83112305D01*
X47454457Y-83112305D02*
X47418171Y-83221162D01*
X47418171Y-83221162D02*
X46982743Y-83656590D01*
X46982743Y-83656590D02*
X47454457Y-83656590D01*
X39854393Y-88131841D02*
X39600393Y-87768984D01*
X39418964Y-88131841D02*
X39418964Y-87369841D01*
X39418964Y-87369841D02*
X39709250Y-87369841D01*
X39709250Y-87369841D02*
X39781821Y-87406127D01*
X39781821Y-87406127D02*
X39818107Y-87442413D01*
X39818107Y-87442413D02*
X39854393Y-87514984D01*
X39854393Y-87514984D02*
X39854393Y-87623841D01*
X39854393Y-87623841D02*
X39818107Y-87696413D01*
X39818107Y-87696413D02*
X39781821Y-87732698D01*
X39781821Y-87732698D02*
X39709250Y-87768984D01*
X39709250Y-87768984D02*
X39418964Y-87768984D01*
X40580107Y-88131841D02*
X40144678Y-88131841D01*
X40362393Y-88131841D02*
X40362393Y-87369841D01*
X40362393Y-87369841D02*
X40289821Y-87478698D01*
X40289821Y-87478698D02*
X40217250Y-87551270D01*
X40217250Y-87551270D02*
X40144678Y-87587556D01*
X40834107Y-87369841D02*
X41342107Y-87369841D01*
X41342107Y-87369841D02*
X41015535Y-88131841D01*
X52545343Y-106596419D02*
X52509057Y-106632705D01*
X52509057Y-106632705D02*
X52400200Y-106668990D01*
X52400200Y-106668990D02*
X52327628Y-106668990D01*
X52327628Y-106668990D02*
X52218771Y-106632705D01*
X52218771Y-106632705D02*
X52146200Y-106560133D01*
X52146200Y-106560133D02*
X52109914Y-106487562D01*
X52109914Y-106487562D02*
X52073628Y-106342419D01*
X52073628Y-106342419D02*
X52073628Y-106233562D01*
X52073628Y-106233562D02*
X52109914Y-106088419D01*
X52109914Y-106088419D02*
X52146200Y-106015847D01*
X52146200Y-106015847D02*
X52218771Y-105943276D01*
X52218771Y-105943276D02*
X52327628Y-105906990D01*
X52327628Y-105906990D02*
X52400200Y-105906990D01*
X52400200Y-105906990D02*
X52509057Y-105943276D01*
X52509057Y-105943276D02*
X52545343Y-105979562D01*
X52835628Y-105979562D02*
X52871914Y-105943276D01*
X52871914Y-105943276D02*
X52944486Y-105906990D01*
X52944486Y-105906990D02*
X53125914Y-105906990D01*
X53125914Y-105906990D02*
X53198486Y-105943276D01*
X53198486Y-105943276D02*
X53234771Y-105979562D01*
X53234771Y-105979562D02*
X53271057Y-106052133D01*
X53271057Y-106052133D02*
X53271057Y-106124705D01*
X53271057Y-106124705D02*
X53234771Y-106233562D01*
X53234771Y-106233562D02*
X52799343Y-106668990D01*
X52799343Y-106668990D02*
X53271057Y-106668990D01*
X53525057Y-105906990D02*
X53996771Y-105906990D01*
X53996771Y-105906990D02*
X53742771Y-106197276D01*
X53742771Y-106197276D02*
X53851628Y-106197276D01*
X53851628Y-106197276D02*
X53924200Y-106233562D01*
X53924200Y-106233562D02*
X53960485Y-106269847D01*
X53960485Y-106269847D02*
X53996771Y-106342419D01*
X53996771Y-106342419D02*
X53996771Y-106523847D01*
X53996771Y-106523847D02*
X53960485Y-106596419D01*
X53960485Y-106596419D02*
X53924200Y-106632705D01*
X53924200Y-106632705D02*
X53851628Y-106668990D01*
X53851628Y-106668990D02*
X53633914Y-106668990D01*
X53633914Y-106668990D02*
X53561342Y-106632705D01*
X53561342Y-106632705D02*
X53525057Y-106596419D01*
X58547000Y-125697219D02*
X58510714Y-125733505D01*
X58510714Y-125733505D02*
X58401857Y-125769790D01*
X58401857Y-125769790D02*
X58329285Y-125769790D01*
X58329285Y-125769790D02*
X58220428Y-125733505D01*
X58220428Y-125733505D02*
X58147857Y-125660933D01*
X58147857Y-125660933D02*
X58111571Y-125588362D01*
X58111571Y-125588362D02*
X58075285Y-125443219D01*
X58075285Y-125443219D02*
X58075285Y-125334362D01*
X58075285Y-125334362D02*
X58111571Y-125189219D01*
X58111571Y-125189219D02*
X58147857Y-125116647D01*
X58147857Y-125116647D02*
X58220428Y-125044076D01*
X58220428Y-125044076D02*
X58329285Y-125007790D01*
X58329285Y-125007790D02*
X58401857Y-125007790D01*
X58401857Y-125007790D02*
X58510714Y-125044076D01*
X58510714Y-125044076D02*
X58547000Y-125080362D01*
X59272714Y-125769790D02*
X58837285Y-125769790D01*
X59055000Y-125769790D02*
X59055000Y-125007790D01*
X59055000Y-125007790D02*
X58982428Y-125116647D01*
X58982428Y-125116647D02*
X58909857Y-125189219D01*
X58909857Y-125189219D02*
X58837285Y-125225505D01*
X55644143Y-115566590D02*
X55390143Y-115203733D01*
X55208714Y-115566590D02*
X55208714Y-114804590D01*
X55208714Y-114804590D02*
X55499000Y-114804590D01*
X55499000Y-114804590D02*
X55571571Y-114840876D01*
X55571571Y-114840876D02*
X55607857Y-114877162D01*
X55607857Y-114877162D02*
X55644143Y-114949733D01*
X55644143Y-114949733D02*
X55644143Y-115058590D01*
X55644143Y-115058590D02*
X55607857Y-115131162D01*
X55607857Y-115131162D02*
X55571571Y-115167447D01*
X55571571Y-115167447D02*
X55499000Y-115203733D01*
X55499000Y-115203733D02*
X55208714Y-115203733D01*
X56369857Y-115566590D02*
X55934428Y-115566590D01*
X56152143Y-115566590D02*
X56152143Y-114804590D01*
X56152143Y-114804590D02*
X56079571Y-114913447D01*
X56079571Y-114913447D02*
X56007000Y-114986019D01*
X56007000Y-114986019D02*
X55934428Y-115022305D01*
X56660142Y-114877162D02*
X56696428Y-114840876D01*
X56696428Y-114840876D02*
X56769000Y-114804590D01*
X56769000Y-114804590D02*
X56950428Y-114804590D01*
X56950428Y-114804590D02*
X57023000Y-114840876D01*
X57023000Y-114840876D02*
X57059285Y-114877162D01*
X57059285Y-114877162D02*
X57095571Y-114949733D01*
X57095571Y-114949733D02*
X57095571Y-115022305D01*
X57095571Y-115022305D02*
X57059285Y-115131162D01*
X57059285Y-115131162D02*
X56623857Y-115566590D01*
X56623857Y-115566590D02*
X57095571Y-115566590D01*
X49098200Y-88888990D02*
X48844200Y-88526133D01*
X48662771Y-88888990D02*
X48662771Y-88126990D01*
X48662771Y-88126990D02*
X48953057Y-88126990D01*
X48953057Y-88126990D02*
X49025628Y-88163276D01*
X49025628Y-88163276D02*
X49061914Y-88199562D01*
X49061914Y-88199562D02*
X49098200Y-88272133D01*
X49098200Y-88272133D02*
X49098200Y-88380990D01*
X49098200Y-88380990D02*
X49061914Y-88453562D01*
X49061914Y-88453562D02*
X49025628Y-88489847D01*
X49025628Y-88489847D02*
X48953057Y-88526133D01*
X48953057Y-88526133D02*
X48662771Y-88526133D01*
X49533628Y-88453562D02*
X49461057Y-88417276D01*
X49461057Y-88417276D02*
X49424771Y-88380990D01*
X49424771Y-88380990D02*
X49388485Y-88308419D01*
X49388485Y-88308419D02*
X49388485Y-88272133D01*
X49388485Y-88272133D02*
X49424771Y-88199562D01*
X49424771Y-88199562D02*
X49461057Y-88163276D01*
X49461057Y-88163276D02*
X49533628Y-88126990D01*
X49533628Y-88126990D02*
X49678771Y-88126990D01*
X49678771Y-88126990D02*
X49751343Y-88163276D01*
X49751343Y-88163276D02*
X49787628Y-88199562D01*
X49787628Y-88199562D02*
X49823914Y-88272133D01*
X49823914Y-88272133D02*
X49823914Y-88308419D01*
X49823914Y-88308419D02*
X49787628Y-88380990D01*
X49787628Y-88380990D02*
X49751343Y-88417276D01*
X49751343Y-88417276D02*
X49678771Y-88453562D01*
X49678771Y-88453562D02*
X49533628Y-88453562D01*
X49533628Y-88453562D02*
X49461057Y-88489847D01*
X49461057Y-88489847D02*
X49424771Y-88526133D01*
X49424771Y-88526133D02*
X49388485Y-88598705D01*
X49388485Y-88598705D02*
X49388485Y-88743847D01*
X49388485Y-88743847D02*
X49424771Y-88816419D01*
X49424771Y-88816419D02*
X49461057Y-88852705D01*
X49461057Y-88852705D02*
X49533628Y-88888990D01*
X49533628Y-88888990D02*
X49678771Y-88888990D01*
X49678771Y-88888990D02*
X49751343Y-88852705D01*
X49751343Y-88852705D02*
X49787628Y-88816419D01*
X49787628Y-88816419D02*
X49823914Y-88743847D01*
X49823914Y-88743847D02*
X49823914Y-88598705D01*
X49823914Y-88598705D02*
X49787628Y-88526133D01*
X49787628Y-88526133D02*
X49751343Y-88489847D01*
X49751343Y-88489847D02*
X49678771Y-88453562D01*
X45687343Y-103294419D02*
X45651057Y-103330705D01*
X45651057Y-103330705D02*
X45542200Y-103366990D01*
X45542200Y-103366990D02*
X45469628Y-103366990D01*
X45469628Y-103366990D02*
X45360771Y-103330705D01*
X45360771Y-103330705D02*
X45288200Y-103258133D01*
X45288200Y-103258133D02*
X45251914Y-103185562D01*
X45251914Y-103185562D02*
X45215628Y-103040419D01*
X45215628Y-103040419D02*
X45215628Y-102931562D01*
X45215628Y-102931562D02*
X45251914Y-102786419D01*
X45251914Y-102786419D02*
X45288200Y-102713847D01*
X45288200Y-102713847D02*
X45360771Y-102641276D01*
X45360771Y-102641276D02*
X45469628Y-102604990D01*
X45469628Y-102604990D02*
X45542200Y-102604990D01*
X45542200Y-102604990D02*
X45651057Y-102641276D01*
X45651057Y-102641276D02*
X45687343Y-102677562D01*
X45977628Y-102677562D02*
X46013914Y-102641276D01*
X46013914Y-102641276D02*
X46086486Y-102604990D01*
X46086486Y-102604990D02*
X46267914Y-102604990D01*
X46267914Y-102604990D02*
X46340486Y-102641276D01*
X46340486Y-102641276D02*
X46376771Y-102677562D01*
X46376771Y-102677562D02*
X46413057Y-102750133D01*
X46413057Y-102750133D02*
X46413057Y-102822705D01*
X46413057Y-102822705D02*
X46376771Y-102931562D01*
X46376771Y-102931562D02*
X45941343Y-103366990D01*
X45941343Y-103366990D02*
X46413057Y-103366990D01*
X47138771Y-103366990D02*
X46703342Y-103366990D01*
X46921057Y-103366990D02*
X46921057Y-102604990D01*
X46921057Y-102604990D02*
X46848485Y-102713847D01*
X46848485Y-102713847D02*
X46775914Y-102786419D01*
X46775914Y-102786419D02*
X46703342Y-102822705D01*
X58042628Y-123229790D02*
X58042628Y-123846647D01*
X58042628Y-123846647D02*
X58078914Y-123919219D01*
X58078914Y-123919219D02*
X58115200Y-123955505D01*
X58115200Y-123955505D02*
X58187771Y-123991790D01*
X58187771Y-123991790D02*
X58332914Y-123991790D01*
X58332914Y-123991790D02*
X58405485Y-123955505D01*
X58405485Y-123955505D02*
X58441771Y-123919219D01*
X58441771Y-123919219D02*
X58478057Y-123846647D01*
X58478057Y-123846647D02*
X58478057Y-123229790D01*
X59240057Y-123991790D02*
X58804628Y-123991790D01*
X59022343Y-123991790D02*
X59022343Y-123229790D01*
X59022343Y-123229790D02*
X58949771Y-123338647D01*
X58949771Y-123338647D02*
X58877200Y-123411219D01*
X58877200Y-123411219D02*
X58804628Y-123447505D01*
X36724771Y-128462190D02*
X36724771Y-127700190D01*
X36724771Y-127700190D02*
X36906200Y-127700190D01*
X36906200Y-127700190D02*
X37015057Y-127736476D01*
X37015057Y-127736476D02*
X37087628Y-127809047D01*
X37087628Y-127809047D02*
X37123914Y-127881619D01*
X37123914Y-127881619D02*
X37160200Y-128026762D01*
X37160200Y-128026762D02*
X37160200Y-128135619D01*
X37160200Y-128135619D02*
X37123914Y-128280762D01*
X37123914Y-128280762D02*
X37087628Y-128353333D01*
X37087628Y-128353333D02*
X37015057Y-128425905D01*
X37015057Y-128425905D02*
X36906200Y-128462190D01*
X36906200Y-128462190D02*
X36724771Y-128462190D01*
X37595628Y-128026762D02*
X37523057Y-127990476D01*
X37523057Y-127990476D02*
X37486771Y-127954190D01*
X37486771Y-127954190D02*
X37450485Y-127881619D01*
X37450485Y-127881619D02*
X37450485Y-127845333D01*
X37450485Y-127845333D02*
X37486771Y-127772762D01*
X37486771Y-127772762D02*
X37523057Y-127736476D01*
X37523057Y-127736476D02*
X37595628Y-127700190D01*
X37595628Y-127700190D02*
X37740771Y-127700190D01*
X37740771Y-127700190D02*
X37813343Y-127736476D01*
X37813343Y-127736476D02*
X37849628Y-127772762D01*
X37849628Y-127772762D02*
X37885914Y-127845333D01*
X37885914Y-127845333D02*
X37885914Y-127881619D01*
X37885914Y-127881619D02*
X37849628Y-127954190D01*
X37849628Y-127954190D02*
X37813343Y-127990476D01*
X37813343Y-127990476D02*
X37740771Y-128026762D01*
X37740771Y-128026762D02*
X37595628Y-128026762D01*
X37595628Y-128026762D02*
X37523057Y-128063047D01*
X37523057Y-128063047D02*
X37486771Y-128099333D01*
X37486771Y-128099333D02*
X37450485Y-128171905D01*
X37450485Y-128171905D02*
X37450485Y-128317047D01*
X37450485Y-128317047D02*
X37486771Y-128389619D01*
X37486771Y-128389619D02*
X37523057Y-128425905D01*
X37523057Y-128425905D02*
X37595628Y-128462190D01*
X37595628Y-128462190D02*
X37740771Y-128462190D01*
X37740771Y-128462190D02*
X37813343Y-128425905D01*
X37813343Y-128425905D02*
X37849628Y-128389619D01*
X37849628Y-128389619D02*
X37885914Y-128317047D01*
X37885914Y-128317047D02*
X37885914Y-128171905D01*
X37885914Y-128171905D02*
X37849628Y-128099333D01*
X37849628Y-128099333D02*
X37813343Y-128063047D01*
X37813343Y-128063047D02*
X37740771Y-128026762D01*
X36746543Y-91000819D02*
X36710257Y-91037105D01*
X36710257Y-91037105D02*
X36601400Y-91073390D01*
X36601400Y-91073390D02*
X36528828Y-91073390D01*
X36528828Y-91073390D02*
X36419971Y-91037105D01*
X36419971Y-91037105D02*
X36347400Y-90964533D01*
X36347400Y-90964533D02*
X36311114Y-90891962D01*
X36311114Y-90891962D02*
X36274828Y-90746819D01*
X36274828Y-90746819D02*
X36274828Y-90637962D01*
X36274828Y-90637962D02*
X36311114Y-90492819D01*
X36311114Y-90492819D02*
X36347400Y-90420247D01*
X36347400Y-90420247D02*
X36419971Y-90347676D01*
X36419971Y-90347676D02*
X36528828Y-90311390D01*
X36528828Y-90311390D02*
X36601400Y-90311390D01*
X36601400Y-90311390D02*
X36710257Y-90347676D01*
X36710257Y-90347676D02*
X36746543Y-90383962D01*
X37472257Y-91073390D02*
X37036828Y-91073390D01*
X37254543Y-91073390D02*
X37254543Y-90311390D01*
X37254543Y-90311390D02*
X37181971Y-90420247D01*
X37181971Y-90420247D02*
X37109400Y-90492819D01*
X37109400Y-90492819D02*
X37036828Y-90529105D01*
X37762542Y-90383962D02*
X37798828Y-90347676D01*
X37798828Y-90347676D02*
X37871400Y-90311390D01*
X37871400Y-90311390D02*
X38052828Y-90311390D01*
X38052828Y-90311390D02*
X38125400Y-90347676D01*
X38125400Y-90347676D02*
X38161685Y-90383962D01*
X38161685Y-90383962D02*
X38197971Y-90456533D01*
X38197971Y-90456533D02*
X38197971Y-90529105D01*
X38197971Y-90529105D02*
X38161685Y-90637962D01*
X38161685Y-90637962D02*
X37726257Y-91073390D01*
X37726257Y-91073390D02*
X38197971Y-91073390D01*
X57404000Y-80260247D02*
X57150000Y-80260247D01*
X57150000Y-80659390D02*
X57150000Y-79897390D01*
X57150000Y-79897390D02*
X57512857Y-79897390D01*
X58202286Y-80659390D02*
X57766857Y-80659390D01*
X57984572Y-80659390D02*
X57984572Y-79897390D01*
X57984572Y-79897390D02*
X57912000Y-80006247D01*
X57912000Y-80006247D02*
X57839429Y-80078819D01*
X57839429Y-80078819D02*
X57766857Y-80115105D01*
X45640171Y-122692762D02*
X45567600Y-122656476D01*
X45567600Y-122656476D02*
X45495028Y-122583905D01*
X45495028Y-122583905D02*
X45386171Y-122475047D01*
X45386171Y-122475047D02*
X45313600Y-122438762D01*
X45313600Y-122438762D02*
X45241028Y-122438762D01*
X45277314Y-122620190D02*
X45204743Y-122583905D01*
X45204743Y-122583905D02*
X45132171Y-122511333D01*
X45132171Y-122511333D02*
X45095885Y-122366190D01*
X45095885Y-122366190D02*
X45095885Y-122112190D01*
X45095885Y-122112190D02*
X45132171Y-121967047D01*
X45132171Y-121967047D02*
X45204743Y-121894476D01*
X45204743Y-121894476D02*
X45277314Y-121858190D01*
X45277314Y-121858190D02*
X45422457Y-121858190D01*
X45422457Y-121858190D02*
X45495028Y-121894476D01*
X45495028Y-121894476D02*
X45567600Y-121967047D01*
X45567600Y-121967047D02*
X45603885Y-122112190D01*
X45603885Y-122112190D02*
X45603885Y-122366190D01*
X45603885Y-122366190D02*
X45567600Y-122511333D01*
X45567600Y-122511333D02*
X45495028Y-122583905D01*
X45495028Y-122583905D02*
X45422457Y-122620190D01*
X45422457Y-122620190D02*
X45277314Y-122620190D01*
X46329600Y-122620190D02*
X45894171Y-122620190D01*
X46111886Y-122620190D02*
X46111886Y-121858190D01*
X46111886Y-121858190D02*
X46039314Y-121967047D01*
X46039314Y-121967047D02*
X45966743Y-122039619D01*
X45966743Y-122039619D02*
X45894171Y-122075905D01*
X46801314Y-121858190D02*
X46873885Y-121858190D01*
X46873885Y-121858190D02*
X46946457Y-121894476D01*
X46946457Y-121894476D02*
X46982743Y-121930762D01*
X46982743Y-121930762D02*
X47019028Y-122003333D01*
X47019028Y-122003333D02*
X47055314Y-122148476D01*
X47055314Y-122148476D02*
X47055314Y-122329905D01*
X47055314Y-122329905D02*
X47019028Y-122475047D01*
X47019028Y-122475047D02*
X46982743Y-122547619D01*
X46982743Y-122547619D02*
X46946457Y-122583905D01*
X46946457Y-122583905D02*
X46873885Y-122620190D01*
X46873885Y-122620190D02*
X46801314Y-122620190D01*
X46801314Y-122620190D02*
X46728743Y-122583905D01*
X46728743Y-122583905D02*
X46692457Y-122547619D01*
X46692457Y-122547619D02*
X46656171Y-122475047D01*
X46656171Y-122475047D02*
X46619885Y-122329905D01*
X46619885Y-122329905D02*
X46619885Y-122148476D01*
X46619885Y-122148476D02*
X46656171Y-122003333D01*
X46656171Y-122003333D02*
X46692457Y-121930762D01*
X46692457Y-121930762D02*
X46728743Y-121894476D01*
X46728743Y-121894476D02*
X46801314Y-121858190D01*
X54069219Y-120929399D02*
X54105505Y-120965685D01*
X54105505Y-120965685D02*
X54141790Y-121074542D01*
X54141790Y-121074542D02*
X54141790Y-121147114D01*
X54141790Y-121147114D02*
X54105505Y-121255971D01*
X54105505Y-121255971D02*
X54032933Y-121328542D01*
X54032933Y-121328542D02*
X53960362Y-121364828D01*
X53960362Y-121364828D02*
X53815219Y-121401114D01*
X53815219Y-121401114D02*
X53706362Y-121401114D01*
X53706362Y-121401114D02*
X53561219Y-121364828D01*
X53561219Y-121364828D02*
X53488647Y-121328542D01*
X53488647Y-121328542D02*
X53416076Y-121255971D01*
X53416076Y-121255971D02*
X53379790Y-121147114D01*
X53379790Y-121147114D02*
X53379790Y-121074542D01*
X53379790Y-121074542D02*
X53416076Y-120965685D01*
X53416076Y-120965685D02*
X53452362Y-120929399D01*
X53379790Y-120239971D02*
X53379790Y-120602828D01*
X53379790Y-120602828D02*
X53742647Y-120639114D01*
X53742647Y-120639114D02*
X53706362Y-120602828D01*
X53706362Y-120602828D02*
X53670076Y-120530257D01*
X53670076Y-120530257D02*
X53670076Y-120348828D01*
X53670076Y-120348828D02*
X53706362Y-120276257D01*
X53706362Y-120276257D02*
X53742647Y-120239971D01*
X53742647Y-120239971D02*
X53815219Y-120203685D01*
X53815219Y-120203685D02*
X53996647Y-120203685D01*
X53996647Y-120203685D02*
X54069219Y-120239971D01*
X54069219Y-120239971D02*
X54105505Y-120276257D01*
X54105505Y-120276257D02*
X54141790Y-120348828D01*
X54141790Y-120348828D02*
X54141790Y-120530257D01*
X54141790Y-120530257D02*
X54105505Y-120602828D01*
X54105505Y-120602828D02*
X54069219Y-120639114D01*
X52806600Y-125646419D02*
X52770314Y-125682705D01*
X52770314Y-125682705D02*
X52661457Y-125718990D01*
X52661457Y-125718990D02*
X52588885Y-125718990D01*
X52588885Y-125718990D02*
X52480028Y-125682705D01*
X52480028Y-125682705D02*
X52407457Y-125610133D01*
X52407457Y-125610133D02*
X52371171Y-125537562D01*
X52371171Y-125537562D02*
X52334885Y-125392419D01*
X52334885Y-125392419D02*
X52334885Y-125283562D01*
X52334885Y-125283562D02*
X52371171Y-125138419D01*
X52371171Y-125138419D02*
X52407457Y-125065847D01*
X52407457Y-125065847D02*
X52480028Y-124993276D01*
X52480028Y-124993276D02*
X52588885Y-124956990D01*
X52588885Y-124956990D02*
X52661457Y-124956990D01*
X52661457Y-124956990D02*
X52770314Y-124993276D01*
X52770314Y-124993276D02*
X52806600Y-125029562D01*
X53060600Y-124956990D02*
X53532314Y-124956990D01*
X53532314Y-124956990D02*
X53278314Y-125247276D01*
X53278314Y-125247276D02*
X53387171Y-125247276D01*
X53387171Y-125247276D02*
X53459743Y-125283562D01*
X53459743Y-125283562D02*
X53496028Y-125319847D01*
X53496028Y-125319847D02*
X53532314Y-125392419D01*
X53532314Y-125392419D02*
X53532314Y-125573847D01*
X53532314Y-125573847D02*
X53496028Y-125646419D01*
X53496028Y-125646419D02*
X53459743Y-125682705D01*
X53459743Y-125682705D02*
X53387171Y-125718990D01*
X53387171Y-125718990D02*
X53169457Y-125718990D01*
X53169457Y-125718990D02*
X53096885Y-125682705D01*
X53096885Y-125682705D02*
X53060600Y-125646419D01*
X59526590Y-112097456D02*
X59163733Y-112351456D01*
X59526590Y-112532885D02*
X58764590Y-112532885D01*
X58764590Y-112532885D02*
X58764590Y-112242599D01*
X58764590Y-112242599D02*
X58800876Y-112170028D01*
X58800876Y-112170028D02*
X58837162Y-112133742D01*
X58837162Y-112133742D02*
X58909733Y-112097456D01*
X58909733Y-112097456D02*
X59018590Y-112097456D01*
X59018590Y-112097456D02*
X59091162Y-112133742D01*
X59091162Y-112133742D02*
X59127447Y-112170028D01*
X59127447Y-112170028D02*
X59163733Y-112242599D01*
X59163733Y-112242599D02*
X59163733Y-112532885D01*
X59526590Y-111371742D02*
X59526590Y-111807171D01*
X59526590Y-111589456D02*
X58764590Y-111589456D01*
X58764590Y-111589456D02*
X58873447Y-111662028D01*
X58873447Y-111662028D02*
X58946019Y-111734599D01*
X58946019Y-111734599D02*
X58982305Y-111807171D01*
X58764590Y-110900028D02*
X58764590Y-110827457D01*
X58764590Y-110827457D02*
X58800876Y-110754885D01*
X58800876Y-110754885D02*
X58837162Y-110718600D01*
X58837162Y-110718600D02*
X58909733Y-110682314D01*
X58909733Y-110682314D02*
X59054876Y-110646028D01*
X59054876Y-110646028D02*
X59236305Y-110646028D01*
X59236305Y-110646028D02*
X59381447Y-110682314D01*
X59381447Y-110682314D02*
X59454019Y-110718600D01*
X59454019Y-110718600D02*
X59490305Y-110754885D01*
X59490305Y-110754885D02*
X59526590Y-110827457D01*
X59526590Y-110827457D02*
X59526590Y-110900028D01*
X59526590Y-110900028D02*
X59490305Y-110972600D01*
X59490305Y-110972600D02*
X59454019Y-111008885D01*
X59454019Y-111008885D02*
X59381447Y-111045171D01*
X59381447Y-111045171D02*
X59236305Y-111081457D01*
X59236305Y-111081457D02*
X59054876Y-111081457D01*
X59054876Y-111081457D02*
X58909733Y-111045171D01*
X58909733Y-111045171D02*
X58837162Y-111008885D01*
X58837162Y-111008885D02*
X58800876Y-110972600D01*
X58800876Y-110972600D02*
X58764590Y-110900028D01*
X54432200Y-123817619D02*
X54395914Y-123853905D01*
X54395914Y-123853905D02*
X54287057Y-123890190D01*
X54287057Y-123890190D02*
X54214485Y-123890190D01*
X54214485Y-123890190D02*
X54105628Y-123853905D01*
X54105628Y-123853905D02*
X54033057Y-123781333D01*
X54033057Y-123781333D02*
X53996771Y-123708762D01*
X53996771Y-123708762D02*
X53960485Y-123563619D01*
X53960485Y-123563619D02*
X53960485Y-123454762D01*
X53960485Y-123454762D02*
X53996771Y-123309619D01*
X53996771Y-123309619D02*
X54033057Y-123237047D01*
X54033057Y-123237047D02*
X54105628Y-123164476D01*
X54105628Y-123164476D02*
X54214485Y-123128190D01*
X54214485Y-123128190D02*
X54287057Y-123128190D01*
X54287057Y-123128190D02*
X54395914Y-123164476D01*
X54395914Y-123164476D02*
X54432200Y-123200762D01*
X54722485Y-123200762D02*
X54758771Y-123164476D01*
X54758771Y-123164476D02*
X54831343Y-123128190D01*
X54831343Y-123128190D02*
X55012771Y-123128190D01*
X55012771Y-123128190D02*
X55085343Y-123164476D01*
X55085343Y-123164476D02*
X55121628Y-123200762D01*
X55121628Y-123200762D02*
X55157914Y-123273333D01*
X55157914Y-123273333D02*
X55157914Y-123345905D01*
X55157914Y-123345905D02*
X55121628Y-123454762D01*
X55121628Y-123454762D02*
X54686200Y-123890190D01*
X54686200Y-123890190D02*
X55157914Y-123890190D01*
X57632600Y-88380990D02*
X57378600Y-88018133D01*
X57197171Y-88380990D02*
X57197171Y-87618990D01*
X57197171Y-87618990D02*
X57487457Y-87618990D01*
X57487457Y-87618990D02*
X57560028Y-87655276D01*
X57560028Y-87655276D02*
X57596314Y-87691562D01*
X57596314Y-87691562D02*
X57632600Y-87764133D01*
X57632600Y-87764133D02*
X57632600Y-87872990D01*
X57632600Y-87872990D02*
X57596314Y-87945562D01*
X57596314Y-87945562D02*
X57560028Y-87981847D01*
X57560028Y-87981847D02*
X57487457Y-88018133D01*
X57487457Y-88018133D02*
X57197171Y-88018133D01*
X58322028Y-87618990D02*
X57959171Y-87618990D01*
X57959171Y-87618990D02*
X57922885Y-87981847D01*
X57922885Y-87981847D02*
X57959171Y-87945562D01*
X57959171Y-87945562D02*
X58031743Y-87909276D01*
X58031743Y-87909276D02*
X58213171Y-87909276D01*
X58213171Y-87909276D02*
X58285743Y-87945562D01*
X58285743Y-87945562D02*
X58322028Y-87981847D01*
X58322028Y-87981847D02*
X58358314Y-88054419D01*
X58358314Y-88054419D02*
X58358314Y-88235847D01*
X58358314Y-88235847D02*
X58322028Y-88308419D01*
X58322028Y-88308419D02*
X58285743Y-88344705D01*
X58285743Y-88344705D02*
X58213171Y-88380990D01*
X58213171Y-88380990D02*
X58031743Y-88380990D01*
X58031743Y-88380990D02*
X57959171Y-88344705D01*
X57959171Y-88344705D02*
X57922885Y-88308419D01*
X45810590Y-69882656D02*
X45447733Y-70136656D01*
X45810590Y-70318085D02*
X45048590Y-70318085D01*
X45048590Y-70318085D02*
X45048590Y-70027799D01*
X45048590Y-70027799D02*
X45084876Y-69955228D01*
X45084876Y-69955228D02*
X45121162Y-69918942D01*
X45121162Y-69918942D02*
X45193733Y-69882656D01*
X45193733Y-69882656D02*
X45302590Y-69882656D01*
X45302590Y-69882656D02*
X45375162Y-69918942D01*
X45375162Y-69918942D02*
X45411447Y-69955228D01*
X45411447Y-69955228D02*
X45447733Y-70027799D01*
X45447733Y-70027799D02*
X45447733Y-70318085D01*
X45048590Y-69628656D02*
X45048590Y-69156942D01*
X45048590Y-69156942D02*
X45338876Y-69410942D01*
X45338876Y-69410942D02*
X45338876Y-69302085D01*
X45338876Y-69302085D02*
X45375162Y-69229514D01*
X45375162Y-69229514D02*
X45411447Y-69193228D01*
X45411447Y-69193228D02*
X45484019Y-69156942D01*
X45484019Y-69156942D02*
X45665447Y-69156942D01*
X45665447Y-69156942D02*
X45738019Y-69193228D01*
X45738019Y-69193228D02*
X45774305Y-69229514D01*
X45774305Y-69229514D02*
X45810590Y-69302085D01*
X45810590Y-69302085D02*
X45810590Y-69519799D01*
X45810590Y-69519799D02*
X45774305Y-69592371D01*
X45774305Y-69592371D02*
X45738019Y-69628656D01*
X45048590Y-68685228D02*
X45048590Y-68612657D01*
X45048590Y-68612657D02*
X45084876Y-68540085D01*
X45084876Y-68540085D02*
X45121162Y-68503800D01*
X45121162Y-68503800D02*
X45193733Y-68467514D01*
X45193733Y-68467514D02*
X45338876Y-68431228D01*
X45338876Y-68431228D02*
X45520305Y-68431228D01*
X45520305Y-68431228D02*
X45665447Y-68467514D01*
X45665447Y-68467514D02*
X45738019Y-68503800D01*
X45738019Y-68503800D02*
X45774305Y-68540085D01*
X45774305Y-68540085D02*
X45810590Y-68612657D01*
X45810590Y-68612657D02*
X45810590Y-68685228D01*
X45810590Y-68685228D02*
X45774305Y-68757800D01*
X45774305Y-68757800D02*
X45738019Y-68794085D01*
X45738019Y-68794085D02*
X45665447Y-68830371D01*
X45665447Y-68830371D02*
X45520305Y-68866657D01*
X45520305Y-68866657D02*
X45338876Y-68866657D01*
X45338876Y-68866657D02*
X45193733Y-68830371D01*
X45193733Y-68830371D02*
X45121162Y-68794085D01*
X45121162Y-68794085D02*
X45084876Y-68757800D01*
X45084876Y-68757800D02*
X45048590Y-68685228D01*
X45585743Y-130595790D02*
X45331743Y-130232933D01*
X45150314Y-130595790D02*
X45150314Y-129833790D01*
X45150314Y-129833790D02*
X45440600Y-129833790D01*
X45440600Y-129833790D02*
X45513171Y-129870076D01*
X45513171Y-129870076D02*
X45549457Y-129906362D01*
X45549457Y-129906362D02*
X45585743Y-129978933D01*
X45585743Y-129978933D02*
X45585743Y-130087790D01*
X45585743Y-130087790D02*
X45549457Y-130160362D01*
X45549457Y-130160362D02*
X45513171Y-130196647D01*
X45513171Y-130196647D02*
X45440600Y-130232933D01*
X45440600Y-130232933D02*
X45150314Y-130232933D01*
X46238886Y-130087790D02*
X46238886Y-130595790D01*
X46057457Y-129797505D02*
X45876028Y-130341790D01*
X45876028Y-130341790D02*
X46347743Y-130341790D01*
X47037171Y-130595790D02*
X46601742Y-130595790D01*
X46819457Y-130595790D02*
X46819457Y-129833790D01*
X46819457Y-129833790D02*
X46746885Y-129942647D01*
X46746885Y-129942647D02*
X46674314Y-130015219D01*
X46674314Y-130015219D02*
X46601742Y-130051505D01*
X52806600Y-130138590D02*
X52552600Y-129775733D01*
X52371171Y-130138590D02*
X52371171Y-129376590D01*
X52371171Y-129376590D02*
X52661457Y-129376590D01*
X52661457Y-129376590D02*
X52734028Y-129412876D01*
X52734028Y-129412876D02*
X52770314Y-129449162D01*
X52770314Y-129449162D02*
X52806600Y-129521733D01*
X52806600Y-129521733D02*
X52806600Y-129630590D01*
X52806600Y-129630590D02*
X52770314Y-129703162D01*
X52770314Y-129703162D02*
X52734028Y-129739447D01*
X52734028Y-129739447D02*
X52661457Y-129775733D01*
X52661457Y-129775733D02*
X52371171Y-129775733D01*
X53459743Y-129630590D02*
X53459743Y-130138590D01*
X53278314Y-129340305D02*
X53096885Y-129884590D01*
X53096885Y-129884590D02*
X53568600Y-129884590D01*
X41786628Y-139609162D02*
X41714057Y-139572876D01*
X41714057Y-139572876D02*
X41641485Y-139500305D01*
X41641485Y-139500305D02*
X41532628Y-139391447D01*
X41532628Y-139391447D02*
X41460057Y-139355162D01*
X41460057Y-139355162D02*
X41387485Y-139355162D01*
X41423771Y-139536590D02*
X41351200Y-139500305D01*
X41351200Y-139500305D02*
X41278628Y-139427733D01*
X41278628Y-139427733D02*
X41242342Y-139282590D01*
X41242342Y-139282590D02*
X41242342Y-139028590D01*
X41242342Y-139028590D02*
X41278628Y-138883447D01*
X41278628Y-138883447D02*
X41351200Y-138810876D01*
X41351200Y-138810876D02*
X41423771Y-138774590D01*
X41423771Y-138774590D02*
X41568914Y-138774590D01*
X41568914Y-138774590D02*
X41641485Y-138810876D01*
X41641485Y-138810876D02*
X41714057Y-138883447D01*
X41714057Y-138883447D02*
X41750342Y-139028590D01*
X41750342Y-139028590D02*
X41750342Y-139282590D01*
X41750342Y-139282590D02*
X41714057Y-139427733D01*
X41714057Y-139427733D02*
X41641485Y-139500305D01*
X41641485Y-139500305D02*
X41568914Y-139536590D01*
X41568914Y-139536590D02*
X41423771Y-139536590D01*
X42185771Y-139101162D02*
X42113200Y-139064876D01*
X42113200Y-139064876D02*
X42076914Y-139028590D01*
X42076914Y-139028590D02*
X42040628Y-138956019D01*
X42040628Y-138956019D02*
X42040628Y-138919733D01*
X42040628Y-138919733D02*
X42076914Y-138847162D01*
X42076914Y-138847162D02*
X42113200Y-138810876D01*
X42113200Y-138810876D02*
X42185771Y-138774590D01*
X42185771Y-138774590D02*
X42330914Y-138774590D01*
X42330914Y-138774590D02*
X42403486Y-138810876D01*
X42403486Y-138810876D02*
X42439771Y-138847162D01*
X42439771Y-138847162D02*
X42476057Y-138919733D01*
X42476057Y-138919733D02*
X42476057Y-138956019D01*
X42476057Y-138956019D02*
X42439771Y-139028590D01*
X42439771Y-139028590D02*
X42403486Y-139064876D01*
X42403486Y-139064876D02*
X42330914Y-139101162D01*
X42330914Y-139101162D02*
X42185771Y-139101162D01*
X42185771Y-139101162D02*
X42113200Y-139137447D01*
X42113200Y-139137447D02*
X42076914Y-139173733D01*
X42076914Y-139173733D02*
X42040628Y-139246305D01*
X42040628Y-139246305D02*
X42040628Y-139391447D01*
X42040628Y-139391447D02*
X42076914Y-139464019D01*
X42076914Y-139464019D02*
X42113200Y-139500305D01*
X42113200Y-139500305D02*
X42185771Y-139536590D01*
X42185771Y-139536590D02*
X42330914Y-139536590D01*
X42330914Y-139536590D02*
X42403486Y-139500305D01*
X42403486Y-139500305D02*
X42439771Y-139464019D01*
X42439771Y-139464019D02*
X42476057Y-139391447D01*
X42476057Y-139391447D02*
X42476057Y-139246305D01*
X42476057Y-139246305D02*
X42439771Y-139173733D01*
X42439771Y-139173733D02*
X42403486Y-139137447D01*
X42403486Y-139137447D02*
X42330914Y-139101162D01*
X58438143Y-55390019D02*
X58401857Y-55426305D01*
X58401857Y-55426305D02*
X58293000Y-55462590D01*
X58293000Y-55462590D02*
X58220428Y-55462590D01*
X58220428Y-55462590D02*
X58111571Y-55426305D01*
X58111571Y-55426305D02*
X58039000Y-55353733D01*
X58039000Y-55353733D02*
X58002714Y-55281162D01*
X58002714Y-55281162D02*
X57966428Y-55136019D01*
X57966428Y-55136019D02*
X57966428Y-55027162D01*
X57966428Y-55027162D02*
X58002714Y-54882019D01*
X58002714Y-54882019D02*
X58039000Y-54809447D01*
X58039000Y-54809447D02*
X58111571Y-54736876D01*
X58111571Y-54736876D02*
X58220428Y-54700590D01*
X58220428Y-54700590D02*
X58293000Y-54700590D01*
X58293000Y-54700590D02*
X58401857Y-54736876D01*
X58401857Y-54736876D02*
X58438143Y-54773162D01*
X59163857Y-55462590D02*
X58728428Y-55462590D01*
X58946143Y-55462590D02*
X58946143Y-54700590D01*
X58946143Y-54700590D02*
X58873571Y-54809447D01*
X58873571Y-54809447D02*
X58801000Y-54882019D01*
X58801000Y-54882019D02*
X58728428Y-54918305D01*
X59417857Y-54700590D02*
X59925857Y-54700590D01*
X59925857Y-54700590D02*
X59599285Y-55462590D01*
X53967743Y-97169390D02*
X53713743Y-96806533D01*
X53532314Y-97169390D02*
X53532314Y-96407390D01*
X53532314Y-96407390D02*
X53822600Y-96407390D01*
X53822600Y-96407390D02*
X53895171Y-96443676D01*
X53895171Y-96443676D02*
X53931457Y-96479962D01*
X53931457Y-96479962D02*
X53967743Y-96552533D01*
X53967743Y-96552533D02*
X53967743Y-96661390D01*
X53967743Y-96661390D02*
X53931457Y-96733962D01*
X53931457Y-96733962D02*
X53895171Y-96770247D01*
X53895171Y-96770247D02*
X53822600Y-96806533D01*
X53822600Y-96806533D02*
X53532314Y-96806533D01*
X54693457Y-97169390D02*
X54258028Y-97169390D01*
X54475743Y-97169390D02*
X54475743Y-96407390D01*
X54475743Y-96407390D02*
X54403171Y-96516247D01*
X54403171Y-96516247D02*
X54330600Y-96588819D01*
X54330600Y-96588819D02*
X54258028Y-96625105D01*
X55346600Y-96407390D02*
X55201457Y-96407390D01*
X55201457Y-96407390D02*
X55128885Y-96443676D01*
X55128885Y-96443676D02*
X55092600Y-96479962D01*
X55092600Y-96479962D02*
X55020028Y-96588819D01*
X55020028Y-96588819D02*
X54983742Y-96733962D01*
X54983742Y-96733962D02*
X54983742Y-97024247D01*
X54983742Y-97024247D02*
X55020028Y-97096819D01*
X55020028Y-97096819D02*
X55056314Y-97133105D01*
X55056314Y-97133105D02*
X55128885Y-97169390D01*
X55128885Y-97169390D02*
X55274028Y-97169390D01*
X55274028Y-97169390D02*
X55346600Y-97133105D01*
X55346600Y-97133105D02*
X55382885Y-97096819D01*
X55382885Y-97096819D02*
X55419171Y-97024247D01*
X55419171Y-97024247D02*
X55419171Y-96842819D01*
X55419171Y-96842819D02*
X55382885Y-96770247D01*
X55382885Y-96770247D02*
X55346600Y-96733962D01*
X55346600Y-96733962D02*
X55274028Y-96697676D01*
X55274028Y-96697676D02*
X55128885Y-96697676D01*
X55128885Y-96697676D02*
X55056314Y-96733962D01*
X55056314Y-96733962D02*
X55020028Y-96770247D01*
X55020028Y-96770247D02*
X54983742Y-96842819D01*
X55753000Y-135167790D02*
X55499000Y-134804933D01*
X55317571Y-135167790D02*
X55317571Y-134405790D01*
X55317571Y-134405790D02*
X55607857Y-134405790D01*
X55607857Y-134405790D02*
X55680428Y-134442076D01*
X55680428Y-134442076D02*
X55716714Y-134478362D01*
X55716714Y-134478362D02*
X55753000Y-134550933D01*
X55753000Y-134550933D02*
X55753000Y-134659790D01*
X55753000Y-134659790D02*
X55716714Y-134732362D01*
X55716714Y-134732362D02*
X55680428Y-134768647D01*
X55680428Y-134768647D02*
X55607857Y-134804933D01*
X55607857Y-134804933D02*
X55317571Y-134804933D01*
X56043285Y-134478362D02*
X56079571Y-134442076D01*
X56079571Y-134442076D02*
X56152143Y-134405790D01*
X56152143Y-134405790D02*
X56333571Y-134405790D01*
X56333571Y-134405790D02*
X56406143Y-134442076D01*
X56406143Y-134442076D02*
X56442428Y-134478362D01*
X56442428Y-134478362D02*
X56478714Y-134550933D01*
X56478714Y-134550933D02*
X56478714Y-134623505D01*
X56478714Y-134623505D02*
X56442428Y-134732362D01*
X56442428Y-134732362D02*
X56007000Y-135167790D01*
X56007000Y-135167790D02*
X56478714Y-135167790D01*
X51333400Y-87960419D02*
X51297114Y-87996705D01*
X51297114Y-87996705D02*
X51188257Y-88032990D01*
X51188257Y-88032990D02*
X51115685Y-88032990D01*
X51115685Y-88032990D02*
X51006828Y-87996705D01*
X51006828Y-87996705D02*
X50934257Y-87924133D01*
X50934257Y-87924133D02*
X50897971Y-87851562D01*
X50897971Y-87851562D02*
X50861685Y-87706419D01*
X50861685Y-87706419D02*
X50861685Y-87597562D01*
X50861685Y-87597562D02*
X50897971Y-87452419D01*
X50897971Y-87452419D02*
X50934257Y-87379847D01*
X50934257Y-87379847D02*
X51006828Y-87307276D01*
X51006828Y-87307276D02*
X51115685Y-87270990D01*
X51115685Y-87270990D02*
X51188257Y-87270990D01*
X51188257Y-87270990D02*
X51297114Y-87307276D01*
X51297114Y-87307276D02*
X51333400Y-87343562D01*
X51587400Y-87270990D02*
X52095400Y-87270990D01*
X52095400Y-87270990D02*
X51768828Y-88032990D01*
X58793743Y-90442019D02*
X58757457Y-90478305D01*
X58757457Y-90478305D02*
X58648600Y-90514590D01*
X58648600Y-90514590D02*
X58576028Y-90514590D01*
X58576028Y-90514590D02*
X58467171Y-90478305D01*
X58467171Y-90478305D02*
X58394600Y-90405733D01*
X58394600Y-90405733D02*
X58358314Y-90333162D01*
X58358314Y-90333162D02*
X58322028Y-90188019D01*
X58322028Y-90188019D02*
X58322028Y-90079162D01*
X58322028Y-90079162D02*
X58358314Y-89934019D01*
X58358314Y-89934019D02*
X58394600Y-89861447D01*
X58394600Y-89861447D02*
X58467171Y-89788876D01*
X58467171Y-89788876D02*
X58576028Y-89752590D01*
X58576028Y-89752590D02*
X58648600Y-89752590D01*
X58648600Y-89752590D02*
X58757457Y-89788876D01*
X58757457Y-89788876D02*
X58793743Y-89825162D01*
X59084028Y-89825162D02*
X59120314Y-89788876D01*
X59120314Y-89788876D02*
X59192886Y-89752590D01*
X59192886Y-89752590D02*
X59374314Y-89752590D01*
X59374314Y-89752590D02*
X59446886Y-89788876D01*
X59446886Y-89788876D02*
X59483171Y-89825162D01*
X59483171Y-89825162D02*
X59519457Y-89897733D01*
X59519457Y-89897733D02*
X59519457Y-89970305D01*
X59519457Y-89970305D02*
X59483171Y-90079162D01*
X59483171Y-90079162D02*
X59047743Y-90514590D01*
X59047743Y-90514590D02*
X59519457Y-90514590D01*
X59773457Y-89752590D02*
X60281457Y-89752590D01*
X60281457Y-89752590D02*
X59954885Y-90514590D01*
X45103143Y-99099790D02*
X44849143Y-98736933D01*
X44667714Y-99099790D02*
X44667714Y-98337790D01*
X44667714Y-98337790D02*
X44958000Y-98337790D01*
X44958000Y-98337790D02*
X45030571Y-98374076D01*
X45030571Y-98374076D02*
X45066857Y-98410362D01*
X45066857Y-98410362D02*
X45103143Y-98482933D01*
X45103143Y-98482933D02*
X45103143Y-98591790D01*
X45103143Y-98591790D02*
X45066857Y-98664362D01*
X45066857Y-98664362D02*
X45030571Y-98700647D01*
X45030571Y-98700647D02*
X44958000Y-98736933D01*
X44958000Y-98736933D02*
X44667714Y-98736933D01*
X45357143Y-98337790D02*
X45828857Y-98337790D01*
X45828857Y-98337790D02*
X45574857Y-98628076D01*
X45574857Y-98628076D02*
X45683714Y-98628076D01*
X45683714Y-98628076D02*
X45756286Y-98664362D01*
X45756286Y-98664362D02*
X45792571Y-98700647D01*
X45792571Y-98700647D02*
X45828857Y-98773219D01*
X45828857Y-98773219D02*
X45828857Y-98954647D01*
X45828857Y-98954647D02*
X45792571Y-99027219D01*
X45792571Y-99027219D02*
X45756286Y-99063505D01*
X45756286Y-99063505D02*
X45683714Y-99099790D01*
X45683714Y-99099790D02*
X45466000Y-99099790D01*
X45466000Y-99099790D02*
X45393428Y-99063505D01*
X45393428Y-99063505D02*
X45357143Y-99027219D01*
X46482000Y-98591790D02*
X46482000Y-99099790D01*
X46300571Y-98301505D02*
X46119142Y-98845790D01*
X46119142Y-98845790D02*
X46590857Y-98845790D01*
X47036790Y-69881256D02*
X46673933Y-70135256D01*
X47036790Y-70316685D02*
X46274790Y-70316685D01*
X46274790Y-70316685D02*
X46274790Y-70026399D01*
X46274790Y-70026399D02*
X46311076Y-69953828D01*
X46311076Y-69953828D02*
X46347362Y-69917542D01*
X46347362Y-69917542D02*
X46419933Y-69881256D01*
X46419933Y-69881256D02*
X46528790Y-69881256D01*
X46528790Y-69881256D02*
X46601362Y-69917542D01*
X46601362Y-69917542D02*
X46637647Y-69953828D01*
X46637647Y-69953828D02*
X46673933Y-70026399D01*
X46673933Y-70026399D02*
X46673933Y-70316685D01*
X46274790Y-69627256D02*
X46274790Y-69155542D01*
X46274790Y-69155542D02*
X46565076Y-69409542D01*
X46565076Y-69409542D02*
X46565076Y-69300685D01*
X46565076Y-69300685D02*
X46601362Y-69228114D01*
X46601362Y-69228114D02*
X46637647Y-69191828D01*
X46637647Y-69191828D02*
X46710219Y-69155542D01*
X46710219Y-69155542D02*
X46891647Y-69155542D01*
X46891647Y-69155542D02*
X46964219Y-69191828D01*
X46964219Y-69191828D02*
X47000505Y-69228114D01*
X47000505Y-69228114D02*
X47036790Y-69300685D01*
X47036790Y-69300685D02*
X47036790Y-69518399D01*
X47036790Y-69518399D02*
X47000505Y-69590971D01*
X47000505Y-69590971D02*
X46964219Y-69627256D01*
X47036790Y-68429828D02*
X47036790Y-68865257D01*
X47036790Y-68647542D02*
X46274790Y-68647542D01*
X46274790Y-68647542D02*
X46383647Y-68720114D01*
X46383647Y-68720114D02*
X46456219Y-68792685D01*
X46456219Y-68792685D02*
X46492505Y-68865257D01*
X62248143Y-96864590D02*
X61994143Y-96501733D01*
X61812714Y-96864590D02*
X61812714Y-96102590D01*
X61812714Y-96102590D02*
X62103000Y-96102590D01*
X62103000Y-96102590D02*
X62175571Y-96138876D01*
X62175571Y-96138876D02*
X62211857Y-96175162D01*
X62211857Y-96175162D02*
X62248143Y-96247733D01*
X62248143Y-96247733D02*
X62248143Y-96356590D01*
X62248143Y-96356590D02*
X62211857Y-96429162D01*
X62211857Y-96429162D02*
X62175571Y-96465447D01*
X62175571Y-96465447D02*
X62103000Y-96501733D01*
X62103000Y-96501733D02*
X61812714Y-96501733D01*
X62973857Y-96864590D02*
X62538428Y-96864590D01*
X62756143Y-96864590D02*
X62756143Y-96102590D01*
X62756143Y-96102590D02*
X62683571Y-96211447D01*
X62683571Y-96211447D02*
X62611000Y-96284019D01*
X62611000Y-96284019D02*
X62538428Y-96320305D01*
X63627000Y-96356590D02*
X63627000Y-96864590D01*
X63445571Y-96066305D02*
X63264142Y-96610590D01*
X63264142Y-96610590D02*
X63735857Y-96610590D01*
X41877219Y-110776656D02*
X41913505Y-110812942D01*
X41913505Y-110812942D02*
X41949790Y-110921799D01*
X41949790Y-110921799D02*
X41949790Y-110994371D01*
X41949790Y-110994371D02*
X41913505Y-111103228D01*
X41913505Y-111103228D02*
X41840933Y-111175799D01*
X41840933Y-111175799D02*
X41768362Y-111212085D01*
X41768362Y-111212085D02*
X41623219Y-111248371D01*
X41623219Y-111248371D02*
X41514362Y-111248371D01*
X41514362Y-111248371D02*
X41369219Y-111212085D01*
X41369219Y-111212085D02*
X41296647Y-111175799D01*
X41296647Y-111175799D02*
X41224076Y-111103228D01*
X41224076Y-111103228D02*
X41187790Y-110994371D01*
X41187790Y-110994371D02*
X41187790Y-110921799D01*
X41187790Y-110921799D02*
X41224076Y-110812942D01*
X41224076Y-110812942D02*
X41260362Y-110776656D01*
X41260362Y-110486371D02*
X41224076Y-110450085D01*
X41224076Y-110450085D02*
X41187790Y-110377514D01*
X41187790Y-110377514D02*
X41187790Y-110196085D01*
X41187790Y-110196085D02*
X41224076Y-110123514D01*
X41224076Y-110123514D02*
X41260362Y-110087228D01*
X41260362Y-110087228D02*
X41332933Y-110050942D01*
X41332933Y-110050942D02*
X41405505Y-110050942D01*
X41405505Y-110050942D02*
X41514362Y-110087228D01*
X41514362Y-110087228D02*
X41949790Y-110522656D01*
X41949790Y-110522656D02*
X41949790Y-110050942D01*
X41187790Y-109361514D02*
X41187790Y-109724371D01*
X41187790Y-109724371D02*
X41550647Y-109760657D01*
X41550647Y-109760657D02*
X41514362Y-109724371D01*
X41514362Y-109724371D02*
X41478076Y-109651800D01*
X41478076Y-109651800D02*
X41478076Y-109470371D01*
X41478076Y-109470371D02*
X41514362Y-109397800D01*
X41514362Y-109397800D02*
X41550647Y-109361514D01*
X41550647Y-109361514D02*
X41623219Y-109325228D01*
X41623219Y-109325228D02*
X41804647Y-109325228D01*
X41804647Y-109325228D02*
X41877219Y-109361514D01*
X41877219Y-109361514D02*
X41913505Y-109397800D01*
X41913505Y-109397800D02*
X41949790Y-109470371D01*
X41949790Y-109470371D02*
X41949790Y-109651800D01*
X41949790Y-109651800D02*
X41913505Y-109724371D01*
X41913505Y-109724371D02*
X41877219Y-109760657D01*
X48299790Y-69881256D02*
X47936933Y-70135256D01*
X48299790Y-70316685D02*
X47537790Y-70316685D01*
X47537790Y-70316685D02*
X47537790Y-70026399D01*
X47537790Y-70026399D02*
X47574076Y-69953828D01*
X47574076Y-69953828D02*
X47610362Y-69917542D01*
X47610362Y-69917542D02*
X47682933Y-69881256D01*
X47682933Y-69881256D02*
X47791790Y-69881256D01*
X47791790Y-69881256D02*
X47864362Y-69917542D01*
X47864362Y-69917542D02*
X47900647Y-69953828D01*
X47900647Y-69953828D02*
X47936933Y-70026399D01*
X47936933Y-70026399D02*
X47936933Y-70316685D01*
X47791790Y-69228114D02*
X48299790Y-69228114D01*
X47501505Y-69409542D02*
X48045790Y-69590971D01*
X48045790Y-69590971D02*
X48045790Y-69119256D01*
X47537790Y-68901542D02*
X47537790Y-68429828D01*
X47537790Y-68429828D02*
X47828076Y-68683828D01*
X47828076Y-68683828D02*
X47828076Y-68574971D01*
X47828076Y-68574971D02*
X47864362Y-68502400D01*
X47864362Y-68502400D02*
X47900647Y-68466114D01*
X47900647Y-68466114D02*
X47973219Y-68429828D01*
X47973219Y-68429828D02*
X48154647Y-68429828D01*
X48154647Y-68429828D02*
X48227219Y-68466114D01*
X48227219Y-68466114D02*
X48263505Y-68502400D01*
X48263505Y-68502400D02*
X48299790Y-68574971D01*
X48299790Y-68574971D02*
X48299790Y-68792685D01*
X48299790Y-68792685D02*
X48263505Y-68865257D01*
X48263505Y-68865257D02*
X48227219Y-68901542D01*
X48797028Y-83729162D02*
X48724457Y-83692876D01*
X48724457Y-83692876D02*
X48651885Y-83620305D01*
X48651885Y-83620305D02*
X48543028Y-83511447D01*
X48543028Y-83511447D02*
X48470457Y-83475162D01*
X48470457Y-83475162D02*
X48397885Y-83475162D01*
X48434171Y-83656590D02*
X48361600Y-83620305D01*
X48361600Y-83620305D02*
X48289028Y-83547733D01*
X48289028Y-83547733D02*
X48252742Y-83402590D01*
X48252742Y-83402590D02*
X48252742Y-83148590D01*
X48252742Y-83148590D02*
X48289028Y-83003447D01*
X48289028Y-83003447D02*
X48361600Y-82930876D01*
X48361600Y-82930876D02*
X48434171Y-82894590D01*
X48434171Y-82894590D02*
X48579314Y-82894590D01*
X48579314Y-82894590D02*
X48651885Y-82930876D01*
X48651885Y-82930876D02*
X48724457Y-83003447D01*
X48724457Y-83003447D02*
X48760742Y-83148590D01*
X48760742Y-83148590D02*
X48760742Y-83402590D01*
X48760742Y-83402590D02*
X48724457Y-83547733D01*
X48724457Y-83547733D02*
X48651885Y-83620305D01*
X48651885Y-83620305D02*
X48579314Y-83656590D01*
X48579314Y-83656590D02*
X48434171Y-83656590D01*
X49486457Y-83656590D02*
X49051028Y-83656590D01*
X49268743Y-83656590D02*
X49268743Y-82894590D01*
X49268743Y-82894590D02*
X49196171Y-83003447D01*
X49196171Y-83003447D02*
X49123600Y-83076019D01*
X49123600Y-83076019D02*
X49051028Y-83112305D01*
X42163144Y-117405590D02*
X41909144Y-117042733D01*
X41727715Y-117405590D02*
X41727715Y-116643590D01*
X41727715Y-116643590D02*
X42018001Y-116643590D01*
X42018001Y-116643590D02*
X42090572Y-116679876D01*
X42090572Y-116679876D02*
X42126858Y-116716162D01*
X42126858Y-116716162D02*
X42163144Y-116788733D01*
X42163144Y-116788733D02*
X42163144Y-116897590D01*
X42163144Y-116897590D02*
X42126858Y-116970162D01*
X42126858Y-116970162D02*
X42090572Y-117006447D01*
X42090572Y-117006447D02*
X42018001Y-117042733D01*
X42018001Y-117042733D02*
X41727715Y-117042733D01*
X42816287Y-116897590D02*
X42816287Y-117405590D01*
X42634858Y-116607305D02*
X42453429Y-117151590D01*
X42453429Y-117151590D02*
X42925144Y-117151590D01*
X43179143Y-116716162D02*
X43215429Y-116679876D01*
X43215429Y-116679876D02*
X43288001Y-116643590D01*
X43288001Y-116643590D02*
X43469429Y-116643590D01*
X43469429Y-116643590D02*
X43542001Y-116679876D01*
X43542001Y-116679876D02*
X43578286Y-116716162D01*
X43578286Y-116716162D02*
X43614572Y-116788733D01*
X43614572Y-116788733D02*
X43614572Y-116861305D01*
X43614572Y-116861305D02*
X43578286Y-116970162D01*
X43578286Y-116970162D02*
X43142858Y-117405590D01*
X43142858Y-117405590D02*
X43614572Y-117405590D01*
X53967743Y-95543790D02*
X53713743Y-95180933D01*
X53532314Y-95543790D02*
X53532314Y-94781790D01*
X53532314Y-94781790D02*
X53822600Y-94781790D01*
X53822600Y-94781790D02*
X53895171Y-94818076D01*
X53895171Y-94818076D02*
X53931457Y-94854362D01*
X53931457Y-94854362D02*
X53967743Y-94926933D01*
X53967743Y-94926933D02*
X53967743Y-95035790D01*
X53967743Y-95035790D02*
X53931457Y-95108362D01*
X53931457Y-95108362D02*
X53895171Y-95144647D01*
X53895171Y-95144647D02*
X53822600Y-95180933D01*
X53822600Y-95180933D02*
X53532314Y-95180933D01*
X54693457Y-95543790D02*
X54258028Y-95543790D01*
X54475743Y-95543790D02*
X54475743Y-94781790D01*
X54475743Y-94781790D02*
X54403171Y-94890647D01*
X54403171Y-94890647D02*
X54330600Y-94963219D01*
X54330600Y-94963219D02*
X54258028Y-94999505D01*
X55382885Y-94781790D02*
X55020028Y-94781790D01*
X55020028Y-94781790D02*
X54983742Y-95144647D01*
X54983742Y-95144647D02*
X55020028Y-95108362D01*
X55020028Y-95108362D02*
X55092600Y-95072076D01*
X55092600Y-95072076D02*
X55274028Y-95072076D01*
X55274028Y-95072076D02*
X55346600Y-95108362D01*
X55346600Y-95108362D02*
X55382885Y-95144647D01*
X55382885Y-95144647D02*
X55419171Y-95217219D01*
X55419171Y-95217219D02*
X55419171Y-95398647D01*
X55419171Y-95398647D02*
X55382885Y-95471219D01*
X55382885Y-95471219D02*
X55346600Y-95507505D01*
X55346600Y-95507505D02*
X55274028Y-95543790D01*
X55274028Y-95543790D02*
X55092600Y-95543790D01*
X55092600Y-95543790D02*
X55020028Y-95507505D01*
X55020028Y-95507505D02*
X54983742Y-95471219D01*
X38535428Y-126807562D02*
X38462857Y-126771276D01*
X38462857Y-126771276D02*
X38390285Y-126698705D01*
X38390285Y-126698705D02*
X38281428Y-126589847D01*
X38281428Y-126589847D02*
X38208857Y-126553562D01*
X38208857Y-126553562D02*
X38136285Y-126553562D01*
X38172571Y-126734990D02*
X38100000Y-126698705D01*
X38100000Y-126698705D02*
X38027428Y-126626133D01*
X38027428Y-126626133D02*
X37991142Y-126480990D01*
X37991142Y-126480990D02*
X37991142Y-126226990D01*
X37991142Y-126226990D02*
X38027428Y-126081847D01*
X38027428Y-126081847D02*
X38100000Y-126009276D01*
X38100000Y-126009276D02*
X38172571Y-125972990D01*
X38172571Y-125972990D02*
X38317714Y-125972990D01*
X38317714Y-125972990D02*
X38390285Y-126009276D01*
X38390285Y-126009276D02*
X38462857Y-126081847D01*
X38462857Y-126081847D02*
X38499142Y-126226990D01*
X38499142Y-126226990D02*
X38499142Y-126480990D01*
X38499142Y-126480990D02*
X38462857Y-126626133D01*
X38462857Y-126626133D02*
X38390285Y-126698705D01*
X38390285Y-126698705D02*
X38317714Y-126734990D01*
X38317714Y-126734990D02*
X38172571Y-126734990D01*
X38862000Y-126734990D02*
X39007143Y-126734990D01*
X39007143Y-126734990D02*
X39079714Y-126698705D01*
X39079714Y-126698705D02*
X39116000Y-126662419D01*
X39116000Y-126662419D02*
X39188571Y-126553562D01*
X39188571Y-126553562D02*
X39224857Y-126408419D01*
X39224857Y-126408419D02*
X39224857Y-126118133D01*
X39224857Y-126118133D02*
X39188571Y-126045562D01*
X39188571Y-126045562D02*
X39152286Y-126009276D01*
X39152286Y-126009276D02*
X39079714Y-125972990D01*
X39079714Y-125972990D02*
X38934571Y-125972990D01*
X38934571Y-125972990D02*
X38862000Y-126009276D01*
X38862000Y-126009276D02*
X38825714Y-126045562D01*
X38825714Y-126045562D02*
X38789428Y-126118133D01*
X38789428Y-126118133D02*
X38789428Y-126299562D01*
X38789428Y-126299562D02*
X38825714Y-126372133D01*
X38825714Y-126372133D02*
X38862000Y-126408419D01*
X38862000Y-126408419D02*
X38934571Y-126444705D01*
X38934571Y-126444705D02*
X39079714Y-126444705D01*
X39079714Y-126444705D02*
X39152286Y-126408419D01*
X39152286Y-126408419D02*
X39188571Y-126372133D01*
X39188571Y-126372133D02*
X39224857Y-126299562D01*
X56761743Y-67095790D02*
X56507743Y-66732933D01*
X56326314Y-67095790D02*
X56326314Y-66333790D01*
X56326314Y-66333790D02*
X56616600Y-66333790D01*
X56616600Y-66333790D02*
X56689171Y-66370076D01*
X56689171Y-66370076D02*
X56725457Y-66406362D01*
X56725457Y-66406362D02*
X56761743Y-66478933D01*
X56761743Y-66478933D02*
X56761743Y-66587790D01*
X56761743Y-66587790D02*
X56725457Y-66660362D01*
X56725457Y-66660362D02*
X56689171Y-66696647D01*
X56689171Y-66696647D02*
X56616600Y-66732933D01*
X56616600Y-66732933D02*
X56326314Y-66732933D01*
X57052028Y-66406362D02*
X57088314Y-66370076D01*
X57088314Y-66370076D02*
X57160886Y-66333790D01*
X57160886Y-66333790D02*
X57342314Y-66333790D01*
X57342314Y-66333790D02*
X57414886Y-66370076D01*
X57414886Y-66370076D02*
X57451171Y-66406362D01*
X57451171Y-66406362D02*
X57487457Y-66478933D01*
X57487457Y-66478933D02*
X57487457Y-66551505D01*
X57487457Y-66551505D02*
X57451171Y-66660362D01*
X57451171Y-66660362D02*
X57015743Y-67095790D01*
X57015743Y-67095790D02*
X57487457Y-67095790D01*
X57741457Y-66333790D02*
X58213171Y-66333790D01*
X58213171Y-66333790D02*
X57959171Y-66624076D01*
X57959171Y-66624076D02*
X58068028Y-66624076D01*
X58068028Y-66624076D02*
X58140600Y-66660362D01*
X58140600Y-66660362D02*
X58176885Y-66696647D01*
X58176885Y-66696647D02*
X58213171Y-66769219D01*
X58213171Y-66769219D02*
X58213171Y-66950647D01*
X58213171Y-66950647D02*
X58176885Y-67023219D01*
X58176885Y-67023219D02*
X58140600Y-67059505D01*
X58140600Y-67059505D02*
X58068028Y-67095790D01*
X58068028Y-67095790D02*
X57850314Y-67095790D01*
X57850314Y-67095790D02*
X57777742Y-67059505D01*
X57777742Y-67059505D02*
X57741457Y-67023219D01*
X49649743Y-105326419D02*
X49613457Y-105362705D01*
X49613457Y-105362705D02*
X49504600Y-105398990D01*
X49504600Y-105398990D02*
X49432028Y-105398990D01*
X49432028Y-105398990D02*
X49323171Y-105362705D01*
X49323171Y-105362705D02*
X49250600Y-105290133D01*
X49250600Y-105290133D02*
X49214314Y-105217562D01*
X49214314Y-105217562D02*
X49178028Y-105072419D01*
X49178028Y-105072419D02*
X49178028Y-104963562D01*
X49178028Y-104963562D02*
X49214314Y-104818419D01*
X49214314Y-104818419D02*
X49250600Y-104745847D01*
X49250600Y-104745847D02*
X49323171Y-104673276D01*
X49323171Y-104673276D02*
X49432028Y-104636990D01*
X49432028Y-104636990D02*
X49504600Y-104636990D01*
X49504600Y-104636990D02*
X49613457Y-104673276D01*
X49613457Y-104673276D02*
X49649743Y-104709562D01*
X49940028Y-104709562D02*
X49976314Y-104673276D01*
X49976314Y-104673276D02*
X50048886Y-104636990D01*
X50048886Y-104636990D02*
X50230314Y-104636990D01*
X50230314Y-104636990D02*
X50302886Y-104673276D01*
X50302886Y-104673276D02*
X50339171Y-104709562D01*
X50339171Y-104709562D02*
X50375457Y-104782133D01*
X50375457Y-104782133D02*
X50375457Y-104854705D01*
X50375457Y-104854705D02*
X50339171Y-104963562D01*
X50339171Y-104963562D02*
X49903743Y-105398990D01*
X49903743Y-105398990D02*
X50375457Y-105398990D01*
X50665742Y-104709562D02*
X50702028Y-104673276D01*
X50702028Y-104673276D02*
X50774600Y-104636990D01*
X50774600Y-104636990D02*
X50956028Y-104636990D01*
X50956028Y-104636990D02*
X51028600Y-104673276D01*
X51028600Y-104673276D02*
X51064885Y-104709562D01*
X51064885Y-104709562D02*
X51101171Y-104782133D01*
X51101171Y-104782133D02*
X51101171Y-104854705D01*
X51101171Y-104854705D02*
X51064885Y-104963562D01*
X51064885Y-104963562D02*
X50629457Y-105398990D01*
X50629457Y-105398990D02*
X51101171Y-105398990D01*
X56761743Y-69026190D02*
X56507743Y-68663333D01*
X56326314Y-69026190D02*
X56326314Y-68264190D01*
X56326314Y-68264190D02*
X56616600Y-68264190D01*
X56616600Y-68264190D02*
X56689171Y-68300476D01*
X56689171Y-68300476D02*
X56725457Y-68336762D01*
X56725457Y-68336762D02*
X56761743Y-68409333D01*
X56761743Y-68409333D02*
X56761743Y-68518190D01*
X56761743Y-68518190D02*
X56725457Y-68590762D01*
X56725457Y-68590762D02*
X56689171Y-68627047D01*
X56689171Y-68627047D02*
X56616600Y-68663333D01*
X56616600Y-68663333D02*
X56326314Y-68663333D01*
X57052028Y-68336762D02*
X57088314Y-68300476D01*
X57088314Y-68300476D02*
X57160886Y-68264190D01*
X57160886Y-68264190D02*
X57342314Y-68264190D01*
X57342314Y-68264190D02*
X57414886Y-68300476D01*
X57414886Y-68300476D02*
X57451171Y-68336762D01*
X57451171Y-68336762D02*
X57487457Y-68409333D01*
X57487457Y-68409333D02*
X57487457Y-68481905D01*
X57487457Y-68481905D02*
X57451171Y-68590762D01*
X57451171Y-68590762D02*
X57015743Y-69026190D01*
X57015743Y-69026190D02*
X57487457Y-69026190D01*
X58140600Y-68518190D02*
X58140600Y-69026190D01*
X57959171Y-68227905D02*
X57777742Y-68772190D01*
X57777742Y-68772190D02*
X58249457Y-68772190D01*
X41340190Y-104927399D02*
X41340190Y-105290256D01*
X41340190Y-105290256D02*
X40578190Y-105290256D01*
X41340190Y-104274256D02*
X41340190Y-104709685D01*
X41340190Y-104491970D02*
X40578190Y-104491970D01*
X40578190Y-104491970D02*
X40687047Y-104564542D01*
X40687047Y-104564542D02*
X40759619Y-104637113D01*
X40759619Y-104637113D02*
X40795905Y-104709685D01*
X49758600Y-118585219D02*
X49722314Y-118621505D01*
X49722314Y-118621505D02*
X49613457Y-118657790D01*
X49613457Y-118657790D02*
X49540885Y-118657790D01*
X49540885Y-118657790D02*
X49432028Y-118621505D01*
X49432028Y-118621505D02*
X49359457Y-118548933D01*
X49359457Y-118548933D02*
X49323171Y-118476362D01*
X49323171Y-118476362D02*
X49286885Y-118331219D01*
X49286885Y-118331219D02*
X49286885Y-118222362D01*
X49286885Y-118222362D02*
X49323171Y-118077219D01*
X49323171Y-118077219D02*
X49359457Y-118004647D01*
X49359457Y-118004647D02*
X49432028Y-117932076D01*
X49432028Y-117932076D02*
X49540885Y-117895790D01*
X49540885Y-117895790D02*
X49613457Y-117895790D01*
X49613457Y-117895790D02*
X49722314Y-117932076D01*
X49722314Y-117932076D02*
X49758600Y-117968362D01*
X50411743Y-118149790D02*
X50411743Y-118657790D01*
X50230314Y-117859505D02*
X50048885Y-118403790D01*
X50048885Y-118403790D02*
X50520600Y-118403790D01*
X53713743Y-105348190D02*
X53459743Y-104985333D01*
X53278314Y-105348190D02*
X53278314Y-104586190D01*
X53278314Y-104586190D02*
X53568600Y-104586190D01*
X53568600Y-104586190D02*
X53641171Y-104622476D01*
X53641171Y-104622476D02*
X53677457Y-104658762D01*
X53677457Y-104658762D02*
X53713743Y-104731333D01*
X53713743Y-104731333D02*
X53713743Y-104840190D01*
X53713743Y-104840190D02*
X53677457Y-104912762D01*
X53677457Y-104912762D02*
X53641171Y-104949047D01*
X53641171Y-104949047D02*
X53568600Y-104985333D01*
X53568600Y-104985333D02*
X53278314Y-104985333D01*
X54439457Y-105348190D02*
X54004028Y-105348190D01*
X54221743Y-105348190D02*
X54221743Y-104586190D01*
X54221743Y-104586190D02*
X54149171Y-104695047D01*
X54149171Y-104695047D02*
X54076600Y-104767619D01*
X54076600Y-104767619D02*
X54004028Y-104803905D01*
X54802314Y-105348190D02*
X54947457Y-105348190D01*
X54947457Y-105348190D02*
X55020028Y-105311905D01*
X55020028Y-105311905D02*
X55056314Y-105275619D01*
X55056314Y-105275619D02*
X55128885Y-105166762D01*
X55128885Y-105166762D02*
X55165171Y-105021619D01*
X55165171Y-105021619D02*
X55165171Y-104731333D01*
X55165171Y-104731333D02*
X55128885Y-104658762D01*
X55128885Y-104658762D02*
X55092600Y-104622476D01*
X55092600Y-104622476D02*
X55020028Y-104586190D01*
X55020028Y-104586190D02*
X54874885Y-104586190D01*
X54874885Y-104586190D02*
X54802314Y-104622476D01*
X54802314Y-104622476D02*
X54766028Y-104658762D01*
X54766028Y-104658762D02*
X54729742Y-104731333D01*
X54729742Y-104731333D02*
X54729742Y-104912762D01*
X54729742Y-104912762D02*
X54766028Y-104985333D01*
X54766028Y-104985333D02*
X54802314Y-105021619D01*
X54802314Y-105021619D02*
X54874885Y-105057905D01*
X54874885Y-105057905D02*
X55020028Y-105057905D01*
X55020028Y-105057905D02*
X55092600Y-105021619D01*
X55092600Y-105021619D02*
X55128885Y-104985333D01*
X55128885Y-104985333D02*
X55165171Y-104912762D01*
X60673343Y-93689590D02*
X60419343Y-93326733D01*
X60237914Y-93689590D02*
X60237914Y-92927590D01*
X60237914Y-92927590D02*
X60528200Y-92927590D01*
X60528200Y-92927590D02*
X60600771Y-92963876D01*
X60600771Y-92963876D02*
X60637057Y-93000162D01*
X60637057Y-93000162D02*
X60673343Y-93072733D01*
X60673343Y-93072733D02*
X60673343Y-93181590D01*
X60673343Y-93181590D02*
X60637057Y-93254162D01*
X60637057Y-93254162D02*
X60600771Y-93290447D01*
X60600771Y-93290447D02*
X60528200Y-93326733D01*
X60528200Y-93326733D02*
X60237914Y-93326733D01*
X60927343Y-92927590D02*
X61399057Y-92927590D01*
X61399057Y-92927590D02*
X61145057Y-93217876D01*
X61145057Y-93217876D02*
X61253914Y-93217876D01*
X61253914Y-93217876D02*
X61326486Y-93254162D01*
X61326486Y-93254162D02*
X61362771Y-93290447D01*
X61362771Y-93290447D02*
X61399057Y-93363019D01*
X61399057Y-93363019D02*
X61399057Y-93544447D01*
X61399057Y-93544447D02*
X61362771Y-93617019D01*
X61362771Y-93617019D02*
X61326486Y-93653305D01*
X61326486Y-93653305D02*
X61253914Y-93689590D01*
X61253914Y-93689590D02*
X61036200Y-93689590D01*
X61036200Y-93689590D02*
X60963628Y-93653305D01*
X60963628Y-93653305D02*
X60927343Y-93617019D01*
X61761914Y-93689590D02*
X61907057Y-93689590D01*
X61907057Y-93689590D02*
X61979628Y-93653305D01*
X61979628Y-93653305D02*
X62015914Y-93617019D01*
X62015914Y-93617019D02*
X62088485Y-93508162D01*
X62088485Y-93508162D02*
X62124771Y-93363019D01*
X62124771Y-93363019D02*
X62124771Y-93072733D01*
X62124771Y-93072733D02*
X62088485Y-93000162D01*
X62088485Y-93000162D02*
X62052200Y-92963876D01*
X62052200Y-92963876D02*
X61979628Y-92927590D01*
X61979628Y-92927590D02*
X61834485Y-92927590D01*
X61834485Y-92927590D02*
X61761914Y-92963876D01*
X61761914Y-92963876D02*
X61725628Y-93000162D01*
X61725628Y-93000162D02*
X61689342Y-93072733D01*
X61689342Y-93072733D02*
X61689342Y-93254162D01*
X61689342Y-93254162D02*
X61725628Y-93326733D01*
X61725628Y-93326733D02*
X61761914Y-93363019D01*
X61761914Y-93363019D02*
X61834485Y-93399305D01*
X61834485Y-93399305D02*
X61979628Y-93399305D01*
X61979628Y-93399305D02*
X62052200Y-93363019D01*
X62052200Y-93363019D02*
X62088485Y-93326733D01*
X62088485Y-93326733D02*
X62124771Y-93254162D01*
X41398590Y-74657856D02*
X41035733Y-74911856D01*
X41398590Y-75093285D02*
X40636590Y-75093285D01*
X40636590Y-75093285D02*
X40636590Y-74802999D01*
X40636590Y-74802999D02*
X40672876Y-74730428D01*
X40672876Y-74730428D02*
X40709162Y-74694142D01*
X40709162Y-74694142D02*
X40781733Y-74657856D01*
X40781733Y-74657856D02*
X40890590Y-74657856D01*
X40890590Y-74657856D02*
X40963162Y-74694142D01*
X40963162Y-74694142D02*
X40999447Y-74730428D01*
X40999447Y-74730428D02*
X41035733Y-74802999D01*
X41035733Y-74802999D02*
X41035733Y-75093285D01*
X40709162Y-74367571D02*
X40672876Y-74331285D01*
X40672876Y-74331285D02*
X40636590Y-74258714D01*
X40636590Y-74258714D02*
X40636590Y-74077285D01*
X40636590Y-74077285D02*
X40672876Y-74004714D01*
X40672876Y-74004714D02*
X40709162Y-73968428D01*
X40709162Y-73968428D02*
X40781733Y-73932142D01*
X40781733Y-73932142D02*
X40854305Y-73932142D01*
X40854305Y-73932142D02*
X40963162Y-73968428D01*
X40963162Y-73968428D02*
X41398590Y-74403856D01*
X41398590Y-74403856D02*
X41398590Y-73932142D01*
X41398590Y-73206428D02*
X41398590Y-73641857D01*
X41398590Y-73424142D02*
X40636590Y-73424142D01*
X40636590Y-73424142D02*
X40745447Y-73496714D01*
X40745447Y-73496714D02*
X40818019Y-73569285D01*
X40818019Y-73569285D02*
X40854305Y-73641857D01*
X39854393Y-97655619D02*
X39818107Y-97691905D01*
X39818107Y-97691905D02*
X39709250Y-97728190D01*
X39709250Y-97728190D02*
X39636678Y-97728190D01*
X39636678Y-97728190D02*
X39527821Y-97691905D01*
X39527821Y-97691905D02*
X39455250Y-97619333D01*
X39455250Y-97619333D02*
X39418964Y-97546762D01*
X39418964Y-97546762D02*
X39382678Y-97401619D01*
X39382678Y-97401619D02*
X39382678Y-97292762D01*
X39382678Y-97292762D02*
X39418964Y-97147619D01*
X39418964Y-97147619D02*
X39455250Y-97075047D01*
X39455250Y-97075047D02*
X39527821Y-97002476D01*
X39527821Y-97002476D02*
X39636678Y-96966190D01*
X39636678Y-96966190D02*
X39709250Y-96966190D01*
X39709250Y-96966190D02*
X39818107Y-97002476D01*
X39818107Y-97002476D02*
X39854393Y-97038762D01*
X40580107Y-97728190D02*
X40144678Y-97728190D01*
X40362393Y-97728190D02*
X40362393Y-96966190D01*
X40362393Y-96966190D02*
X40289821Y-97075047D01*
X40289821Y-97075047D02*
X40217250Y-97147619D01*
X40217250Y-97147619D02*
X40144678Y-97183905D01*
X41051821Y-96966190D02*
X41124392Y-96966190D01*
X41124392Y-96966190D02*
X41196964Y-97002476D01*
X41196964Y-97002476D02*
X41233250Y-97038762D01*
X41233250Y-97038762D02*
X41269535Y-97111333D01*
X41269535Y-97111333D02*
X41305821Y-97256476D01*
X41305821Y-97256476D02*
X41305821Y-97437905D01*
X41305821Y-97437905D02*
X41269535Y-97583047D01*
X41269535Y-97583047D02*
X41233250Y-97655619D01*
X41233250Y-97655619D02*
X41196964Y-97691905D01*
X41196964Y-97691905D02*
X41124392Y-97728190D01*
X41124392Y-97728190D02*
X41051821Y-97728190D01*
X41051821Y-97728190D02*
X40979250Y-97691905D01*
X40979250Y-97691905D02*
X40942964Y-97655619D01*
X40942964Y-97655619D02*
X40906678Y-97583047D01*
X40906678Y-97583047D02*
X40870392Y-97437905D01*
X40870392Y-97437905D02*
X40870392Y-97256476D01*
X40870392Y-97256476D02*
X40906678Y-97111333D01*
X40906678Y-97111333D02*
X40942964Y-97038762D01*
X40942964Y-97038762D02*
X40979250Y-97002476D01*
X40979250Y-97002476D02*
X41051821Y-96966190D01*
X53408943Y-101741390D02*
X53154943Y-101378533D01*
X52973514Y-101741390D02*
X52973514Y-100979390D01*
X52973514Y-100979390D02*
X53263800Y-100979390D01*
X53263800Y-100979390D02*
X53336371Y-101015676D01*
X53336371Y-101015676D02*
X53372657Y-101051962D01*
X53372657Y-101051962D02*
X53408943Y-101124533D01*
X53408943Y-101124533D02*
X53408943Y-101233390D01*
X53408943Y-101233390D02*
X53372657Y-101305962D01*
X53372657Y-101305962D02*
X53336371Y-101342247D01*
X53336371Y-101342247D02*
X53263800Y-101378533D01*
X53263800Y-101378533D02*
X52973514Y-101378533D01*
X53699228Y-101051962D02*
X53735514Y-101015676D01*
X53735514Y-101015676D02*
X53808086Y-100979390D01*
X53808086Y-100979390D02*
X53989514Y-100979390D01*
X53989514Y-100979390D02*
X54062086Y-101015676D01*
X54062086Y-101015676D02*
X54098371Y-101051962D01*
X54098371Y-101051962D02*
X54134657Y-101124533D01*
X54134657Y-101124533D02*
X54134657Y-101197105D01*
X54134657Y-101197105D02*
X54098371Y-101305962D01*
X54098371Y-101305962D02*
X53662943Y-101741390D01*
X53662943Y-101741390D02*
X54134657Y-101741390D01*
X54606371Y-100979390D02*
X54678942Y-100979390D01*
X54678942Y-100979390D02*
X54751514Y-101015676D01*
X54751514Y-101015676D02*
X54787800Y-101051962D01*
X54787800Y-101051962D02*
X54824085Y-101124533D01*
X54824085Y-101124533D02*
X54860371Y-101269676D01*
X54860371Y-101269676D02*
X54860371Y-101451105D01*
X54860371Y-101451105D02*
X54824085Y-101596247D01*
X54824085Y-101596247D02*
X54787800Y-101668819D01*
X54787800Y-101668819D02*
X54751514Y-101705105D01*
X54751514Y-101705105D02*
X54678942Y-101741390D01*
X54678942Y-101741390D02*
X54606371Y-101741390D01*
X54606371Y-101741390D02*
X54533800Y-101705105D01*
X54533800Y-101705105D02*
X54497514Y-101668819D01*
X54497514Y-101668819D02*
X54461228Y-101596247D01*
X54461228Y-101596247D02*
X54424942Y-101451105D01*
X54424942Y-101451105D02*
X54424942Y-101269676D01*
X54424942Y-101269676D02*
X54461228Y-101124533D01*
X54461228Y-101124533D02*
X54497514Y-101051962D01*
X54497514Y-101051962D02*
X54533800Y-101015676D01*
X54533800Y-101015676D02*
X54606371Y-100979390D01*
X38372143Y-69432590D02*
X38118143Y-69069733D01*
X37936714Y-69432590D02*
X37936714Y-68670590D01*
X37936714Y-68670590D02*
X38227000Y-68670590D01*
X38227000Y-68670590D02*
X38299571Y-68706876D01*
X38299571Y-68706876D02*
X38335857Y-68743162D01*
X38335857Y-68743162D02*
X38372143Y-68815733D01*
X38372143Y-68815733D02*
X38372143Y-68924590D01*
X38372143Y-68924590D02*
X38335857Y-68997162D01*
X38335857Y-68997162D02*
X38299571Y-69033447D01*
X38299571Y-69033447D02*
X38227000Y-69069733D01*
X38227000Y-69069733D02*
X37936714Y-69069733D01*
X38662428Y-68743162D02*
X38698714Y-68706876D01*
X38698714Y-68706876D02*
X38771286Y-68670590D01*
X38771286Y-68670590D02*
X38952714Y-68670590D01*
X38952714Y-68670590D02*
X39025286Y-68706876D01*
X39025286Y-68706876D02*
X39061571Y-68743162D01*
X39061571Y-68743162D02*
X39097857Y-68815733D01*
X39097857Y-68815733D02*
X39097857Y-68888305D01*
X39097857Y-68888305D02*
X39061571Y-68997162D01*
X39061571Y-68997162D02*
X38626143Y-69432590D01*
X38626143Y-69432590D02*
X39097857Y-69432590D01*
X39388142Y-68743162D02*
X39424428Y-68706876D01*
X39424428Y-68706876D02*
X39497000Y-68670590D01*
X39497000Y-68670590D02*
X39678428Y-68670590D01*
X39678428Y-68670590D02*
X39751000Y-68706876D01*
X39751000Y-68706876D02*
X39787285Y-68743162D01*
X39787285Y-68743162D02*
X39823571Y-68815733D01*
X39823571Y-68815733D02*
X39823571Y-68888305D01*
X39823571Y-68888305D02*
X39787285Y-68997162D01*
X39787285Y-68997162D02*
X39351857Y-69432590D01*
X39351857Y-69432590D02*
X39823571Y-69432590D01*
X42334543Y-114927619D02*
X42298257Y-114963905D01*
X42298257Y-114963905D02*
X42189400Y-115000190D01*
X42189400Y-115000190D02*
X42116828Y-115000190D01*
X42116828Y-115000190D02*
X42007971Y-114963905D01*
X42007971Y-114963905D02*
X41935400Y-114891333D01*
X41935400Y-114891333D02*
X41899114Y-114818762D01*
X41899114Y-114818762D02*
X41862828Y-114673619D01*
X41862828Y-114673619D02*
X41862828Y-114564762D01*
X41862828Y-114564762D02*
X41899114Y-114419619D01*
X41899114Y-114419619D02*
X41935400Y-114347047D01*
X41935400Y-114347047D02*
X42007971Y-114274476D01*
X42007971Y-114274476D02*
X42116828Y-114238190D01*
X42116828Y-114238190D02*
X42189400Y-114238190D01*
X42189400Y-114238190D02*
X42298257Y-114274476D01*
X42298257Y-114274476D02*
X42334543Y-114310762D01*
X42624828Y-114310762D02*
X42661114Y-114274476D01*
X42661114Y-114274476D02*
X42733686Y-114238190D01*
X42733686Y-114238190D02*
X42915114Y-114238190D01*
X42915114Y-114238190D02*
X42987686Y-114274476D01*
X42987686Y-114274476D02*
X43023971Y-114310762D01*
X43023971Y-114310762D02*
X43060257Y-114383333D01*
X43060257Y-114383333D02*
X43060257Y-114455905D01*
X43060257Y-114455905D02*
X43023971Y-114564762D01*
X43023971Y-114564762D02*
X42588543Y-115000190D01*
X42588543Y-115000190D02*
X43060257Y-115000190D01*
X43531971Y-114238190D02*
X43604542Y-114238190D01*
X43604542Y-114238190D02*
X43677114Y-114274476D01*
X43677114Y-114274476D02*
X43713400Y-114310762D01*
X43713400Y-114310762D02*
X43749685Y-114383333D01*
X43749685Y-114383333D02*
X43785971Y-114528476D01*
X43785971Y-114528476D02*
X43785971Y-114709905D01*
X43785971Y-114709905D02*
X43749685Y-114855047D01*
X43749685Y-114855047D02*
X43713400Y-114927619D01*
X43713400Y-114927619D02*
X43677114Y-114963905D01*
X43677114Y-114963905D02*
X43604542Y-115000190D01*
X43604542Y-115000190D02*
X43531971Y-115000190D01*
X43531971Y-115000190D02*
X43459400Y-114963905D01*
X43459400Y-114963905D02*
X43423114Y-114927619D01*
X43423114Y-114927619D02*
X43386828Y-114855047D01*
X43386828Y-114855047D02*
X43350542Y-114709905D01*
X43350542Y-114709905D02*
X43350542Y-114528476D01*
X43350542Y-114528476D02*
X43386828Y-114383333D01*
X43386828Y-114383333D02*
X43423114Y-114310762D01*
X43423114Y-114310762D02*
X43459400Y-114274476D01*
X43459400Y-114274476D02*
X43531971Y-114238190D01*
X50879828Y-73569162D02*
X50807257Y-73532876D01*
X50807257Y-73532876D02*
X50734685Y-73460305D01*
X50734685Y-73460305D02*
X50625828Y-73351447D01*
X50625828Y-73351447D02*
X50553257Y-73315162D01*
X50553257Y-73315162D02*
X50480685Y-73315162D01*
X50516971Y-73496590D02*
X50444400Y-73460305D01*
X50444400Y-73460305D02*
X50371828Y-73387733D01*
X50371828Y-73387733D02*
X50335542Y-73242590D01*
X50335542Y-73242590D02*
X50335542Y-72988590D01*
X50335542Y-72988590D02*
X50371828Y-72843447D01*
X50371828Y-72843447D02*
X50444400Y-72770876D01*
X50444400Y-72770876D02*
X50516971Y-72734590D01*
X50516971Y-72734590D02*
X50662114Y-72734590D01*
X50662114Y-72734590D02*
X50734685Y-72770876D01*
X50734685Y-72770876D02*
X50807257Y-72843447D01*
X50807257Y-72843447D02*
X50843542Y-72988590D01*
X50843542Y-72988590D02*
X50843542Y-73242590D01*
X50843542Y-73242590D02*
X50807257Y-73387733D01*
X50807257Y-73387733D02*
X50734685Y-73460305D01*
X50734685Y-73460305D02*
X50662114Y-73496590D01*
X50662114Y-73496590D02*
X50516971Y-73496590D01*
X51097543Y-72734590D02*
X51605543Y-72734590D01*
X51605543Y-72734590D02*
X51278971Y-73496590D01*
X53416200Y-92292590D02*
X53162200Y-91929733D01*
X52980771Y-92292590D02*
X52980771Y-91530590D01*
X52980771Y-91530590D02*
X53271057Y-91530590D01*
X53271057Y-91530590D02*
X53343628Y-91566876D01*
X53343628Y-91566876D02*
X53379914Y-91603162D01*
X53379914Y-91603162D02*
X53416200Y-91675733D01*
X53416200Y-91675733D02*
X53416200Y-91784590D01*
X53416200Y-91784590D02*
X53379914Y-91857162D01*
X53379914Y-91857162D02*
X53343628Y-91893447D01*
X53343628Y-91893447D02*
X53271057Y-91929733D01*
X53271057Y-91929733D02*
X52980771Y-91929733D01*
X53670200Y-91530590D02*
X54178200Y-91530590D01*
X54178200Y-91530590D02*
X53851628Y-92292590D01*
X63293171Y-107532590D02*
X63293171Y-106770590D01*
X63293171Y-106770590D02*
X63474600Y-106770590D01*
X63474600Y-106770590D02*
X63583457Y-106806876D01*
X63583457Y-106806876D02*
X63656028Y-106879447D01*
X63656028Y-106879447D02*
X63692314Y-106952019D01*
X63692314Y-106952019D02*
X63728600Y-107097162D01*
X63728600Y-107097162D02*
X63728600Y-107206019D01*
X63728600Y-107206019D02*
X63692314Y-107351162D01*
X63692314Y-107351162D02*
X63656028Y-107423733D01*
X63656028Y-107423733D02*
X63583457Y-107496305D01*
X63583457Y-107496305D02*
X63474600Y-107532590D01*
X63474600Y-107532590D02*
X63293171Y-107532590D01*
X63982600Y-106770590D02*
X64490600Y-106770590D01*
X64490600Y-106770590D02*
X64164028Y-107532590D01*
X53662943Y-103853219D02*
X53626657Y-103889505D01*
X53626657Y-103889505D02*
X53517800Y-103925790D01*
X53517800Y-103925790D02*
X53445228Y-103925790D01*
X53445228Y-103925790D02*
X53336371Y-103889505D01*
X53336371Y-103889505D02*
X53263800Y-103816933D01*
X53263800Y-103816933D02*
X53227514Y-103744362D01*
X53227514Y-103744362D02*
X53191228Y-103599219D01*
X53191228Y-103599219D02*
X53191228Y-103490362D01*
X53191228Y-103490362D02*
X53227514Y-103345219D01*
X53227514Y-103345219D02*
X53263800Y-103272647D01*
X53263800Y-103272647D02*
X53336371Y-103200076D01*
X53336371Y-103200076D02*
X53445228Y-103163790D01*
X53445228Y-103163790D02*
X53517800Y-103163790D01*
X53517800Y-103163790D02*
X53626657Y-103200076D01*
X53626657Y-103200076D02*
X53662943Y-103236362D01*
X54388657Y-103925790D02*
X53953228Y-103925790D01*
X54170943Y-103925790D02*
X54170943Y-103163790D01*
X54170943Y-103163790D02*
X54098371Y-103272647D01*
X54098371Y-103272647D02*
X54025800Y-103345219D01*
X54025800Y-103345219D02*
X53953228Y-103381505D01*
X54642657Y-103163790D02*
X55114371Y-103163790D01*
X55114371Y-103163790D02*
X54860371Y-103454076D01*
X54860371Y-103454076D02*
X54969228Y-103454076D01*
X54969228Y-103454076D02*
X55041800Y-103490362D01*
X55041800Y-103490362D02*
X55078085Y-103526647D01*
X55078085Y-103526647D02*
X55114371Y-103599219D01*
X55114371Y-103599219D02*
X55114371Y-103780647D01*
X55114371Y-103780647D02*
X55078085Y-103853219D01*
X55078085Y-103853219D02*
X55041800Y-103889505D01*
X55041800Y-103889505D02*
X54969228Y-103925790D01*
X54969228Y-103925790D02*
X54751514Y-103925790D01*
X54751514Y-103925790D02*
X54678942Y-103889505D01*
X54678942Y-103889505D02*
X54642657Y-103853219D01*
X49758600Y-116270190D02*
X49504600Y-115907333D01*
X49323171Y-116270190D02*
X49323171Y-115508190D01*
X49323171Y-115508190D02*
X49613457Y-115508190D01*
X49613457Y-115508190D02*
X49686028Y-115544476D01*
X49686028Y-115544476D02*
X49722314Y-115580762D01*
X49722314Y-115580762D02*
X49758600Y-115653333D01*
X49758600Y-115653333D02*
X49758600Y-115762190D01*
X49758600Y-115762190D02*
X49722314Y-115834762D01*
X49722314Y-115834762D02*
X49686028Y-115871047D01*
X49686028Y-115871047D02*
X49613457Y-115907333D01*
X49613457Y-115907333D02*
X49323171Y-115907333D01*
X50012600Y-115508190D02*
X50484314Y-115508190D01*
X50484314Y-115508190D02*
X50230314Y-115798476D01*
X50230314Y-115798476D02*
X50339171Y-115798476D01*
X50339171Y-115798476D02*
X50411743Y-115834762D01*
X50411743Y-115834762D02*
X50448028Y-115871047D01*
X50448028Y-115871047D02*
X50484314Y-115943619D01*
X50484314Y-115943619D02*
X50484314Y-116125047D01*
X50484314Y-116125047D02*
X50448028Y-116197619D01*
X50448028Y-116197619D02*
X50411743Y-116233905D01*
X50411743Y-116233905D02*
X50339171Y-116270190D01*
X50339171Y-116270190D02*
X50121457Y-116270190D01*
X50121457Y-116270190D02*
X50048885Y-116233905D01*
X50048885Y-116233905D02*
X50012600Y-116197619D01*
X55694943Y-76544590D02*
X55440943Y-76181733D01*
X55259514Y-76544590D02*
X55259514Y-75782590D01*
X55259514Y-75782590D02*
X55549800Y-75782590D01*
X55549800Y-75782590D02*
X55622371Y-75818876D01*
X55622371Y-75818876D02*
X55658657Y-75855162D01*
X55658657Y-75855162D02*
X55694943Y-75927733D01*
X55694943Y-75927733D02*
X55694943Y-76036590D01*
X55694943Y-76036590D02*
X55658657Y-76109162D01*
X55658657Y-76109162D02*
X55622371Y-76145447D01*
X55622371Y-76145447D02*
X55549800Y-76181733D01*
X55549800Y-76181733D02*
X55259514Y-76181733D01*
X56420657Y-76544590D02*
X55985228Y-76544590D01*
X56202943Y-76544590D02*
X56202943Y-75782590D01*
X56202943Y-75782590D02*
X56130371Y-75891447D01*
X56130371Y-75891447D02*
X56057800Y-75964019D01*
X56057800Y-75964019D02*
X55985228Y-76000305D01*
X56674657Y-75782590D02*
X57146371Y-75782590D01*
X57146371Y-75782590D02*
X56892371Y-76072876D01*
X56892371Y-76072876D02*
X57001228Y-76072876D01*
X57001228Y-76072876D02*
X57073800Y-76109162D01*
X57073800Y-76109162D02*
X57110085Y-76145447D01*
X57110085Y-76145447D02*
X57146371Y-76218019D01*
X57146371Y-76218019D02*
X57146371Y-76399447D01*
X57146371Y-76399447D02*
X57110085Y-76472019D01*
X57110085Y-76472019D02*
X57073800Y-76508305D01*
X57073800Y-76508305D02*
X57001228Y-76544590D01*
X57001228Y-76544590D02*
X56783514Y-76544590D01*
X56783514Y-76544590D02*
X56710942Y-76508305D01*
X56710942Y-76508305D02*
X56674657Y-76472019D01*
X43865800Y-88330190D02*
X43611800Y-87967333D01*
X43430371Y-88330190D02*
X43430371Y-87568190D01*
X43430371Y-87568190D02*
X43720657Y-87568190D01*
X43720657Y-87568190D02*
X43793228Y-87604476D01*
X43793228Y-87604476D02*
X43829514Y-87640762D01*
X43829514Y-87640762D02*
X43865800Y-87713333D01*
X43865800Y-87713333D02*
X43865800Y-87822190D01*
X43865800Y-87822190D02*
X43829514Y-87894762D01*
X43829514Y-87894762D02*
X43793228Y-87931047D01*
X43793228Y-87931047D02*
X43720657Y-87967333D01*
X43720657Y-87967333D02*
X43430371Y-87967333D01*
X44228657Y-88330190D02*
X44373800Y-88330190D01*
X44373800Y-88330190D02*
X44446371Y-88293905D01*
X44446371Y-88293905D02*
X44482657Y-88257619D01*
X44482657Y-88257619D02*
X44555228Y-88148762D01*
X44555228Y-88148762D02*
X44591514Y-88003619D01*
X44591514Y-88003619D02*
X44591514Y-87713333D01*
X44591514Y-87713333D02*
X44555228Y-87640762D01*
X44555228Y-87640762D02*
X44518943Y-87604476D01*
X44518943Y-87604476D02*
X44446371Y-87568190D01*
X44446371Y-87568190D02*
X44301228Y-87568190D01*
X44301228Y-87568190D02*
X44228657Y-87604476D01*
X44228657Y-87604476D02*
X44192371Y-87640762D01*
X44192371Y-87640762D02*
X44156085Y-87713333D01*
X44156085Y-87713333D02*
X44156085Y-87894762D01*
X44156085Y-87894762D02*
X44192371Y-87967333D01*
X44192371Y-87967333D02*
X44228657Y-88003619D01*
X44228657Y-88003619D02*
X44301228Y-88039905D01*
X44301228Y-88039905D02*
X44446371Y-88039905D01*
X44446371Y-88039905D02*
X44518943Y-88003619D01*
X44518943Y-88003619D02*
X44555228Y-87967333D01*
X44555228Y-87967333D02*
X44591514Y-87894762D01*
X42599428Y-93308590D02*
X42599428Y-93925447D01*
X42599428Y-93925447D02*
X42635714Y-93998019D01*
X42635714Y-93998019D02*
X42672000Y-94034305D01*
X42672000Y-94034305D02*
X42744571Y-94070590D01*
X42744571Y-94070590D02*
X42889714Y-94070590D01*
X42889714Y-94070590D02*
X42962285Y-94034305D01*
X42962285Y-94034305D02*
X42998571Y-93998019D01*
X42998571Y-93998019D02*
X43034857Y-93925447D01*
X43034857Y-93925447D02*
X43034857Y-93308590D01*
X43361428Y-93381162D02*
X43397714Y-93344876D01*
X43397714Y-93344876D02*
X43470286Y-93308590D01*
X43470286Y-93308590D02*
X43651714Y-93308590D01*
X43651714Y-93308590D02*
X43724286Y-93344876D01*
X43724286Y-93344876D02*
X43760571Y-93381162D01*
X43760571Y-93381162D02*
X43796857Y-93453733D01*
X43796857Y-93453733D02*
X43796857Y-93526305D01*
X43796857Y-93526305D02*
X43760571Y-93635162D01*
X43760571Y-93635162D02*
X43325143Y-94070590D01*
X43325143Y-94070590D02*
X43796857Y-94070590D01*
X48481219Y-92227399D02*
X48517505Y-92263685D01*
X48517505Y-92263685D02*
X48553790Y-92372542D01*
X48553790Y-92372542D02*
X48553790Y-92445114D01*
X48553790Y-92445114D02*
X48517505Y-92553971D01*
X48517505Y-92553971D02*
X48444933Y-92626542D01*
X48444933Y-92626542D02*
X48372362Y-92662828D01*
X48372362Y-92662828D02*
X48227219Y-92699114D01*
X48227219Y-92699114D02*
X48118362Y-92699114D01*
X48118362Y-92699114D02*
X47973219Y-92662828D01*
X47973219Y-92662828D02*
X47900647Y-92626542D01*
X47900647Y-92626542D02*
X47828076Y-92553971D01*
X47828076Y-92553971D02*
X47791790Y-92445114D01*
X47791790Y-92445114D02*
X47791790Y-92372542D01*
X47791790Y-92372542D02*
X47828076Y-92263685D01*
X47828076Y-92263685D02*
X47864362Y-92227399D01*
X48118362Y-91791971D02*
X48082076Y-91864542D01*
X48082076Y-91864542D02*
X48045790Y-91900828D01*
X48045790Y-91900828D02*
X47973219Y-91937114D01*
X47973219Y-91937114D02*
X47936933Y-91937114D01*
X47936933Y-91937114D02*
X47864362Y-91900828D01*
X47864362Y-91900828D02*
X47828076Y-91864542D01*
X47828076Y-91864542D02*
X47791790Y-91791971D01*
X47791790Y-91791971D02*
X47791790Y-91646828D01*
X47791790Y-91646828D02*
X47828076Y-91574257D01*
X47828076Y-91574257D02*
X47864362Y-91537971D01*
X47864362Y-91537971D02*
X47936933Y-91501685D01*
X47936933Y-91501685D02*
X47973219Y-91501685D01*
X47973219Y-91501685D02*
X48045790Y-91537971D01*
X48045790Y-91537971D02*
X48082076Y-91574257D01*
X48082076Y-91574257D02*
X48118362Y-91646828D01*
X48118362Y-91646828D02*
X48118362Y-91791971D01*
X48118362Y-91791971D02*
X48154647Y-91864542D01*
X48154647Y-91864542D02*
X48190933Y-91900828D01*
X48190933Y-91900828D02*
X48263505Y-91937114D01*
X48263505Y-91937114D02*
X48408647Y-91937114D01*
X48408647Y-91937114D02*
X48481219Y-91900828D01*
X48481219Y-91900828D02*
X48517505Y-91864542D01*
X48517505Y-91864542D02*
X48553790Y-91791971D01*
X48553790Y-91791971D02*
X48553790Y-91646828D01*
X48553790Y-91646828D02*
X48517505Y-91574257D01*
X48517505Y-91574257D02*
X48481219Y-91537971D01*
X48481219Y-91537971D02*
X48408647Y-91501685D01*
X48408647Y-91501685D02*
X48263505Y-91501685D01*
X48263505Y-91501685D02*
X48190933Y-91537971D01*
X48190933Y-91537971D02*
X48154647Y-91574257D01*
X48154647Y-91574257D02*
X48118362Y-91646828D01*
X38444590Y-137091056D02*
X38081733Y-137345056D01*
X38444590Y-137526485D02*
X37682590Y-137526485D01*
X37682590Y-137526485D02*
X37682590Y-137236199D01*
X37682590Y-137236199D02*
X37718876Y-137163628D01*
X37718876Y-137163628D02*
X37755162Y-137127342D01*
X37755162Y-137127342D02*
X37827733Y-137091056D01*
X37827733Y-137091056D02*
X37936590Y-137091056D01*
X37936590Y-137091056D02*
X38009162Y-137127342D01*
X38009162Y-137127342D02*
X38045447Y-137163628D01*
X38045447Y-137163628D02*
X38081733Y-137236199D01*
X38081733Y-137236199D02*
X38081733Y-137526485D01*
X37936590Y-136437914D02*
X38444590Y-136437914D01*
X37646305Y-136619342D02*
X38190590Y-136800771D01*
X38190590Y-136800771D02*
X38190590Y-136329056D01*
X37682590Y-135893628D02*
X37682590Y-135821057D01*
X37682590Y-135821057D02*
X37718876Y-135748485D01*
X37718876Y-135748485D02*
X37755162Y-135712200D01*
X37755162Y-135712200D02*
X37827733Y-135675914D01*
X37827733Y-135675914D02*
X37972876Y-135639628D01*
X37972876Y-135639628D02*
X38154305Y-135639628D01*
X38154305Y-135639628D02*
X38299447Y-135675914D01*
X38299447Y-135675914D02*
X38372019Y-135712200D01*
X38372019Y-135712200D02*
X38408305Y-135748485D01*
X38408305Y-135748485D02*
X38444590Y-135821057D01*
X38444590Y-135821057D02*
X38444590Y-135893628D01*
X38444590Y-135893628D02*
X38408305Y-135966200D01*
X38408305Y-135966200D02*
X38372019Y-136002485D01*
X38372019Y-136002485D02*
X38299447Y-136038771D01*
X38299447Y-136038771D02*
X38154305Y-136075057D01*
X38154305Y-136075057D02*
X37972876Y-136075057D01*
X37972876Y-136075057D02*
X37827733Y-136038771D01*
X37827733Y-136038771D02*
X37755162Y-136002485D01*
X37755162Y-136002485D02*
X37718876Y-135966200D01*
X37718876Y-135966200D02*
X37682590Y-135893628D01*
X52247800Y-89854190D02*
X51993800Y-89491333D01*
X51812371Y-89854190D02*
X51812371Y-89092190D01*
X51812371Y-89092190D02*
X52102657Y-89092190D01*
X52102657Y-89092190D02*
X52175228Y-89128476D01*
X52175228Y-89128476D02*
X52211514Y-89164762D01*
X52211514Y-89164762D02*
X52247800Y-89237333D01*
X52247800Y-89237333D02*
X52247800Y-89346190D01*
X52247800Y-89346190D02*
X52211514Y-89418762D01*
X52211514Y-89418762D02*
X52175228Y-89455047D01*
X52175228Y-89455047D02*
X52102657Y-89491333D01*
X52102657Y-89491333D02*
X51812371Y-89491333D01*
X52900943Y-89092190D02*
X52755800Y-89092190D01*
X52755800Y-89092190D02*
X52683228Y-89128476D01*
X52683228Y-89128476D02*
X52646943Y-89164762D01*
X52646943Y-89164762D02*
X52574371Y-89273619D01*
X52574371Y-89273619D02*
X52538085Y-89418762D01*
X52538085Y-89418762D02*
X52538085Y-89709047D01*
X52538085Y-89709047D02*
X52574371Y-89781619D01*
X52574371Y-89781619D02*
X52610657Y-89817905D01*
X52610657Y-89817905D02*
X52683228Y-89854190D01*
X52683228Y-89854190D02*
X52828371Y-89854190D01*
X52828371Y-89854190D02*
X52900943Y-89817905D01*
X52900943Y-89817905D02*
X52937228Y-89781619D01*
X52937228Y-89781619D02*
X52973514Y-89709047D01*
X52973514Y-89709047D02*
X52973514Y-89527619D01*
X52973514Y-89527619D02*
X52937228Y-89455047D01*
X52937228Y-89455047D02*
X52900943Y-89418762D01*
X52900943Y-89418762D02*
X52828371Y-89382476D01*
X52828371Y-89382476D02*
X52683228Y-89382476D01*
X52683228Y-89382476D02*
X52610657Y-89418762D01*
X52610657Y-89418762D02*
X52574371Y-89455047D01*
X52574371Y-89455047D02*
X52538085Y-89527619D01*
X54468019Y-63786656D02*
X54504305Y-63822942D01*
X54504305Y-63822942D02*
X54540590Y-63931799D01*
X54540590Y-63931799D02*
X54540590Y-64004371D01*
X54540590Y-64004371D02*
X54504305Y-64113228D01*
X54504305Y-64113228D02*
X54431733Y-64185799D01*
X54431733Y-64185799D02*
X54359162Y-64222085D01*
X54359162Y-64222085D02*
X54214019Y-64258371D01*
X54214019Y-64258371D02*
X54105162Y-64258371D01*
X54105162Y-64258371D02*
X53960019Y-64222085D01*
X53960019Y-64222085D02*
X53887447Y-64185799D01*
X53887447Y-64185799D02*
X53814876Y-64113228D01*
X53814876Y-64113228D02*
X53778590Y-64004371D01*
X53778590Y-64004371D02*
X53778590Y-63931799D01*
X53778590Y-63931799D02*
X53814876Y-63822942D01*
X53814876Y-63822942D02*
X53851162Y-63786656D01*
X54540590Y-63060942D02*
X54540590Y-63496371D01*
X54540590Y-63278656D02*
X53778590Y-63278656D01*
X53778590Y-63278656D02*
X53887447Y-63351228D01*
X53887447Y-63351228D02*
X53960019Y-63423799D01*
X53960019Y-63423799D02*
X53996305Y-63496371D01*
X53778590Y-62371514D02*
X53778590Y-62734371D01*
X53778590Y-62734371D02*
X54141447Y-62770657D01*
X54141447Y-62770657D02*
X54105162Y-62734371D01*
X54105162Y-62734371D02*
X54068876Y-62661800D01*
X54068876Y-62661800D02*
X54068876Y-62480371D01*
X54068876Y-62480371D02*
X54105162Y-62407800D01*
X54105162Y-62407800D02*
X54141447Y-62371514D01*
X54141447Y-62371514D02*
X54214019Y-62335228D01*
X54214019Y-62335228D02*
X54395447Y-62335228D01*
X54395447Y-62335228D02*
X54468019Y-62371514D01*
X54468019Y-62371514D02*
X54504305Y-62407800D01*
X54504305Y-62407800D02*
X54540590Y-62480371D01*
X54540590Y-62480371D02*
X54540590Y-62661800D01*
X54540590Y-62661800D02*
X54504305Y-62734371D01*
X54504305Y-62734371D02*
X54468019Y-62770657D01*
X50625828Y-71232362D02*
X50553257Y-71196076D01*
X50553257Y-71196076D02*
X50480685Y-71123505D01*
X50480685Y-71123505D02*
X50371828Y-71014647D01*
X50371828Y-71014647D02*
X50299257Y-70978362D01*
X50299257Y-70978362D02*
X50226685Y-70978362D01*
X50262971Y-71159790D02*
X50190400Y-71123505D01*
X50190400Y-71123505D02*
X50117828Y-71050933D01*
X50117828Y-71050933D02*
X50081542Y-70905790D01*
X50081542Y-70905790D02*
X50081542Y-70651790D01*
X50081542Y-70651790D02*
X50117828Y-70506647D01*
X50117828Y-70506647D02*
X50190400Y-70434076D01*
X50190400Y-70434076D02*
X50262971Y-70397790D01*
X50262971Y-70397790D02*
X50408114Y-70397790D01*
X50408114Y-70397790D02*
X50480685Y-70434076D01*
X50480685Y-70434076D02*
X50553257Y-70506647D01*
X50553257Y-70506647D02*
X50589542Y-70651790D01*
X50589542Y-70651790D02*
X50589542Y-70905790D01*
X50589542Y-70905790D02*
X50553257Y-71050933D01*
X50553257Y-71050933D02*
X50480685Y-71123505D01*
X50480685Y-71123505D02*
X50408114Y-71159790D01*
X50408114Y-71159790D02*
X50262971Y-71159790D01*
X51242686Y-70397790D02*
X51097543Y-70397790D01*
X51097543Y-70397790D02*
X51024971Y-70434076D01*
X51024971Y-70434076D02*
X50988686Y-70470362D01*
X50988686Y-70470362D02*
X50916114Y-70579219D01*
X50916114Y-70579219D02*
X50879828Y-70724362D01*
X50879828Y-70724362D02*
X50879828Y-71014647D01*
X50879828Y-71014647D02*
X50916114Y-71087219D01*
X50916114Y-71087219D02*
X50952400Y-71123505D01*
X50952400Y-71123505D02*
X51024971Y-71159790D01*
X51024971Y-71159790D02*
X51170114Y-71159790D01*
X51170114Y-71159790D02*
X51242686Y-71123505D01*
X51242686Y-71123505D02*
X51278971Y-71087219D01*
X51278971Y-71087219D02*
X51315257Y-71014647D01*
X51315257Y-71014647D02*
X51315257Y-70833219D01*
X51315257Y-70833219D02*
X51278971Y-70760647D01*
X51278971Y-70760647D02*
X51242686Y-70724362D01*
X51242686Y-70724362D02*
X51170114Y-70688076D01*
X51170114Y-70688076D02*
X51024971Y-70688076D01*
X51024971Y-70688076D02*
X50952400Y-70724362D01*
X50952400Y-70724362D02*
X50916114Y-70760647D01*
X50916114Y-70760647D02*
X50879828Y-70833219D01*
X60753171Y-80405390D02*
X60753171Y-79643390D01*
X60753171Y-79643390D02*
X60934600Y-79643390D01*
X60934600Y-79643390D02*
X61043457Y-79679676D01*
X61043457Y-79679676D02*
X61116028Y-79752247D01*
X61116028Y-79752247D02*
X61152314Y-79824819D01*
X61152314Y-79824819D02*
X61188600Y-79969962D01*
X61188600Y-79969962D02*
X61188600Y-80078819D01*
X61188600Y-80078819D02*
X61152314Y-80223962D01*
X61152314Y-80223962D02*
X61116028Y-80296533D01*
X61116028Y-80296533D02*
X61043457Y-80369105D01*
X61043457Y-80369105D02*
X60934600Y-80405390D01*
X60934600Y-80405390D02*
X60753171Y-80405390D01*
X61841743Y-79643390D02*
X61696600Y-79643390D01*
X61696600Y-79643390D02*
X61624028Y-79679676D01*
X61624028Y-79679676D02*
X61587743Y-79715962D01*
X61587743Y-79715962D02*
X61515171Y-79824819D01*
X61515171Y-79824819D02*
X61478885Y-79969962D01*
X61478885Y-79969962D02*
X61478885Y-80260247D01*
X61478885Y-80260247D02*
X61515171Y-80332819D01*
X61515171Y-80332819D02*
X61551457Y-80369105D01*
X61551457Y-80369105D02*
X61624028Y-80405390D01*
X61624028Y-80405390D02*
X61769171Y-80405390D01*
X61769171Y-80405390D02*
X61841743Y-80369105D01*
X61841743Y-80369105D02*
X61878028Y-80332819D01*
X61878028Y-80332819D02*
X61914314Y-80260247D01*
X61914314Y-80260247D02*
X61914314Y-80078819D01*
X61914314Y-80078819D02*
X61878028Y-80006247D01*
X61878028Y-80006247D02*
X61841743Y-79969962D01*
X61841743Y-79969962D02*
X61769171Y-79933676D01*
X61769171Y-79933676D02*
X61624028Y-79933676D01*
X61624028Y-79933676D02*
X61551457Y-79969962D01*
X61551457Y-79969962D02*
X61515171Y-80006247D01*
X61515171Y-80006247D02*
X61478885Y-80078819D01*
X37781140Y-93707856D02*
X37418283Y-93961856D01*
X37781140Y-94143285D02*
X37019140Y-94143285D01*
X37019140Y-94143285D02*
X37019140Y-93852999D01*
X37019140Y-93852999D02*
X37055426Y-93780428D01*
X37055426Y-93780428D02*
X37091712Y-93744142D01*
X37091712Y-93744142D02*
X37164283Y-93707856D01*
X37164283Y-93707856D02*
X37273140Y-93707856D01*
X37273140Y-93707856D02*
X37345712Y-93744142D01*
X37345712Y-93744142D02*
X37381997Y-93780428D01*
X37381997Y-93780428D02*
X37418283Y-93852999D01*
X37418283Y-93852999D02*
X37418283Y-94143285D01*
X37781140Y-92982142D02*
X37781140Y-93417571D01*
X37781140Y-93199856D02*
X37019140Y-93199856D01*
X37019140Y-93199856D02*
X37127997Y-93272428D01*
X37127997Y-93272428D02*
X37200569Y-93344999D01*
X37200569Y-93344999D02*
X37236855Y-93417571D01*
X37345712Y-92546714D02*
X37309426Y-92619285D01*
X37309426Y-92619285D02*
X37273140Y-92655571D01*
X37273140Y-92655571D02*
X37200569Y-92691857D01*
X37200569Y-92691857D02*
X37164283Y-92691857D01*
X37164283Y-92691857D02*
X37091712Y-92655571D01*
X37091712Y-92655571D02*
X37055426Y-92619285D01*
X37055426Y-92619285D02*
X37019140Y-92546714D01*
X37019140Y-92546714D02*
X37019140Y-92401571D01*
X37019140Y-92401571D02*
X37055426Y-92329000D01*
X37055426Y-92329000D02*
X37091712Y-92292714D01*
X37091712Y-92292714D02*
X37164283Y-92256428D01*
X37164283Y-92256428D02*
X37200569Y-92256428D01*
X37200569Y-92256428D02*
X37273140Y-92292714D01*
X37273140Y-92292714D02*
X37309426Y-92329000D01*
X37309426Y-92329000D02*
X37345712Y-92401571D01*
X37345712Y-92401571D02*
X37345712Y-92546714D01*
X37345712Y-92546714D02*
X37381997Y-92619285D01*
X37381997Y-92619285D02*
X37418283Y-92655571D01*
X37418283Y-92655571D02*
X37490855Y-92691857D01*
X37490855Y-92691857D02*
X37635997Y-92691857D01*
X37635997Y-92691857D02*
X37708569Y-92655571D01*
X37708569Y-92655571D02*
X37744855Y-92619285D01*
X37744855Y-92619285D02*
X37781140Y-92546714D01*
X37781140Y-92546714D02*
X37781140Y-92401571D01*
X37781140Y-92401571D02*
X37744855Y-92329000D01*
X37744855Y-92329000D02*
X37708569Y-92292714D01*
X37708569Y-92292714D02*
X37635997Y-92256428D01*
X37635997Y-92256428D02*
X37490855Y-92256428D01*
X37490855Y-92256428D02*
X37418283Y-92292714D01*
X37418283Y-92292714D02*
X37381997Y-92329000D01*
X37381997Y-92329000D02*
X37345712Y-92401571D01*
X60912828Y-104938162D02*
X60840257Y-104901876D01*
X60840257Y-104901876D02*
X60767685Y-104829305D01*
X60767685Y-104829305D02*
X60658828Y-104720447D01*
X60658828Y-104720447D02*
X60586257Y-104684162D01*
X60586257Y-104684162D02*
X60513685Y-104684162D01*
X60549971Y-104865590D02*
X60477400Y-104829305D01*
X60477400Y-104829305D02*
X60404828Y-104756733D01*
X60404828Y-104756733D02*
X60368542Y-104611590D01*
X60368542Y-104611590D02*
X60368542Y-104357590D01*
X60368542Y-104357590D02*
X60404828Y-104212447D01*
X60404828Y-104212447D02*
X60477400Y-104139876D01*
X60477400Y-104139876D02*
X60549971Y-104103590D01*
X60549971Y-104103590D02*
X60695114Y-104103590D01*
X60695114Y-104103590D02*
X60767685Y-104139876D01*
X60767685Y-104139876D02*
X60840257Y-104212447D01*
X60840257Y-104212447D02*
X60876542Y-104357590D01*
X60876542Y-104357590D02*
X60876542Y-104611590D01*
X60876542Y-104611590D02*
X60840257Y-104756733D01*
X60840257Y-104756733D02*
X60767685Y-104829305D01*
X60767685Y-104829305D02*
X60695114Y-104865590D01*
X60695114Y-104865590D02*
X60549971Y-104865590D01*
X61565971Y-104103590D02*
X61203114Y-104103590D01*
X61203114Y-104103590D02*
X61166828Y-104466447D01*
X61166828Y-104466447D02*
X61203114Y-104430162D01*
X61203114Y-104430162D02*
X61275686Y-104393876D01*
X61275686Y-104393876D02*
X61457114Y-104393876D01*
X61457114Y-104393876D02*
X61529686Y-104430162D01*
X61529686Y-104430162D02*
X61565971Y-104466447D01*
X61565971Y-104466447D02*
X61602257Y-104539019D01*
X61602257Y-104539019D02*
X61602257Y-104720447D01*
X61602257Y-104720447D02*
X61565971Y-104793019D01*
X61565971Y-104793019D02*
X61529686Y-104829305D01*
X61529686Y-104829305D02*
X61457114Y-104865590D01*
X61457114Y-104865590D02*
X61275686Y-104865590D01*
X61275686Y-104865590D02*
X61203114Y-104829305D01*
X61203114Y-104829305D02*
X61166828Y-104793019D01*
X53358143Y-112082819D02*
X53321857Y-112119105D01*
X53321857Y-112119105D02*
X53213000Y-112155390D01*
X53213000Y-112155390D02*
X53140428Y-112155390D01*
X53140428Y-112155390D02*
X53031571Y-112119105D01*
X53031571Y-112119105D02*
X52959000Y-112046533D01*
X52959000Y-112046533D02*
X52922714Y-111973962D01*
X52922714Y-111973962D02*
X52886428Y-111828819D01*
X52886428Y-111828819D02*
X52886428Y-111719962D01*
X52886428Y-111719962D02*
X52922714Y-111574819D01*
X52922714Y-111574819D02*
X52959000Y-111502247D01*
X52959000Y-111502247D02*
X53031571Y-111429676D01*
X53031571Y-111429676D02*
X53140428Y-111393390D01*
X53140428Y-111393390D02*
X53213000Y-111393390D01*
X53213000Y-111393390D02*
X53321857Y-111429676D01*
X53321857Y-111429676D02*
X53358143Y-111465962D01*
X54083857Y-112155390D02*
X53648428Y-112155390D01*
X53866143Y-112155390D02*
X53866143Y-111393390D01*
X53866143Y-111393390D02*
X53793571Y-111502247D01*
X53793571Y-111502247D02*
X53721000Y-111574819D01*
X53721000Y-111574819D02*
X53648428Y-111611105D01*
X54519285Y-111719962D02*
X54446714Y-111683676D01*
X54446714Y-111683676D02*
X54410428Y-111647390D01*
X54410428Y-111647390D02*
X54374142Y-111574819D01*
X54374142Y-111574819D02*
X54374142Y-111538533D01*
X54374142Y-111538533D02*
X54410428Y-111465962D01*
X54410428Y-111465962D02*
X54446714Y-111429676D01*
X54446714Y-111429676D02*
X54519285Y-111393390D01*
X54519285Y-111393390D02*
X54664428Y-111393390D01*
X54664428Y-111393390D02*
X54737000Y-111429676D01*
X54737000Y-111429676D02*
X54773285Y-111465962D01*
X54773285Y-111465962D02*
X54809571Y-111538533D01*
X54809571Y-111538533D02*
X54809571Y-111574819D01*
X54809571Y-111574819D02*
X54773285Y-111647390D01*
X54773285Y-111647390D02*
X54737000Y-111683676D01*
X54737000Y-111683676D02*
X54664428Y-111719962D01*
X54664428Y-111719962D02*
X54519285Y-111719962D01*
X54519285Y-111719962D02*
X54446714Y-111756247D01*
X54446714Y-111756247D02*
X54410428Y-111792533D01*
X54410428Y-111792533D02*
X54374142Y-111865105D01*
X54374142Y-111865105D02*
X54374142Y-112010247D01*
X54374142Y-112010247D02*
X54410428Y-112082819D01*
X54410428Y-112082819D02*
X54446714Y-112119105D01*
X54446714Y-112119105D02*
X54519285Y-112155390D01*
X54519285Y-112155390D02*
X54664428Y-112155390D01*
X54664428Y-112155390D02*
X54737000Y-112119105D01*
X54737000Y-112119105D02*
X54773285Y-112082819D01*
X54773285Y-112082819D02*
X54809571Y-112010247D01*
X54809571Y-112010247D02*
X54809571Y-111865105D01*
X54809571Y-111865105D02*
X54773285Y-111792533D01*
X54773285Y-111792533D02*
X54737000Y-111756247D01*
X54737000Y-111756247D02*
X54664428Y-111719962D01*
X44123428Y-85557962D02*
X44050857Y-85521676D01*
X44050857Y-85521676D02*
X43978285Y-85449105D01*
X43978285Y-85449105D02*
X43869428Y-85340247D01*
X43869428Y-85340247D02*
X43796857Y-85303962D01*
X43796857Y-85303962D02*
X43724285Y-85303962D01*
X43760571Y-85485390D02*
X43688000Y-85449105D01*
X43688000Y-85449105D02*
X43615428Y-85376533D01*
X43615428Y-85376533D02*
X43579142Y-85231390D01*
X43579142Y-85231390D02*
X43579142Y-84977390D01*
X43579142Y-84977390D02*
X43615428Y-84832247D01*
X43615428Y-84832247D02*
X43688000Y-84759676D01*
X43688000Y-84759676D02*
X43760571Y-84723390D01*
X43760571Y-84723390D02*
X43905714Y-84723390D01*
X43905714Y-84723390D02*
X43978285Y-84759676D01*
X43978285Y-84759676D02*
X44050857Y-84832247D01*
X44050857Y-84832247D02*
X44087142Y-84977390D01*
X44087142Y-84977390D02*
X44087142Y-85231390D01*
X44087142Y-85231390D02*
X44050857Y-85376533D01*
X44050857Y-85376533D02*
X43978285Y-85449105D01*
X43978285Y-85449105D02*
X43905714Y-85485390D01*
X43905714Y-85485390D02*
X43760571Y-85485390D01*
X44341143Y-84723390D02*
X44812857Y-84723390D01*
X44812857Y-84723390D02*
X44558857Y-85013676D01*
X44558857Y-85013676D02*
X44667714Y-85013676D01*
X44667714Y-85013676D02*
X44740286Y-85049962D01*
X44740286Y-85049962D02*
X44776571Y-85086247D01*
X44776571Y-85086247D02*
X44812857Y-85158819D01*
X44812857Y-85158819D02*
X44812857Y-85340247D01*
X44812857Y-85340247D02*
X44776571Y-85412819D01*
X44776571Y-85412819D02*
X44740286Y-85449105D01*
X44740286Y-85449105D02*
X44667714Y-85485390D01*
X44667714Y-85485390D02*
X44450000Y-85485390D01*
X44450000Y-85485390D02*
X44377428Y-85449105D01*
X44377428Y-85449105D02*
X44341143Y-85412819D01*
X61362771Y-122747190D02*
X61362771Y-121985190D01*
X61362771Y-121985190D02*
X61544200Y-121985190D01*
X61544200Y-121985190D02*
X61653057Y-122021476D01*
X61653057Y-122021476D02*
X61725628Y-122094047D01*
X61725628Y-122094047D02*
X61761914Y-122166619D01*
X61761914Y-122166619D02*
X61798200Y-122311762D01*
X61798200Y-122311762D02*
X61798200Y-122420619D01*
X61798200Y-122420619D02*
X61761914Y-122565762D01*
X61761914Y-122565762D02*
X61725628Y-122638333D01*
X61725628Y-122638333D02*
X61653057Y-122710905D01*
X61653057Y-122710905D02*
X61544200Y-122747190D01*
X61544200Y-122747190D02*
X61362771Y-122747190D01*
X62088485Y-122057762D02*
X62124771Y-122021476D01*
X62124771Y-122021476D02*
X62197343Y-121985190D01*
X62197343Y-121985190D02*
X62378771Y-121985190D01*
X62378771Y-121985190D02*
X62451343Y-122021476D01*
X62451343Y-122021476D02*
X62487628Y-122057762D01*
X62487628Y-122057762D02*
X62523914Y-122130333D01*
X62523914Y-122130333D02*
X62523914Y-122202905D01*
X62523914Y-122202905D02*
X62487628Y-122311762D01*
X62487628Y-122311762D02*
X62052200Y-122747190D01*
X62052200Y-122747190D02*
X62523914Y-122747190D01*
X57581800Y-86632019D02*
X57545514Y-86668305D01*
X57545514Y-86668305D02*
X57436657Y-86704590D01*
X57436657Y-86704590D02*
X57364085Y-86704590D01*
X57364085Y-86704590D02*
X57255228Y-86668305D01*
X57255228Y-86668305D02*
X57182657Y-86595733D01*
X57182657Y-86595733D02*
X57146371Y-86523162D01*
X57146371Y-86523162D02*
X57110085Y-86378019D01*
X57110085Y-86378019D02*
X57110085Y-86269162D01*
X57110085Y-86269162D02*
X57146371Y-86124019D01*
X57146371Y-86124019D02*
X57182657Y-86051447D01*
X57182657Y-86051447D02*
X57255228Y-85978876D01*
X57255228Y-85978876D02*
X57364085Y-85942590D01*
X57364085Y-85942590D02*
X57436657Y-85942590D01*
X57436657Y-85942590D02*
X57545514Y-85978876D01*
X57545514Y-85978876D02*
X57581800Y-86015162D01*
X58234943Y-85942590D02*
X58089800Y-85942590D01*
X58089800Y-85942590D02*
X58017228Y-85978876D01*
X58017228Y-85978876D02*
X57980943Y-86015162D01*
X57980943Y-86015162D02*
X57908371Y-86124019D01*
X57908371Y-86124019D02*
X57872085Y-86269162D01*
X57872085Y-86269162D02*
X57872085Y-86559447D01*
X57872085Y-86559447D02*
X57908371Y-86632019D01*
X57908371Y-86632019D02*
X57944657Y-86668305D01*
X57944657Y-86668305D02*
X58017228Y-86704590D01*
X58017228Y-86704590D02*
X58162371Y-86704590D01*
X58162371Y-86704590D02*
X58234943Y-86668305D01*
X58234943Y-86668305D02*
X58271228Y-86632019D01*
X58271228Y-86632019D02*
X58307514Y-86559447D01*
X58307514Y-86559447D02*
X58307514Y-86378019D01*
X58307514Y-86378019D02*
X58271228Y-86305447D01*
X58271228Y-86305447D02*
X58234943Y-86269162D01*
X58234943Y-86269162D02*
X58162371Y-86232876D01*
X58162371Y-86232876D02*
X58017228Y-86232876D01*
X58017228Y-86232876D02*
X57944657Y-86269162D01*
X57944657Y-86269162D02*
X57908371Y-86305447D01*
X57908371Y-86305447D02*
X57872085Y-86378019D01*
X40454819Y-110771656D02*
X40491105Y-110807942D01*
X40491105Y-110807942D02*
X40527390Y-110916799D01*
X40527390Y-110916799D02*
X40527390Y-110989371D01*
X40527390Y-110989371D02*
X40491105Y-111098228D01*
X40491105Y-111098228D02*
X40418533Y-111170799D01*
X40418533Y-111170799D02*
X40345962Y-111207085D01*
X40345962Y-111207085D02*
X40200819Y-111243371D01*
X40200819Y-111243371D02*
X40091962Y-111243371D01*
X40091962Y-111243371D02*
X39946819Y-111207085D01*
X39946819Y-111207085D02*
X39874247Y-111170799D01*
X39874247Y-111170799D02*
X39801676Y-111098228D01*
X39801676Y-111098228D02*
X39765390Y-110989371D01*
X39765390Y-110989371D02*
X39765390Y-110916799D01*
X39765390Y-110916799D02*
X39801676Y-110807942D01*
X39801676Y-110807942D02*
X39837962Y-110771656D01*
X39837962Y-110481371D02*
X39801676Y-110445085D01*
X39801676Y-110445085D02*
X39765390Y-110372514D01*
X39765390Y-110372514D02*
X39765390Y-110191085D01*
X39765390Y-110191085D02*
X39801676Y-110118514D01*
X39801676Y-110118514D02*
X39837962Y-110082228D01*
X39837962Y-110082228D02*
X39910533Y-110045942D01*
X39910533Y-110045942D02*
X39983105Y-110045942D01*
X39983105Y-110045942D02*
X40091962Y-110082228D01*
X40091962Y-110082228D02*
X40527390Y-110517656D01*
X40527390Y-110517656D02*
X40527390Y-110045942D01*
X39765390Y-109392800D02*
X39765390Y-109537942D01*
X39765390Y-109537942D02*
X39801676Y-109610514D01*
X39801676Y-109610514D02*
X39837962Y-109646800D01*
X39837962Y-109646800D02*
X39946819Y-109719371D01*
X39946819Y-109719371D02*
X40091962Y-109755657D01*
X40091962Y-109755657D02*
X40382247Y-109755657D01*
X40382247Y-109755657D02*
X40454819Y-109719371D01*
X40454819Y-109719371D02*
X40491105Y-109683085D01*
X40491105Y-109683085D02*
X40527390Y-109610514D01*
X40527390Y-109610514D02*
X40527390Y-109465371D01*
X40527390Y-109465371D02*
X40491105Y-109392800D01*
X40491105Y-109392800D02*
X40454819Y-109356514D01*
X40454819Y-109356514D02*
X40382247Y-109320228D01*
X40382247Y-109320228D02*
X40200819Y-109320228D01*
X40200819Y-109320228D02*
X40128247Y-109356514D01*
X40128247Y-109356514D02*
X40091962Y-109392800D01*
X40091962Y-109392800D02*
X40055676Y-109465371D01*
X40055676Y-109465371D02*
X40055676Y-109610514D01*
X40055676Y-109610514D02*
X40091962Y-109683085D01*
X40091962Y-109683085D02*
X40128247Y-109719371D01*
X40128247Y-109719371D02*
X40200819Y-109755657D01*
X49649743Y-106596419D02*
X49613457Y-106632705D01*
X49613457Y-106632705D02*
X49504600Y-106668990D01*
X49504600Y-106668990D02*
X49432028Y-106668990D01*
X49432028Y-106668990D02*
X49323171Y-106632705D01*
X49323171Y-106632705D02*
X49250600Y-106560133D01*
X49250600Y-106560133D02*
X49214314Y-106487562D01*
X49214314Y-106487562D02*
X49178028Y-106342419D01*
X49178028Y-106342419D02*
X49178028Y-106233562D01*
X49178028Y-106233562D02*
X49214314Y-106088419D01*
X49214314Y-106088419D02*
X49250600Y-106015847D01*
X49250600Y-106015847D02*
X49323171Y-105943276D01*
X49323171Y-105943276D02*
X49432028Y-105906990D01*
X49432028Y-105906990D02*
X49504600Y-105906990D01*
X49504600Y-105906990D02*
X49613457Y-105943276D01*
X49613457Y-105943276D02*
X49649743Y-105979562D01*
X49940028Y-105979562D02*
X49976314Y-105943276D01*
X49976314Y-105943276D02*
X50048886Y-105906990D01*
X50048886Y-105906990D02*
X50230314Y-105906990D01*
X50230314Y-105906990D02*
X50302886Y-105943276D01*
X50302886Y-105943276D02*
X50339171Y-105979562D01*
X50339171Y-105979562D02*
X50375457Y-106052133D01*
X50375457Y-106052133D02*
X50375457Y-106124705D01*
X50375457Y-106124705D02*
X50339171Y-106233562D01*
X50339171Y-106233562D02*
X49903743Y-106668990D01*
X49903743Y-106668990D02*
X50375457Y-106668990D01*
X51028600Y-106160990D02*
X51028600Y-106668990D01*
X50847171Y-105870705D02*
X50665742Y-106414990D01*
X50665742Y-106414990D02*
X51137457Y-106414990D01*
X62806943Y-109564590D02*
X62552943Y-109201733D01*
X62371514Y-109564590D02*
X62371514Y-108802590D01*
X62371514Y-108802590D02*
X62661800Y-108802590D01*
X62661800Y-108802590D02*
X62734371Y-108838876D01*
X62734371Y-108838876D02*
X62770657Y-108875162D01*
X62770657Y-108875162D02*
X62806943Y-108947733D01*
X62806943Y-108947733D02*
X62806943Y-109056590D01*
X62806943Y-109056590D02*
X62770657Y-109129162D01*
X62770657Y-109129162D02*
X62734371Y-109165447D01*
X62734371Y-109165447D02*
X62661800Y-109201733D01*
X62661800Y-109201733D02*
X62371514Y-109201733D01*
X63060943Y-108802590D02*
X63532657Y-108802590D01*
X63532657Y-108802590D02*
X63278657Y-109092876D01*
X63278657Y-109092876D02*
X63387514Y-109092876D01*
X63387514Y-109092876D02*
X63460086Y-109129162D01*
X63460086Y-109129162D02*
X63496371Y-109165447D01*
X63496371Y-109165447D02*
X63532657Y-109238019D01*
X63532657Y-109238019D02*
X63532657Y-109419447D01*
X63532657Y-109419447D02*
X63496371Y-109492019D01*
X63496371Y-109492019D02*
X63460086Y-109528305D01*
X63460086Y-109528305D02*
X63387514Y-109564590D01*
X63387514Y-109564590D02*
X63169800Y-109564590D01*
X63169800Y-109564590D02*
X63097228Y-109528305D01*
X63097228Y-109528305D02*
X63060943Y-109492019D01*
X63968085Y-109129162D02*
X63895514Y-109092876D01*
X63895514Y-109092876D02*
X63859228Y-109056590D01*
X63859228Y-109056590D02*
X63822942Y-108984019D01*
X63822942Y-108984019D02*
X63822942Y-108947733D01*
X63822942Y-108947733D02*
X63859228Y-108875162D01*
X63859228Y-108875162D02*
X63895514Y-108838876D01*
X63895514Y-108838876D02*
X63968085Y-108802590D01*
X63968085Y-108802590D02*
X64113228Y-108802590D01*
X64113228Y-108802590D02*
X64185800Y-108838876D01*
X64185800Y-108838876D02*
X64222085Y-108875162D01*
X64222085Y-108875162D02*
X64258371Y-108947733D01*
X64258371Y-108947733D02*
X64258371Y-108984019D01*
X64258371Y-108984019D02*
X64222085Y-109056590D01*
X64222085Y-109056590D02*
X64185800Y-109092876D01*
X64185800Y-109092876D02*
X64113228Y-109129162D01*
X64113228Y-109129162D02*
X63968085Y-109129162D01*
X63968085Y-109129162D02*
X63895514Y-109165447D01*
X63895514Y-109165447D02*
X63859228Y-109201733D01*
X63859228Y-109201733D02*
X63822942Y-109274305D01*
X63822942Y-109274305D02*
X63822942Y-109419447D01*
X63822942Y-109419447D02*
X63859228Y-109492019D01*
X63859228Y-109492019D02*
X63895514Y-109528305D01*
X63895514Y-109528305D02*
X63968085Y-109564590D01*
X63968085Y-109564590D02*
X64113228Y-109564590D01*
X64113228Y-109564590D02*
X64185800Y-109528305D01*
X64185800Y-109528305D02*
X64222085Y-109492019D01*
X64222085Y-109492019D02*
X64258371Y-109419447D01*
X64258371Y-109419447D02*
X64258371Y-109274305D01*
X64258371Y-109274305D02*
X64222085Y-109201733D01*
X64222085Y-109201733D02*
X64185800Y-109165447D01*
X64185800Y-109165447D02*
X64113228Y-109129162D01*
X48695428Y-113171390D02*
X48695428Y-113788247D01*
X48695428Y-113788247D02*
X48731714Y-113860819D01*
X48731714Y-113860819D02*
X48768000Y-113897105D01*
X48768000Y-113897105D02*
X48840571Y-113933390D01*
X48840571Y-113933390D02*
X48985714Y-113933390D01*
X48985714Y-113933390D02*
X49058285Y-113897105D01*
X49058285Y-113897105D02*
X49094571Y-113860819D01*
X49094571Y-113860819D02*
X49130857Y-113788247D01*
X49130857Y-113788247D02*
X49130857Y-113171390D01*
X49856571Y-113171390D02*
X49493714Y-113171390D01*
X49493714Y-113171390D02*
X49457428Y-113534247D01*
X49457428Y-113534247D02*
X49493714Y-113497962D01*
X49493714Y-113497962D02*
X49566286Y-113461676D01*
X49566286Y-113461676D02*
X49747714Y-113461676D01*
X49747714Y-113461676D02*
X49820286Y-113497962D01*
X49820286Y-113497962D02*
X49856571Y-113534247D01*
X49856571Y-113534247D02*
X49892857Y-113606819D01*
X49892857Y-113606819D02*
X49892857Y-113788247D01*
X49892857Y-113788247D02*
X49856571Y-113860819D01*
X49856571Y-113860819D02*
X49820286Y-113897105D01*
X49820286Y-113897105D02*
X49747714Y-113933390D01*
X49747714Y-113933390D02*
X49566286Y-113933390D01*
X49566286Y-113933390D02*
X49493714Y-113897105D01*
X49493714Y-113897105D02*
X49457428Y-113860819D01*
X61972371Y-112815790D02*
X61972371Y-112053790D01*
X61972371Y-112053790D02*
X62153800Y-112053790D01*
X62153800Y-112053790D02*
X62262657Y-112090076D01*
X62262657Y-112090076D02*
X62335228Y-112162647D01*
X62335228Y-112162647D02*
X62371514Y-112235219D01*
X62371514Y-112235219D02*
X62407800Y-112380362D01*
X62407800Y-112380362D02*
X62407800Y-112489219D01*
X62407800Y-112489219D02*
X62371514Y-112634362D01*
X62371514Y-112634362D02*
X62335228Y-112706933D01*
X62335228Y-112706933D02*
X62262657Y-112779505D01*
X62262657Y-112779505D02*
X62153800Y-112815790D01*
X62153800Y-112815790D02*
X61972371Y-112815790D01*
X63133514Y-112815790D02*
X62698085Y-112815790D01*
X62915800Y-112815790D02*
X62915800Y-112053790D01*
X62915800Y-112053790D02*
X62843228Y-112162647D01*
X62843228Y-112162647D02*
X62770657Y-112235219D01*
X62770657Y-112235219D02*
X62698085Y-112271505D01*
X50829028Y-100928590D02*
X50829028Y-101545447D01*
X50829028Y-101545447D02*
X50865314Y-101618019D01*
X50865314Y-101618019D02*
X50901600Y-101654305D01*
X50901600Y-101654305D02*
X50974171Y-101690590D01*
X50974171Y-101690590D02*
X51119314Y-101690590D01*
X51119314Y-101690590D02*
X51191885Y-101654305D01*
X51191885Y-101654305D02*
X51228171Y-101618019D01*
X51228171Y-101618019D02*
X51264457Y-101545447D01*
X51264457Y-101545447D02*
X51264457Y-100928590D01*
X51554743Y-100928590D02*
X52026457Y-100928590D01*
X52026457Y-100928590D02*
X51772457Y-101218876D01*
X51772457Y-101218876D02*
X51881314Y-101218876D01*
X51881314Y-101218876D02*
X51953886Y-101255162D01*
X51953886Y-101255162D02*
X51990171Y-101291447D01*
X51990171Y-101291447D02*
X52026457Y-101364019D01*
X52026457Y-101364019D02*
X52026457Y-101545447D01*
X52026457Y-101545447D02*
X51990171Y-101618019D01*
X51990171Y-101618019D02*
X51953886Y-101654305D01*
X51953886Y-101654305D02*
X51881314Y-101690590D01*
X51881314Y-101690590D02*
X51663600Y-101690590D01*
X51663600Y-101690590D02*
X51591028Y-101654305D01*
X51591028Y-101654305D02*
X51554743Y-101618019D01*
X53967743Y-98620819D02*
X53931457Y-98657105D01*
X53931457Y-98657105D02*
X53822600Y-98693390D01*
X53822600Y-98693390D02*
X53750028Y-98693390D01*
X53750028Y-98693390D02*
X53641171Y-98657105D01*
X53641171Y-98657105D02*
X53568600Y-98584533D01*
X53568600Y-98584533D02*
X53532314Y-98511962D01*
X53532314Y-98511962D02*
X53496028Y-98366819D01*
X53496028Y-98366819D02*
X53496028Y-98257962D01*
X53496028Y-98257962D02*
X53532314Y-98112819D01*
X53532314Y-98112819D02*
X53568600Y-98040247D01*
X53568600Y-98040247D02*
X53641171Y-97967676D01*
X53641171Y-97967676D02*
X53750028Y-97931390D01*
X53750028Y-97931390D02*
X53822600Y-97931390D01*
X53822600Y-97931390D02*
X53931457Y-97967676D01*
X53931457Y-97967676D02*
X53967743Y-98003962D01*
X54693457Y-98693390D02*
X54258028Y-98693390D01*
X54475743Y-98693390D02*
X54475743Y-97931390D01*
X54475743Y-97931390D02*
X54403171Y-98040247D01*
X54403171Y-98040247D02*
X54330600Y-98112819D01*
X54330600Y-98112819D02*
X54258028Y-98149105D01*
X55419171Y-98693390D02*
X54983742Y-98693390D01*
X55201457Y-98693390D02*
X55201457Y-97931390D01*
X55201457Y-97931390D02*
X55128885Y-98040247D01*
X55128885Y-98040247D02*
X55056314Y-98112819D01*
X55056314Y-98112819D02*
X54983742Y-98149105D01*
X62182828Y-99223162D02*
X62110257Y-99186876D01*
X62110257Y-99186876D02*
X62037685Y-99114305D01*
X62037685Y-99114305D02*
X61928828Y-99005447D01*
X61928828Y-99005447D02*
X61856257Y-98969162D01*
X61856257Y-98969162D02*
X61783685Y-98969162D01*
X61819971Y-99150590D02*
X61747400Y-99114305D01*
X61747400Y-99114305D02*
X61674828Y-99041733D01*
X61674828Y-99041733D02*
X61638542Y-98896590D01*
X61638542Y-98896590D02*
X61638542Y-98642590D01*
X61638542Y-98642590D02*
X61674828Y-98497447D01*
X61674828Y-98497447D02*
X61747400Y-98424876D01*
X61747400Y-98424876D02*
X61819971Y-98388590D01*
X61819971Y-98388590D02*
X61965114Y-98388590D01*
X61965114Y-98388590D02*
X62037685Y-98424876D01*
X62037685Y-98424876D02*
X62110257Y-98497447D01*
X62110257Y-98497447D02*
X62146542Y-98642590D01*
X62146542Y-98642590D02*
X62146542Y-98896590D01*
X62146542Y-98896590D02*
X62110257Y-99041733D01*
X62110257Y-99041733D02*
X62037685Y-99114305D01*
X62037685Y-99114305D02*
X61965114Y-99150590D01*
X61965114Y-99150590D02*
X61819971Y-99150590D01*
X62799686Y-98642590D02*
X62799686Y-99150590D01*
X62618257Y-98352305D02*
X62436828Y-98896590D01*
X62436828Y-98896590D02*
X62908543Y-98896590D01*
X41797390Y-61197756D02*
X41434533Y-61451756D01*
X41797390Y-61633185D02*
X41035390Y-61633185D01*
X41035390Y-61633185D02*
X41035390Y-61342899D01*
X41035390Y-61342899D02*
X41071676Y-61270328D01*
X41071676Y-61270328D02*
X41107962Y-61234042D01*
X41107962Y-61234042D02*
X41180533Y-61197756D01*
X41180533Y-61197756D02*
X41289390Y-61197756D01*
X41289390Y-61197756D02*
X41361962Y-61234042D01*
X41361962Y-61234042D02*
X41398247Y-61270328D01*
X41398247Y-61270328D02*
X41434533Y-61342899D01*
X41434533Y-61342899D02*
X41434533Y-61633185D01*
X41107962Y-60907471D02*
X41071676Y-60871185D01*
X41071676Y-60871185D02*
X41035390Y-60798614D01*
X41035390Y-60798614D02*
X41035390Y-60617185D01*
X41035390Y-60617185D02*
X41071676Y-60544614D01*
X41071676Y-60544614D02*
X41107962Y-60508328D01*
X41107962Y-60508328D02*
X41180533Y-60472042D01*
X41180533Y-60472042D02*
X41253105Y-60472042D01*
X41253105Y-60472042D02*
X41361962Y-60508328D01*
X41361962Y-60508328D02*
X41797390Y-60943756D01*
X41797390Y-60943756D02*
X41797390Y-60472042D01*
X41035390Y-59818900D02*
X41035390Y-59964042D01*
X41035390Y-59964042D02*
X41071676Y-60036614D01*
X41071676Y-60036614D02*
X41107962Y-60072900D01*
X41107962Y-60072900D02*
X41216819Y-60145471D01*
X41216819Y-60145471D02*
X41361962Y-60181757D01*
X41361962Y-60181757D02*
X41652247Y-60181757D01*
X41652247Y-60181757D02*
X41724819Y-60145471D01*
X41724819Y-60145471D02*
X41761105Y-60109185D01*
X41761105Y-60109185D02*
X41797390Y-60036614D01*
X41797390Y-60036614D02*
X41797390Y-59891471D01*
X41797390Y-59891471D02*
X41761105Y-59818900D01*
X41761105Y-59818900D02*
X41724819Y-59782614D01*
X41724819Y-59782614D02*
X41652247Y-59746328D01*
X41652247Y-59746328D02*
X41470819Y-59746328D01*
X41470819Y-59746328D02*
X41398247Y-59782614D01*
X41398247Y-59782614D02*
X41361962Y-59818900D01*
X41361962Y-59818900D02*
X41325676Y-59891471D01*
X41325676Y-59891471D02*
X41325676Y-60036614D01*
X41325676Y-60036614D02*
X41361962Y-60109185D01*
X41361962Y-60109185D02*
X41398247Y-60145471D01*
X41398247Y-60145471D02*
X41470819Y-60181757D01*
X59708143Y-135574190D02*
X59454143Y-135211333D01*
X59272714Y-135574190D02*
X59272714Y-134812190D01*
X59272714Y-134812190D02*
X59563000Y-134812190D01*
X59563000Y-134812190D02*
X59635571Y-134848476D01*
X59635571Y-134848476D02*
X59671857Y-134884762D01*
X59671857Y-134884762D02*
X59708143Y-134957333D01*
X59708143Y-134957333D02*
X59708143Y-135066190D01*
X59708143Y-135066190D02*
X59671857Y-135138762D01*
X59671857Y-135138762D02*
X59635571Y-135175047D01*
X59635571Y-135175047D02*
X59563000Y-135211333D01*
X59563000Y-135211333D02*
X59272714Y-135211333D01*
X59962143Y-134812190D02*
X60433857Y-134812190D01*
X60433857Y-134812190D02*
X60179857Y-135102476D01*
X60179857Y-135102476D02*
X60288714Y-135102476D01*
X60288714Y-135102476D02*
X60361286Y-135138762D01*
X60361286Y-135138762D02*
X60397571Y-135175047D01*
X60397571Y-135175047D02*
X60433857Y-135247619D01*
X60433857Y-135247619D02*
X60433857Y-135429047D01*
X60433857Y-135429047D02*
X60397571Y-135501619D01*
X60397571Y-135501619D02*
X60361286Y-135537905D01*
X60361286Y-135537905D02*
X60288714Y-135574190D01*
X60288714Y-135574190D02*
X60071000Y-135574190D01*
X60071000Y-135574190D02*
X59998428Y-135537905D01*
X59998428Y-135537905D02*
X59962143Y-135501619D01*
X60687857Y-134812190D02*
X61195857Y-134812190D01*
X61195857Y-134812190D02*
X60869285Y-135574190D01*
X40284400Y-99818247D02*
X40030400Y-99818247D01*
X40030400Y-100217390D02*
X40030400Y-99455390D01*
X40030400Y-99455390D02*
X40393257Y-99455390D01*
X40647257Y-99527962D02*
X40683543Y-99491676D01*
X40683543Y-99491676D02*
X40756115Y-99455390D01*
X40756115Y-99455390D02*
X40937543Y-99455390D01*
X40937543Y-99455390D02*
X41010115Y-99491676D01*
X41010115Y-99491676D02*
X41046400Y-99527962D01*
X41046400Y-99527962D02*
X41082686Y-99600533D01*
X41082686Y-99600533D02*
X41082686Y-99673105D01*
X41082686Y-99673105D02*
X41046400Y-99781962D01*
X41046400Y-99781962D02*
X40610972Y-100217390D01*
X40610972Y-100217390D02*
X41082686Y-100217390D01*
X48227343Y-56660019D02*
X48191057Y-56696305D01*
X48191057Y-56696305D02*
X48082200Y-56732590D01*
X48082200Y-56732590D02*
X48009628Y-56732590D01*
X48009628Y-56732590D02*
X47900771Y-56696305D01*
X47900771Y-56696305D02*
X47828200Y-56623733D01*
X47828200Y-56623733D02*
X47791914Y-56551162D01*
X47791914Y-56551162D02*
X47755628Y-56406019D01*
X47755628Y-56406019D02*
X47755628Y-56297162D01*
X47755628Y-56297162D02*
X47791914Y-56152019D01*
X47791914Y-56152019D02*
X47828200Y-56079447D01*
X47828200Y-56079447D02*
X47900771Y-56006876D01*
X47900771Y-56006876D02*
X48009628Y-55970590D01*
X48009628Y-55970590D02*
X48082200Y-55970590D01*
X48082200Y-55970590D02*
X48191057Y-56006876D01*
X48191057Y-56006876D02*
X48227343Y-56043162D01*
X48953057Y-56732590D02*
X48517628Y-56732590D01*
X48735343Y-56732590D02*
X48735343Y-55970590D01*
X48735343Y-55970590D02*
X48662771Y-56079447D01*
X48662771Y-56079447D02*
X48590200Y-56152019D01*
X48590200Y-56152019D02*
X48517628Y-56188305D01*
X49606200Y-56224590D02*
X49606200Y-56732590D01*
X49424771Y-55934305D02*
X49243342Y-56478590D01*
X49243342Y-56478590D02*
X49715057Y-56478590D01*
X52596143Y-55339219D02*
X52559857Y-55375505D01*
X52559857Y-55375505D02*
X52451000Y-55411790D01*
X52451000Y-55411790D02*
X52378428Y-55411790D01*
X52378428Y-55411790D02*
X52269571Y-55375505D01*
X52269571Y-55375505D02*
X52197000Y-55302933D01*
X52197000Y-55302933D02*
X52160714Y-55230362D01*
X52160714Y-55230362D02*
X52124428Y-55085219D01*
X52124428Y-55085219D02*
X52124428Y-54976362D01*
X52124428Y-54976362D02*
X52160714Y-54831219D01*
X52160714Y-54831219D02*
X52197000Y-54758647D01*
X52197000Y-54758647D02*
X52269571Y-54686076D01*
X52269571Y-54686076D02*
X52378428Y-54649790D01*
X52378428Y-54649790D02*
X52451000Y-54649790D01*
X52451000Y-54649790D02*
X52559857Y-54686076D01*
X52559857Y-54686076D02*
X52596143Y-54722362D01*
X53321857Y-55411790D02*
X52886428Y-55411790D01*
X53104143Y-55411790D02*
X53104143Y-54649790D01*
X53104143Y-54649790D02*
X53031571Y-54758647D01*
X53031571Y-54758647D02*
X52959000Y-54831219D01*
X52959000Y-54831219D02*
X52886428Y-54867505D01*
X53975000Y-54649790D02*
X53829857Y-54649790D01*
X53829857Y-54649790D02*
X53757285Y-54686076D01*
X53757285Y-54686076D02*
X53721000Y-54722362D01*
X53721000Y-54722362D02*
X53648428Y-54831219D01*
X53648428Y-54831219D02*
X53612142Y-54976362D01*
X53612142Y-54976362D02*
X53612142Y-55266647D01*
X53612142Y-55266647D02*
X53648428Y-55339219D01*
X53648428Y-55339219D02*
X53684714Y-55375505D01*
X53684714Y-55375505D02*
X53757285Y-55411790D01*
X53757285Y-55411790D02*
X53902428Y-55411790D01*
X53902428Y-55411790D02*
X53975000Y-55375505D01*
X53975000Y-55375505D02*
X54011285Y-55339219D01*
X54011285Y-55339219D02*
X54047571Y-55266647D01*
X54047571Y-55266647D02*
X54047571Y-55085219D01*
X54047571Y-55085219D02*
X54011285Y-55012647D01*
X54011285Y-55012647D02*
X53975000Y-54976362D01*
X53975000Y-54976362D02*
X53902428Y-54940076D01*
X53902428Y-54940076D02*
X53757285Y-54940076D01*
X53757285Y-54940076D02*
X53684714Y-54976362D01*
X53684714Y-54976362D02*
X53648428Y-55012647D01*
X53648428Y-55012647D02*
X53612142Y-55085219D01*
X59247190Y-122105056D02*
X58884333Y-122359056D01*
X59247190Y-122540485D02*
X58485190Y-122540485D01*
X58485190Y-122540485D02*
X58485190Y-122250199D01*
X58485190Y-122250199D02*
X58521476Y-122177628D01*
X58521476Y-122177628D02*
X58557762Y-122141342D01*
X58557762Y-122141342D02*
X58630333Y-122105056D01*
X58630333Y-122105056D02*
X58739190Y-122105056D01*
X58739190Y-122105056D02*
X58811762Y-122141342D01*
X58811762Y-122141342D02*
X58848047Y-122177628D01*
X58848047Y-122177628D02*
X58884333Y-122250199D01*
X58884333Y-122250199D02*
X58884333Y-122540485D01*
X59247190Y-121379342D02*
X59247190Y-121814771D01*
X59247190Y-121597056D02*
X58485190Y-121597056D01*
X58485190Y-121597056D02*
X58594047Y-121669628D01*
X58594047Y-121669628D02*
X58666619Y-121742199D01*
X58666619Y-121742199D02*
X58702905Y-121814771D01*
X59247190Y-120653628D02*
X59247190Y-121089057D01*
X59247190Y-120871342D02*
X58485190Y-120871342D01*
X58485190Y-120871342D02*
X58594047Y-120943914D01*
X58594047Y-120943914D02*
X58666619Y-121016485D01*
X58666619Y-121016485D02*
X58702905Y-121089057D01*
X44036219Y-92176599D02*
X44072505Y-92212885D01*
X44072505Y-92212885D02*
X44108790Y-92321742D01*
X44108790Y-92321742D02*
X44108790Y-92394314D01*
X44108790Y-92394314D02*
X44072505Y-92503171D01*
X44072505Y-92503171D02*
X43999933Y-92575742D01*
X43999933Y-92575742D02*
X43927362Y-92612028D01*
X43927362Y-92612028D02*
X43782219Y-92648314D01*
X43782219Y-92648314D02*
X43673362Y-92648314D01*
X43673362Y-92648314D02*
X43528219Y-92612028D01*
X43528219Y-92612028D02*
X43455647Y-92575742D01*
X43455647Y-92575742D02*
X43383076Y-92503171D01*
X43383076Y-92503171D02*
X43346790Y-92394314D01*
X43346790Y-92394314D02*
X43346790Y-92321742D01*
X43346790Y-92321742D02*
X43383076Y-92212885D01*
X43383076Y-92212885D02*
X43419362Y-92176599D01*
X44108790Y-91813742D02*
X44108790Y-91668599D01*
X44108790Y-91668599D02*
X44072505Y-91596028D01*
X44072505Y-91596028D02*
X44036219Y-91559742D01*
X44036219Y-91559742D02*
X43927362Y-91487171D01*
X43927362Y-91487171D02*
X43782219Y-91450885D01*
X43782219Y-91450885D02*
X43491933Y-91450885D01*
X43491933Y-91450885D02*
X43419362Y-91487171D01*
X43419362Y-91487171D02*
X43383076Y-91523457D01*
X43383076Y-91523457D02*
X43346790Y-91596028D01*
X43346790Y-91596028D02*
X43346790Y-91741171D01*
X43346790Y-91741171D02*
X43383076Y-91813742D01*
X43383076Y-91813742D02*
X43419362Y-91850028D01*
X43419362Y-91850028D02*
X43491933Y-91886314D01*
X43491933Y-91886314D02*
X43673362Y-91886314D01*
X43673362Y-91886314D02*
X43745933Y-91850028D01*
X43745933Y-91850028D02*
X43782219Y-91813742D01*
X43782219Y-91813742D02*
X43818505Y-91741171D01*
X43818505Y-91741171D02*
X43818505Y-91596028D01*
X43818505Y-91596028D02*
X43782219Y-91523457D01*
X43782219Y-91523457D02*
X43745933Y-91487171D01*
X43745933Y-91487171D02*
X43673362Y-91450885D01*
X45259171Y-72074190D02*
X45259171Y-71312190D01*
X45259171Y-71312190D02*
X45440600Y-71312190D01*
X45440600Y-71312190D02*
X45549457Y-71348476D01*
X45549457Y-71348476D02*
X45622028Y-71421047D01*
X45622028Y-71421047D02*
X45658314Y-71493619D01*
X45658314Y-71493619D02*
X45694600Y-71638762D01*
X45694600Y-71638762D02*
X45694600Y-71747619D01*
X45694600Y-71747619D02*
X45658314Y-71892762D01*
X45658314Y-71892762D02*
X45622028Y-71965333D01*
X45622028Y-71965333D02*
X45549457Y-72037905D01*
X45549457Y-72037905D02*
X45440600Y-72074190D01*
X45440600Y-72074190D02*
X45259171Y-72074190D01*
X45948600Y-71312190D02*
X46420314Y-71312190D01*
X46420314Y-71312190D02*
X46166314Y-71602476D01*
X46166314Y-71602476D02*
X46275171Y-71602476D01*
X46275171Y-71602476D02*
X46347743Y-71638762D01*
X46347743Y-71638762D02*
X46384028Y-71675047D01*
X46384028Y-71675047D02*
X46420314Y-71747619D01*
X46420314Y-71747619D02*
X46420314Y-71929047D01*
X46420314Y-71929047D02*
X46384028Y-72001619D01*
X46384028Y-72001619D02*
X46347743Y-72037905D01*
X46347743Y-72037905D02*
X46275171Y-72074190D01*
X46275171Y-72074190D02*
X46057457Y-72074190D01*
X46057457Y-72074190D02*
X45984885Y-72037905D01*
X45984885Y-72037905D02*
X45948600Y-72001619D01*
X45759790Y-59316256D02*
X45396933Y-59570256D01*
X45759790Y-59751685D02*
X44997790Y-59751685D01*
X44997790Y-59751685D02*
X44997790Y-59461399D01*
X44997790Y-59461399D02*
X45034076Y-59388828D01*
X45034076Y-59388828D02*
X45070362Y-59352542D01*
X45070362Y-59352542D02*
X45142933Y-59316256D01*
X45142933Y-59316256D02*
X45251790Y-59316256D01*
X45251790Y-59316256D02*
X45324362Y-59352542D01*
X45324362Y-59352542D02*
X45360647Y-59388828D01*
X45360647Y-59388828D02*
X45396933Y-59461399D01*
X45396933Y-59461399D02*
X45396933Y-59751685D01*
X45070362Y-59025971D02*
X45034076Y-58989685D01*
X45034076Y-58989685D02*
X44997790Y-58917114D01*
X44997790Y-58917114D02*
X44997790Y-58735685D01*
X44997790Y-58735685D02*
X45034076Y-58663114D01*
X45034076Y-58663114D02*
X45070362Y-58626828D01*
X45070362Y-58626828D02*
X45142933Y-58590542D01*
X45142933Y-58590542D02*
X45215505Y-58590542D01*
X45215505Y-58590542D02*
X45324362Y-58626828D01*
X45324362Y-58626828D02*
X45759790Y-59062256D01*
X45759790Y-59062256D02*
X45759790Y-58590542D01*
X45324362Y-58155114D02*
X45288076Y-58227685D01*
X45288076Y-58227685D02*
X45251790Y-58263971D01*
X45251790Y-58263971D02*
X45179219Y-58300257D01*
X45179219Y-58300257D02*
X45142933Y-58300257D01*
X45142933Y-58300257D02*
X45070362Y-58263971D01*
X45070362Y-58263971D02*
X45034076Y-58227685D01*
X45034076Y-58227685D02*
X44997790Y-58155114D01*
X44997790Y-58155114D02*
X44997790Y-58009971D01*
X44997790Y-58009971D02*
X45034076Y-57937400D01*
X45034076Y-57937400D02*
X45070362Y-57901114D01*
X45070362Y-57901114D02*
X45142933Y-57864828D01*
X45142933Y-57864828D02*
X45179219Y-57864828D01*
X45179219Y-57864828D02*
X45251790Y-57901114D01*
X45251790Y-57901114D02*
X45288076Y-57937400D01*
X45288076Y-57937400D02*
X45324362Y-58009971D01*
X45324362Y-58009971D02*
X45324362Y-58155114D01*
X45324362Y-58155114D02*
X45360647Y-58227685D01*
X45360647Y-58227685D02*
X45396933Y-58263971D01*
X45396933Y-58263971D02*
X45469505Y-58300257D01*
X45469505Y-58300257D02*
X45614647Y-58300257D01*
X45614647Y-58300257D02*
X45687219Y-58263971D01*
X45687219Y-58263971D02*
X45723505Y-58227685D01*
X45723505Y-58227685D02*
X45759790Y-58155114D01*
X45759790Y-58155114D02*
X45759790Y-58009971D01*
X45759790Y-58009971D02*
X45723505Y-57937400D01*
X45723505Y-57937400D02*
X45687219Y-57901114D01*
X45687219Y-57901114D02*
X45614647Y-57864828D01*
X45614647Y-57864828D02*
X45469505Y-57864828D01*
X45469505Y-57864828D02*
X45396933Y-57901114D01*
X45396933Y-57901114D02*
X45360647Y-57937400D01*
X45360647Y-57937400D02*
X45324362Y-58009971D01*
X37152943Y-108018819D02*
X37116657Y-108055105D01*
X37116657Y-108055105D02*
X37007800Y-108091390D01*
X37007800Y-108091390D02*
X36935228Y-108091390D01*
X36935228Y-108091390D02*
X36826371Y-108055105D01*
X36826371Y-108055105D02*
X36753800Y-107982533D01*
X36753800Y-107982533D02*
X36717514Y-107909962D01*
X36717514Y-107909962D02*
X36681228Y-107764819D01*
X36681228Y-107764819D02*
X36681228Y-107655962D01*
X36681228Y-107655962D02*
X36717514Y-107510819D01*
X36717514Y-107510819D02*
X36753800Y-107438247D01*
X36753800Y-107438247D02*
X36826371Y-107365676D01*
X36826371Y-107365676D02*
X36935228Y-107329390D01*
X36935228Y-107329390D02*
X37007800Y-107329390D01*
X37007800Y-107329390D02*
X37116657Y-107365676D01*
X37116657Y-107365676D02*
X37152943Y-107401962D01*
X37878657Y-108091390D02*
X37443228Y-108091390D01*
X37660943Y-108091390D02*
X37660943Y-107329390D01*
X37660943Y-107329390D02*
X37588371Y-107438247D01*
X37588371Y-107438247D02*
X37515800Y-107510819D01*
X37515800Y-107510819D02*
X37443228Y-107547105D01*
X38241514Y-108091390D02*
X38386657Y-108091390D01*
X38386657Y-108091390D02*
X38459228Y-108055105D01*
X38459228Y-108055105D02*
X38495514Y-108018819D01*
X38495514Y-108018819D02*
X38568085Y-107909962D01*
X38568085Y-107909962D02*
X38604371Y-107764819D01*
X38604371Y-107764819D02*
X38604371Y-107474533D01*
X38604371Y-107474533D02*
X38568085Y-107401962D01*
X38568085Y-107401962D02*
X38531800Y-107365676D01*
X38531800Y-107365676D02*
X38459228Y-107329390D01*
X38459228Y-107329390D02*
X38314085Y-107329390D01*
X38314085Y-107329390D02*
X38241514Y-107365676D01*
X38241514Y-107365676D02*
X38205228Y-107401962D01*
X38205228Y-107401962D02*
X38168942Y-107474533D01*
X38168942Y-107474533D02*
X38168942Y-107655962D01*
X38168942Y-107655962D02*
X38205228Y-107728533D01*
X38205228Y-107728533D02*
X38241514Y-107764819D01*
X38241514Y-107764819D02*
X38314085Y-107801105D01*
X38314085Y-107801105D02*
X38459228Y-107801105D01*
X38459228Y-107801105D02*
X38531800Y-107764819D01*
X38531800Y-107764819D02*
X38568085Y-107728533D01*
X38568085Y-107728533D02*
X38604371Y-107655962D01*
X63314943Y-87466590D02*
X63060943Y-87103733D01*
X62879514Y-87466590D02*
X62879514Y-86704590D01*
X62879514Y-86704590D02*
X63169800Y-86704590D01*
X63169800Y-86704590D02*
X63242371Y-86740876D01*
X63242371Y-86740876D02*
X63278657Y-86777162D01*
X63278657Y-86777162D02*
X63314943Y-86849733D01*
X63314943Y-86849733D02*
X63314943Y-86958590D01*
X63314943Y-86958590D02*
X63278657Y-87031162D01*
X63278657Y-87031162D02*
X63242371Y-87067447D01*
X63242371Y-87067447D02*
X63169800Y-87103733D01*
X63169800Y-87103733D02*
X62879514Y-87103733D01*
X63568943Y-86704590D02*
X64040657Y-86704590D01*
X64040657Y-86704590D02*
X63786657Y-86994876D01*
X63786657Y-86994876D02*
X63895514Y-86994876D01*
X63895514Y-86994876D02*
X63968086Y-87031162D01*
X63968086Y-87031162D02*
X64004371Y-87067447D01*
X64004371Y-87067447D02*
X64040657Y-87140019D01*
X64040657Y-87140019D02*
X64040657Y-87321447D01*
X64040657Y-87321447D02*
X64004371Y-87394019D01*
X64004371Y-87394019D02*
X63968086Y-87430305D01*
X63968086Y-87430305D02*
X63895514Y-87466590D01*
X63895514Y-87466590D02*
X63677800Y-87466590D01*
X63677800Y-87466590D02*
X63605228Y-87430305D01*
X63605228Y-87430305D02*
X63568943Y-87394019D01*
X64693800Y-86704590D02*
X64548657Y-86704590D01*
X64548657Y-86704590D02*
X64476085Y-86740876D01*
X64476085Y-86740876D02*
X64439800Y-86777162D01*
X64439800Y-86777162D02*
X64367228Y-86886019D01*
X64367228Y-86886019D02*
X64330942Y-87031162D01*
X64330942Y-87031162D02*
X64330942Y-87321447D01*
X64330942Y-87321447D02*
X64367228Y-87394019D01*
X64367228Y-87394019D02*
X64403514Y-87430305D01*
X64403514Y-87430305D02*
X64476085Y-87466590D01*
X64476085Y-87466590D02*
X64621228Y-87466590D01*
X64621228Y-87466590D02*
X64693800Y-87430305D01*
X64693800Y-87430305D02*
X64730085Y-87394019D01*
X64730085Y-87394019D02*
X64766371Y-87321447D01*
X64766371Y-87321447D02*
X64766371Y-87140019D01*
X64766371Y-87140019D02*
X64730085Y-87067447D01*
X64730085Y-87067447D02*
X64693800Y-87031162D01*
X64693800Y-87031162D02*
X64621228Y-86994876D01*
X64621228Y-86994876D02*
X64476085Y-86994876D01*
X64476085Y-86994876D02*
X64403514Y-87031162D01*
X64403514Y-87031162D02*
X64367228Y-87067447D01*
X64367228Y-87067447D02*
X64330942Y-87140019D01*
X44184990Y-59316256D02*
X43822133Y-59570256D01*
X44184990Y-59751685D02*
X43422990Y-59751685D01*
X43422990Y-59751685D02*
X43422990Y-59461399D01*
X43422990Y-59461399D02*
X43459276Y-59388828D01*
X43459276Y-59388828D02*
X43495562Y-59352542D01*
X43495562Y-59352542D02*
X43568133Y-59316256D01*
X43568133Y-59316256D02*
X43676990Y-59316256D01*
X43676990Y-59316256D02*
X43749562Y-59352542D01*
X43749562Y-59352542D02*
X43785847Y-59388828D01*
X43785847Y-59388828D02*
X43822133Y-59461399D01*
X43822133Y-59461399D02*
X43822133Y-59751685D01*
X43495562Y-59025971D02*
X43459276Y-58989685D01*
X43459276Y-58989685D02*
X43422990Y-58917114D01*
X43422990Y-58917114D02*
X43422990Y-58735685D01*
X43422990Y-58735685D02*
X43459276Y-58663114D01*
X43459276Y-58663114D02*
X43495562Y-58626828D01*
X43495562Y-58626828D02*
X43568133Y-58590542D01*
X43568133Y-58590542D02*
X43640705Y-58590542D01*
X43640705Y-58590542D02*
X43749562Y-58626828D01*
X43749562Y-58626828D02*
X44184990Y-59062256D01*
X44184990Y-59062256D02*
X44184990Y-58590542D01*
X44184990Y-58227685D02*
X44184990Y-58082542D01*
X44184990Y-58082542D02*
X44148705Y-58009971D01*
X44148705Y-58009971D02*
X44112419Y-57973685D01*
X44112419Y-57973685D02*
X44003562Y-57901114D01*
X44003562Y-57901114D02*
X43858419Y-57864828D01*
X43858419Y-57864828D02*
X43568133Y-57864828D01*
X43568133Y-57864828D02*
X43495562Y-57901114D01*
X43495562Y-57901114D02*
X43459276Y-57937400D01*
X43459276Y-57937400D02*
X43422990Y-58009971D01*
X43422990Y-58009971D02*
X43422990Y-58155114D01*
X43422990Y-58155114D02*
X43459276Y-58227685D01*
X43459276Y-58227685D02*
X43495562Y-58263971D01*
X43495562Y-58263971D02*
X43568133Y-58300257D01*
X43568133Y-58300257D02*
X43749562Y-58300257D01*
X43749562Y-58300257D02*
X43822133Y-58263971D01*
X43822133Y-58263971D02*
X43858419Y-58227685D01*
X43858419Y-58227685D02*
X43894705Y-58155114D01*
X43894705Y-58155114D02*
X43894705Y-58009971D01*
X43894705Y-58009971D02*
X43858419Y-57937400D01*
X43858419Y-57937400D02*
X43822133Y-57901114D01*
X43822133Y-57901114D02*
X43749562Y-57864828D01*
X55847343Y-109208990D02*
X55593343Y-108846133D01*
X55411914Y-109208990D02*
X55411914Y-108446990D01*
X55411914Y-108446990D02*
X55702200Y-108446990D01*
X55702200Y-108446990D02*
X55774771Y-108483276D01*
X55774771Y-108483276D02*
X55811057Y-108519562D01*
X55811057Y-108519562D02*
X55847343Y-108592133D01*
X55847343Y-108592133D02*
X55847343Y-108700990D01*
X55847343Y-108700990D02*
X55811057Y-108773562D01*
X55811057Y-108773562D02*
X55774771Y-108809847D01*
X55774771Y-108809847D02*
X55702200Y-108846133D01*
X55702200Y-108846133D02*
X55411914Y-108846133D01*
X56101343Y-108446990D02*
X56573057Y-108446990D01*
X56573057Y-108446990D02*
X56319057Y-108737276D01*
X56319057Y-108737276D02*
X56427914Y-108737276D01*
X56427914Y-108737276D02*
X56500486Y-108773562D01*
X56500486Y-108773562D02*
X56536771Y-108809847D01*
X56536771Y-108809847D02*
X56573057Y-108882419D01*
X56573057Y-108882419D02*
X56573057Y-109063847D01*
X56573057Y-109063847D02*
X56536771Y-109136419D01*
X56536771Y-109136419D02*
X56500486Y-109172705D01*
X56500486Y-109172705D02*
X56427914Y-109208990D01*
X56427914Y-109208990D02*
X56210200Y-109208990D01*
X56210200Y-109208990D02*
X56137628Y-109172705D01*
X56137628Y-109172705D02*
X56101343Y-109136419D01*
X57262485Y-108446990D02*
X56899628Y-108446990D01*
X56899628Y-108446990D02*
X56863342Y-108809847D01*
X56863342Y-108809847D02*
X56899628Y-108773562D01*
X56899628Y-108773562D02*
X56972200Y-108737276D01*
X56972200Y-108737276D02*
X57153628Y-108737276D01*
X57153628Y-108737276D02*
X57226200Y-108773562D01*
X57226200Y-108773562D02*
X57262485Y-108809847D01*
X57262485Y-108809847D02*
X57298771Y-108882419D01*
X57298771Y-108882419D02*
X57298771Y-109063847D01*
X57298771Y-109063847D02*
X57262485Y-109136419D01*
X57262485Y-109136419D02*
X57226200Y-109172705D01*
X57226200Y-109172705D02*
X57153628Y-109208990D01*
X57153628Y-109208990D02*
X56972200Y-109208990D01*
X56972200Y-109208990D02*
X56899628Y-109172705D01*
X56899628Y-109172705D02*
X56863342Y-109136419D01*
X58648600Y-130138590D02*
X58394600Y-129775733D01*
X58213171Y-130138590D02*
X58213171Y-129376590D01*
X58213171Y-129376590D02*
X58503457Y-129376590D01*
X58503457Y-129376590D02*
X58576028Y-129412876D01*
X58576028Y-129412876D02*
X58612314Y-129449162D01*
X58612314Y-129449162D02*
X58648600Y-129521733D01*
X58648600Y-129521733D02*
X58648600Y-129630590D01*
X58648600Y-129630590D02*
X58612314Y-129703162D01*
X58612314Y-129703162D02*
X58576028Y-129739447D01*
X58576028Y-129739447D02*
X58503457Y-129775733D01*
X58503457Y-129775733D02*
X58213171Y-129775733D01*
X59374314Y-130138590D02*
X58938885Y-130138590D01*
X59156600Y-130138590D02*
X59156600Y-129376590D01*
X59156600Y-129376590D02*
X59084028Y-129485447D01*
X59084028Y-129485447D02*
X59011457Y-129558019D01*
X59011457Y-129558019D02*
X58938885Y-129594305D01*
X40425790Y-58249456D02*
X40062933Y-58503456D01*
X40425790Y-58684885D02*
X39663790Y-58684885D01*
X39663790Y-58684885D02*
X39663790Y-58394599D01*
X39663790Y-58394599D02*
X39700076Y-58322028D01*
X39700076Y-58322028D02*
X39736362Y-58285742D01*
X39736362Y-58285742D02*
X39808933Y-58249456D01*
X39808933Y-58249456D02*
X39917790Y-58249456D01*
X39917790Y-58249456D02*
X39990362Y-58285742D01*
X39990362Y-58285742D02*
X40026647Y-58322028D01*
X40026647Y-58322028D02*
X40062933Y-58394599D01*
X40062933Y-58394599D02*
X40062933Y-58684885D01*
X39736362Y-57959171D02*
X39700076Y-57922885D01*
X39700076Y-57922885D02*
X39663790Y-57850314D01*
X39663790Y-57850314D02*
X39663790Y-57668885D01*
X39663790Y-57668885D02*
X39700076Y-57596314D01*
X39700076Y-57596314D02*
X39736362Y-57560028D01*
X39736362Y-57560028D02*
X39808933Y-57523742D01*
X39808933Y-57523742D02*
X39881505Y-57523742D01*
X39881505Y-57523742D02*
X39990362Y-57560028D01*
X39990362Y-57560028D02*
X40425790Y-57995456D01*
X40425790Y-57995456D02*
X40425790Y-57523742D01*
X39663790Y-56834314D02*
X39663790Y-57197171D01*
X39663790Y-57197171D02*
X40026647Y-57233457D01*
X40026647Y-57233457D02*
X39990362Y-57197171D01*
X39990362Y-57197171D02*
X39954076Y-57124600D01*
X39954076Y-57124600D02*
X39954076Y-56943171D01*
X39954076Y-56943171D02*
X39990362Y-56870600D01*
X39990362Y-56870600D02*
X40026647Y-56834314D01*
X40026647Y-56834314D02*
X40099219Y-56798028D01*
X40099219Y-56798028D02*
X40280647Y-56798028D01*
X40280647Y-56798028D02*
X40353219Y-56834314D01*
X40353219Y-56834314D02*
X40389505Y-56870600D01*
X40389505Y-56870600D02*
X40425790Y-56943171D01*
X40425790Y-56943171D02*
X40425790Y-57124600D01*
X40425790Y-57124600D02*
X40389505Y-57197171D01*
X40389505Y-57197171D02*
X40353219Y-57233457D01*
X37033200Y-55106990D02*
X37033200Y-55651276D01*
X37033200Y-55651276D02*
X36996915Y-55760133D01*
X36996915Y-55760133D02*
X36924343Y-55832705D01*
X36924343Y-55832705D02*
X36815486Y-55868990D01*
X36815486Y-55868990D02*
X36742915Y-55868990D01*
X37722629Y-55106990D02*
X37577486Y-55106990D01*
X37577486Y-55106990D02*
X37504914Y-55143276D01*
X37504914Y-55143276D02*
X37468629Y-55179562D01*
X37468629Y-55179562D02*
X37396057Y-55288419D01*
X37396057Y-55288419D02*
X37359771Y-55433562D01*
X37359771Y-55433562D02*
X37359771Y-55723847D01*
X37359771Y-55723847D02*
X37396057Y-55796419D01*
X37396057Y-55796419D02*
X37432343Y-55832705D01*
X37432343Y-55832705D02*
X37504914Y-55868990D01*
X37504914Y-55868990D02*
X37650057Y-55868990D01*
X37650057Y-55868990D02*
X37722629Y-55832705D01*
X37722629Y-55832705D02*
X37758914Y-55796419D01*
X37758914Y-55796419D02*
X37795200Y-55723847D01*
X37795200Y-55723847D02*
X37795200Y-55542419D01*
X37795200Y-55542419D02*
X37758914Y-55469847D01*
X37758914Y-55469847D02*
X37722629Y-55433562D01*
X37722629Y-55433562D02*
X37650057Y-55397276D01*
X37650057Y-55397276D02*
X37504914Y-55397276D01*
X37504914Y-55397276D02*
X37432343Y-55433562D01*
X37432343Y-55433562D02*
X37396057Y-55469847D01*
X37396057Y-55469847D02*
X37359771Y-55542419D01*
X64008000Y-57900990D02*
X64008000Y-58445276D01*
X64008000Y-58445276D02*
X63971715Y-58554133D01*
X63971715Y-58554133D02*
X63899143Y-58626705D01*
X63899143Y-58626705D02*
X63790286Y-58662990D01*
X63790286Y-58662990D02*
X63717715Y-58662990D01*
X64697429Y-58154990D02*
X64697429Y-58662990D01*
X64516000Y-57864705D02*
X64334571Y-58408990D01*
X64334571Y-58408990D02*
X64806286Y-58408990D01*
X38989000Y-80354590D02*
X38989000Y-80898876D01*
X38989000Y-80898876D02*
X38952715Y-81007733D01*
X38952715Y-81007733D02*
X38880143Y-81080305D01*
X38880143Y-81080305D02*
X38771286Y-81116590D01*
X38771286Y-81116590D02*
X38698715Y-81116590D01*
X39351857Y-81116590D02*
X39351857Y-80354590D01*
X39351857Y-80354590D02*
X39642143Y-80354590D01*
X39642143Y-80354590D02*
X39714714Y-80390876D01*
X39714714Y-80390876D02*
X39751000Y-80427162D01*
X39751000Y-80427162D02*
X39787286Y-80499733D01*
X39787286Y-80499733D02*
X39787286Y-80608590D01*
X39787286Y-80608590D02*
X39751000Y-80681162D01*
X39751000Y-80681162D02*
X39714714Y-80717447D01*
X39714714Y-80717447D02*
X39642143Y-80753733D01*
X39642143Y-80753733D02*
X39351857Y-80753733D01*
X40077571Y-80427162D02*
X40113857Y-80390876D01*
X40113857Y-80390876D02*
X40186429Y-80354590D01*
X40186429Y-80354590D02*
X40367857Y-80354590D01*
X40367857Y-80354590D02*
X40440429Y-80390876D01*
X40440429Y-80390876D02*
X40476714Y-80427162D01*
X40476714Y-80427162D02*
X40513000Y-80499733D01*
X40513000Y-80499733D02*
X40513000Y-80572305D01*
X40513000Y-80572305D02*
X40476714Y-80681162D01*
X40476714Y-80681162D02*
X40041286Y-81116590D01*
X40041286Y-81116590D02*
X40513000Y-81116590D01*
D11*
X38477866Y-141161419D02*
X38477866Y-141875704D01*
X38477866Y-141875704D02*
X38430247Y-142018561D01*
X38430247Y-142018561D02*
X38335009Y-142113800D01*
X38335009Y-142113800D02*
X38192152Y-142161419D01*
X38192152Y-142161419D02*
X38096914Y-142161419D01*
X39477866Y-142161419D02*
X38906438Y-142161419D01*
X39192152Y-142161419D02*
X39192152Y-141161419D01*
X39192152Y-141161419D02*
X39096914Y-141304276D01*
X39096914Y-141304276D02*
X39001676Y-141399514D01*
X39001676Y-141399514D02*
X38906438Y-141447133D01*
%TO.C,Q2*%
D12*
X50489500Y-83012100D02*
X52589500Y-83012100D01*
X50489500Y-85339100D02*
X52589500Y-85339100D01*
D13*
X50039500Y-83525600D02*
G75*
G02*
X49839500Y-83525600I-100000J0D01*
G01*
X49839500Y-83525600D02*
G75*
G02*
X50039500Y-83525600I100000J0D01*
G01*
%TO.C,R17*%
D14*
X40089526Y-88694751D02*
X40598974Y-88694751D01*
X40089526Y-89739751D02*
X40598974Y-89739751D01*
%TO.C,C23*%
X50627267Y-107126000D02*
X50334733Y-107126000D01*
X50627267Y-108146000D02*
X50334733Y-108146000D01*
%TO.C,C1*%
X57511733Y-126490000D02*
X57804267Y-126490000D01*
X57511733Y-127510000D02*
X57804267Y-127510000D01*
%TO.C,R12*%
X56388724Y-113269500D02*
X55879276Y-113269500D01*
X56388724Y-114314500D02*
X55879276Y-114314500D01*
%TO.C,R8*%
X48194700Y-85952876D02*
X48194700Y-86462324D01*
X49239700Y-85952876D02*
X49239700Y-86462324D01*
%TO.C,C21*%
X46043233Y-104011000D02*
X46335767Y-104011000D01*
X46043233Y-105031000D02*
X46335767Y-105031000D01*
%TO.C,U1*%
D10*
X54813200Y-119133692D02*
X54813200Y-120642308D01*
X57708800Y-120642308D02*
X57708800Y-119133692D01*
%TO.C,D8*%
D14*
X41053001Y-129175000D02*
X37193001Y-129175000D01*
X41053001Y-131175000D02*
X37193001Y-131175000D01*
X41053001Y-131175000D02*
X41053001Y-129175000D01*
%TO.C,C12*%
X40197983Y-90207251D02*
X40490517Y-90207251D01*
X40197983Y-91227251D02*
X40490517Y-91227251D01*
%TO.C,F1*%
X57084500Y-82548276D02*
X57084500Y-83057724D01*
X58129500Y-82548276D02*
X58129500Y-83057724D01*
%TO.C,Q10*%
D10*
X38023800Y-119545100D02*
X38023800Y-119809260D01*
X38023800Y-124792740D02*
X38023800Y-125056900D01*
X38023800Y-125056900D02*
X44272200Y-125056900D01*
X44272200Y-119545100D02*
X38023800Y-119545100D01*
X44272200Y-119809260D02*
X44272200Y-119545100D01*
X44272200Y-125056900D02*
X44272200Y-124792740D01*
X45497800Y-124206000D02*
G75*
G02*
X45243800Y-124206000I-127000J0D01*
G01*
X45243800Y-124206000D02*
G75*
G02*
X45497800Y-124206000I127000J0D01*
G01*
%TO.C,C5*%
D14*
X53211000Y-118129267D02*
X53211000Y-117836733D01*
X54231000Y-118129267D02*
X54231000Y-117836733D01*
%TO.C,C3*%
X53955733Y-126490000D02*
X54248267Y-126490000D01*
X53955733Y-127510000D02*
X54248267Y-127510000D01*
%TO.C,R10*%
X58659500Y-114935724D02*
X58659500Y-114426276D01*
X59704500Y-114935724D02*
X59704500Y-114426276D01*
%TO.C,C2*%
X56026267Y-124420000D02*
X55733733Y-124420000D01*
X56026267Y-125440000D02*
X55733733Y-125440000D01*
%TO.C,R5*%
X54863276Y-87488500D02*
X55372724Y-87488500D01*
X54863276Y-88533500D02*
X55372724Y-88533500D01*
%TO.C,R30*%
X44638700Y-66599524D02*
X44638700Y-66090076D01*
X45683700Y-66599524D02*
X45683700Y-66090076D01*
%TO.C,R41*%
X42652277Y-129652500D02*
X43161725Y-129652500D01*
X42652277Y-130697500D02*
X43161725Y-130697500D01*
%TO.C,R4*%
X54341500Y-130048724D02*
X54341500Y-129539276D01*
X55386500Y-130048724D02*
X55386500Y-129539276D01*
%TO.C,Q8*%
D10*
X39135101Y-131749800D02*
X39135101Y-137998200D01*
X39135101Y-137998200D02*
X39399261Y-137998200D01*
X39399261Y-131749800D02*
X39135101Y-131749800D01*
X44382741Y-137998200D02*
X44646901Y-137998200D01*
X44646901Y-131749800D02*
X44382741Y-131749800D01*
X44646901Y-137998200D02*
X44646901Y-131749800D01*
X43923001Y-130651200D02*
G75*
G02*
X43669001Y-130651200I-127000J0D01*
G01*
X43669001Y-130651200D02*
G75*
G02*
X43923001Y-130651200I127000J0D01*
G01*
%TO.C,C17*%
D14*
X56259000Y-56153267D02*
X56259000Y-55860733D01*
X57279000Y-56153267D02*
X57279000Y-55860733D01*
%TO.C,R16*%
X57812726Y-96318498D02*
X57303278Y-96318498D01*
X57812726Y-97363498D02*
X57303278Y-97363498D01*
%TO.C,R2*%
X55152936Y-131932000D02*
X56607064Y-131932000D01*
X55152936Y-133752000D02*
X56607064Y-133752000D01*
%TO.C,C7*%
X51606667Y-85748400D02*
X51314133Y-85748400D01*
X51606667Y-86768400D02*
X51314133Y-86768400D01*
%TO.C,C27*%
X62438233Y-89660000D02*
X62730767Y-89660000D01*
X62438233Y-90680000D02*
X62730767Y-90680000D01*
%TO.C,R34*%
X45847724Y-99680500D02*
X45338276Y-99680500D01*
X45847724Y-100725500D02*
X45338276Y-100725500D01*
%TO.C,R31*%
X46162700Y-66599524D02*
X46162700Y-66090076D01*
X47207700Y-66599524D02*
X47207700Y-66090076D01*
%TO.C,R14*%
X60056500Y-97663724D02*
X60056500Y-97154276D01*
X61101500Y-97663724D02*
X61101500Y-97154276D01*
%TO.C,C25*%
X44194000Y-110216733D02*
X44194000Y-110509267D01*
X45214000Y-110216733D02*
X45214000Y-110509267D01*
%TO.C,R43*%
X47686700Y-66599524D02*
X47686700Y-66090076D01*
X48731700Y-66599524D02*
X48731700Y-66090076D01*
%TO.C,Q1*%
D12*
X53989500Y-83012100D02*
X56089500Y-83012100D01*
X53989500Y-85339100D02*
X56089500Y-85339100D01*
D13*
X53539500Y-83525600D02*
G75*
G02*
X53339500Y-83525600I-100000J0D01*
G01*
X53339500Y-83525600D02*
G75*
G02*
X53539500Y-83525600I100000J0D01*
G01*
%TO.C,R42*%
D14*
X42398277Y-117968500D02*
X42907725Y-117968500D01*
X42398277Y-119013500D02*
X42907725Y-119013500D01*
%TO.C,R15*%
X57789226Y-94667498D02*
X57279778Y-94667498D01*
X57789226Y-95712498D02*
X57279778Y-95712498D01*
%TO.C,Q9*%
X40877001Y-125567000D02*
X42397001Y-125567000D01*
X40877001Y-126567000D02*
X40877001Y-125567000D01*
X40877001Y-128687000D02*
X40877001Y-127687000D01*
X42397001Y-125567000D02*
X42397001Y-125617000D01*
X42397001Y-126737000D02*
X42397001Y-127517000D01*
X42397001Y-128637000D02*
X42397001Y-128687000D01*
X42397001Y-128687000D02*
X40877001Y-128687000D01*
X42937001Y-127507000D02*
X42697001Y-127177000D01*
X43177001Y-127177000D01*
X42937001Y-127507000D01*
G36*
X42937001Y-127507000D02*
G01*
X42697001Y-127177000D01*
X43177001Y-127177000D01*
X42937001Y-127507000D01*
G37*
%TO.C,R23*%
X53898076Y-66228700D02*
X54407524Y-66228700D01*
X53898076Y-67273700D02*
X54407524Y-67273700D01*
%TO.C,C22*%
X46932233Y-105626000D02*
X47224767Y-105626000D01*
X46932233Y-106646000D02*
X47224767Y-106646000D01*
%TO.C,R24*%
X53898076Y-68057500D02*
X54407524Y-68057500D01*
X53898076Y-69102500D02*
X54407524Y-69102500D01*
%TO.C,L1*%
X41650500Y-105036252D02*
X41650500Y-104513748D01*
X43870500Y-105036252D02*
X43870500Y-104513748D01*
%TO.C,C4*%
X51179000Y-118510267D02*
X51179000Y-118217733D01*
X52199000Y-118510267D02*
X52199000Y-118217733D01*
%TO.C,R19*%
X57531724Y-104760500D02*
X57022276Y-104760500D01*
X57531724Y-105805500D02*
X57022276Y-105805500D01*
%TO.C,R39*%
X62977500Y-93090276D02*
X62977500Y-93599724D01*
X64022500Y-93090276D02*
X64022500Y-93599724D01*
%TO.C,R21*%
X39101500Y-73913276D02*
X39101500Y-74422724D01*
X40146500Y-73913276D02*
X40146500Y-74422724D01*
%TO.C,C10*%
X40197983Y-95207251D02*
X40490517Y-95207251D01*
X40197983Y-96227251D02*
X40490517Y-96227251D01*
%TO.C,R20*%
X58253100Y-101040476D02*
X58253100Y-101549924D01*
X59298100Y-101040476D02*
X59298100Y-101549924D01*
%TO.C,R22*%
X41706076Y-68514700D02*
X42215524Y-68514700D01*
X41706076Y-69559700D02*
X42215524Y-69559700D01*
%TO.C,C20*%
X44265233Y-112520000D02*
X44557767Y-112520000D01*
X44265233Y-113540000D02*
X44557767Y-113540000D01*
%TO.C,Q7*%
X49912600Y-67800600D02*
X51382600Y-67800600D01*
X49912600Y-68450600D02*
X49912600Y-67800600D01*
X49912600Y-70070600D02*
X49912600Y-69420600D01*
X51382600Y-68770600D02*
X51382600Y-69100600D01*
X51382600Y-70070600D02*
X49912600Y-70070600D01*
X51827600Y-69095600D02*
X51687600Y-68905600D01*
X51967600Y-68905600D01*
X51827600Y-69095600D01*
G36*
X51827600Y-69095600D02*
G01*
X51687600Y-68905600D01*
X51967600Y-68905600D01*
X51827600Y-69095600D01*
G37*
%TO.C,R7*%
X56388724Y-91425500D02*
X55879276Y-91425500D01*
X56388724Y-92470500D02*
X55879276Y-92470500D01*
%TO.C,D7*%
X58369000Y-106188000D02*
X58369000Y-108188000D01*
X58369000Y-106188000D02*
X62229000Y-106188000D01*
X58369000Y-108188000D02*
X62229000Y-108188000D01*
%TO.C,C13*%
X57373268Y-103273000D02*
X57080734Y-103273000D01*
X57373268Y-104293000D02*
X57080734Y-104293000D01*
%TO.C,R3*%
X51166500Y-115189724D02*
X51166500Y-114680276D01*
X52211500Y-115189724D02*
X52211500Y-114680276D01*
%TO.C,R13*%
X57948300Y-77775524D02*
X57948300Y-77266076D01*
X58993300Y-77775524D02*
X58993300Y-77266076D01*
%TO.C,R9*%
X45846276Y-88885500D02*
X46355724Y-88885500D01*
X45846276Y-89930500D02*
X46355724Y-89930500D01*
%TO.C,U2*%
D13*
X39644250Y-92167251D02*
X39644250Y-92417250D01*
X39644250Y-94017252D02*
X39644250Y-94267251D01*
X42044250Y-92167251D02*
X42044250Y-93017251D01*
X42044250Y-94017252D02*
X42044250Y-94267251D01*
%TO.C,C8*%
D14*
X46353000Y-91928733D02*
X46353000Y-92221267D01*
X47373000Y-91928733D02*
X47373000Y-92221267D01*
%TO.C,R40*%
X37558501Y-133731724D02*
X37558501Y-133222276D01*
X38603501Y-133731724D02*
X38603501Y-133222276D01*
%TO.C,R6*%
X55372724Y-89012500D02*
X54863276Y-89012500D01*
X55372724Y-90057500D02*
X54863276Y-90057500D01*
%TO.C,C15*%
X55116000Y-63443067D02*
X55116000Y-63150533D01*
X56136000Y-63443067D02*
X56136000Y-63150533D01*
%TO.C,Q6*%
X49912600Y-65331000D02*
X51382600Y-65331000D01*
X49912600Y-65981000D02*
X49912600Y-65331000D01*
X49912600Y-67601000D02*
X49912600Y-66951000D01*
X51382600Y-66301000D02*
X51382600Y-66631000D01*
X51382600Y-67601000D02*
X49912600Y-67601000D01*
X51827600Y-66626000D02*
X51687600Y-66436000D01*
X51967600Y-66436000D01*
X51827600Y-66626000D01*
G36*
X51827600Y-66626000D02*
G01*
X51687600Y-66436000D01*
X51967600Y-66436000D01*
X51827600Y-66626000D01*
G37*
%TO.C,D6*%
X60341000Y-85268000D02*
X60341000Y-81408000D01*
X60341000Y-85268000D02*
X62341000Y-85268000D01*
X62341000Y-85268000D02*
X62341000Y-81408000D01*
%TO.C,R18*%
X38237900Y-93455975D02*
X38237900Y-92946527D01*
X39282900Y-93455975D02*
X39282900Y-92946527D01*
%TO.C,Q5*%
X60100000Y-103052700D02*
X60100000Y-102452700D01*
X61820000Y-103252700D02*
X61820000Y-102052700D01*
D11*
X61435000Y-101602700D02*
G75*
G02*
X61285000Y-101602700I-75000J0D01*
G01*
X61285000Y-101602700D02*
G75*
G02*
X61435000Y-101602700I75000J0D01*
G01*
%TO.C,C18*%
D14*
X51013500Y-110470733D02*
X51013500Y-110763267D01*
X52033500Y-110470733D02*
X52033500Y-110763267D01*
%TO.C,Q3*%
D12*
X45369600Y-85638400D02*
X45369600Y-86878400D01*
X46019600Y-85638400D02*
X45369600Y-85638400D01*
X47147600Y-85638400D02*
X47797600Y-85638400D01*
X47797600Y-85638400D02*
X47797600Y-86878400D01*
D13*
X45883600Y-88358400D02*
G75*
G02*
X45683600Y-88358400I-100000J0D01*
G01*
X45683600Y-88358400D02*
G75*
G02*
X45883600Y-88358400I100000J0D01*
G01*
%TO.C,D2*%
D14*
X59674200Y-123102600D02*
X59674200Y-121142600D01*
X60874200Y-121142600D02*
X59674200Y-121142600D01*
X60874200Y-123102600D02*
X60874200Y-121142600D01*
%TO.C,C6*%
X55264267Y-85748400D02*
X54971733Y-85748400D01*
X55264267Y-86768400D02*
X54971733Y-86768400D01*
%TO.C,C26*%
X42441400Y-110216733D02*
X42441400Y-110509267D01*
X43461400Y-110216733D02*
X43461400Y-110509267D01*
%TO.C,C24*%
X46932233Y-107126000D02*
X47224767Y-107126000D01*
X46932233Y-108146000D02*
X47224767Y-108146000D01*
%TO.C,R38*%
X60325724Y-108697500D02*
X59816276Y-108697500D01*
X60325724Y-109742500D02*
X59816276Y-109742500D01*
%TO.C,U5*%
D10*
X46341900Y-109118400D02*
X46533159Y-109118400D01*
X46341900Y-109309659D02*
X46341900Y-109118400D01*
X46341900Y-112369600D02*
X46341900Y-112178341D01*
X46533159Y-112369600D02*
X46341900Y-112369600D01*
X49401841Y-109118400D02*
X49593100Y-109118400D01*
X49593100Y-109118400D02*
X49593100Y-109309659D01*
X49593100Y-112178341D02*
X49593100Y-112369600D01*
X49593100Y-112369600D02*
X49401841Y-112369600D01*
%TO.C,D1*%
D14*
X60233000Y-111568000D02*
X60233000Y-113528000D01*
X60233000Y-113528000D02*
X61433000Y-113528000D01*
X61433000Y-111568000D02*
X61433000Y-113528000D01*
%TO.C,U3*%
D13*
X55527001Y-100482999D02*
X55527001Y-100233000D01*
X55527001Y-102333000D02*
X55527001Y-101483000D01*
X57927001Y-100482999D02*
X57927001Y-100233000D01*
X57927001Y-102333000D02*
X57927001Y-102083001D01*
%TO.C,C11*%
D14*
X57680769Y-97981998D02*
X57388235Y-97981998D01*
X57680769Y-99001998D02*
X57388235Y-99001998D01*
%TO.C,Q4*%
X61412400Y-101240800D02*
X60812400Y-101240800D01*
X61612400Y-99520800D02*
X60412400Y-99520800D01*
D11*
X60037400Y-99980800D02*
G75*
G02*
X59887400Y-99980800I-75000J0D01*
G01*
X59887400Y-99980800D02*
G75*
G02*
X60037400Y-99980800I75000J0D01*
G01*
%TO.C,R26*%
D14*
X40930300Y-57709524D02*
X40930300Y-57200076D01*
X41975300Y-57709524D02*
X41975300Y-57200076D01*
%TO.C,R37*%
X61961500Y-134873276D02*
X61961500Y-135382724D01*
X63006500Y-134873276D02*
X63006500Y-135382724D01*
%TO.C,F2*%
X41635000Y-100676064D02*
X41635000Y-99221936D01*
X43455000Y-100676064D02*
X43455000Y-99221936D01*
%TO.C,C14*%
X45370533Y-55878000D02*
X45663067Y-55878000D01*
X45370533Y-56898000D02*
X45663067Y-56898000D01*
%TO.C,C16*%
X54735000Y-56153267D02*
X54735000Y-55860733D01*
X55755000Y-56153267D02*
X55755000Y-55860733D01*
%TO.C,R11*%
X58659500Y-117855276D02*
X58659500Y-118364724D01*
X59704500Y-117855276D02*
X59704500Y-118364724D01*
%TO.C,C9*%
X44473400Y-92194767D02*
X44473400Y-91902233D01*
X45493400Y-92194767D02*
X45493400Y-91902233D01*
%TO.C,D3*%
X40462000Y-70069200D02*
X40462000Y-72069200D01*
X40462000Y-70069200D02*
X44322000Y-70069200D01*
X40462000Y-72069200D02*
X44322000Y-72069200D01*
%TO.C,R28*%
X44841900Y-62129124D02*
X44841900Y-61619676D01*
X45886900Y-62129124D02*
X45886900Y-61619676D01*
%TO.C,C19*%
X41128767Y-107186000D02*
X40836233Y-107186000D01*
X41128767Y-108206000D02*
X40836233Y-108206000D01*
%TO.C,R36*%
X60818500Y-87121276D02*
X60818500Y-87630724D01*
X61863500Y-87121276D02*
X61863500Y-87630724D01*
%TO.C,R29*%
X43317900Y-62129124D02*
X43317900Y-61619676D01*
X44362900Y-62129124D02*
X44362900Y-61619676D01*
%TO.C,R35*%
X53706500Y-109093724D02*
X53706500Y-108584276D01*
X54751500Y-109093724D02*
X54751500Y-108584276D01*
%TO.C,R1*%
X56373500Y-130048724D02*
X56373500Y-129539276D01*
X57418500Y-130048724D02*
X57418500Y-129539276D01*
%TO.C,R25*%
X39507900Y-60552876D02*
X39507900Y-61062324D01*
X40552900Y-60552876D02*
X40552900Y-61062324D01*
%TD*%
M02*
