%TF.GenerationSoftware,KiCad,Pcbnew,10.0.0-10.0.0~ubuntu24.04.1*%
%TF.CreationDate,2026-04-15T14:11:24+02:00*%
%TF.ProjectId,MoistureESP,4d6f6973-7475-4726-9545-53502e6b6963,rev?*%
%TF.SameCoordinates,Original*%
%TF.FileFunction,Soldermask,Top*%
%TF.FilePolarity,Negative*%
%FSLAX46Y46*%
G04 Gerber Fmt 4.6, Leading zero omitted, Abs format (unit mm)*
G04 Created by KiCad (PCBNEW 10.0.0-10.0.0~ubuntu24.04.1) date 2026-04-15 14:11:24*
%MOMM*%
%LPD*%
G01*
G04 APERTURE LIST*
G04 Aperture macros list*
%AMRoundRect*
0 Rectangle with rounded corners*
0 $1 Rounding radius*
0 $2 $3 $4 $5 $6 $7 $8 $9 X,Y pos of 4 corners*
0 Add a 4 corners polygon primitive as box body*
4,1,4,$2,$3,$4,$5,$6,$7,$8,$9,$2,$3,0*
0 Add four circle primitives for the rounded corners*
1,1,$1+$1,$2,$3*
1,1,$1+$1,$4,$5*
1,1,$1+$1,$6,$7*
1,1,$1+$1,$8,$9*
0 Add four rect primitives between the rounded corners*
20,1,$1+$1,$2,$3,$4,$5,0*
20,1,$1+$1,$4,$5,$6,$7,0*
20,1,$1+$1,$6,$7,$8,$9,0*
20,1,$1+$1,$8,$9,$2,$3,0*%
%AMFreePoly0*
4,1,21,2.749601,1.778000,2.127000,1.778000,2.127000,1.016000,2.749601,1.016000,2.749601,0.508000,2.127000,0.508000,2.127000,-0.254000,2.749601,-0.254000,2.749601,-0.762000,2.127000,-0.762000,2.127000,-1.524000,2.749601,-1.524000,2.749601,-2.032000,2.038401,-2.032000,2.038401,-1.873000,-1.873000,-1.873000,-1.873000,2.127000,2.038401,2.127000,2.038401,2.286000,2.749601,2.286000,
2.749601,1.778000,2.749601,1.778000,$1*%
%AMFreePoly1*
4,1,6,0.282100,-0.013600,0.282100,-0.101600,-0.342900,-0.101600,-0.342900,0.101600,0.170100,0.101600,0.282100,-0.013600,0.282100,-0.013600,$1*%
%AMFreePoly2*
4,1,12,0.279781,0.093866,0.312742,0.071842,0.334766,0.038880,0.342500,0.000000,0.334766,-0.038881,0.312742,-0.071842,0.279781,-0.093866,0.240900,-0.101600,-0.342900,-0.101600,-0.342900,0.101600,0.240900,0.101600,0.279781,0.093866,0.279781,0.093866,$1*%
%AMFreePoly3*
4,1,6,0.282100,0.013600,0.170100,-0.101600,-0.342900,-0.101600,-0.342900,0.101600,0.282100,0.101600,0.282100,0.013600,0.282100,0.013600,$1*%
%AMFreePoly4*
4,1,12,0.919781,0.093866,0.952742,0.071842,0.974766,0.038880,0.982500,0.000000,0.974766,-0.038881,0.952742,-0.071842,0.919781,-0.093867,0.880900,-0.101600,-0.342900,-0.101600,-0.342900,0.101600,0.880900,0.101600,0.919781,0.093866,0.919781,0.093866,$1*%
%AMFreePoly5*
4,1,16,0.342900,-0.101600,-0.145100,-0.101600,-0.307100,0.060400,-0.307100,0.247602,-1.129900,0.247402,-1.168781,0.255136,-1.201742,0.277160,-1.223766,0.310122,-1.231500,0.349002,-1.231500,0.400002,-1.223766,0.438883,-1.201742,0.471844,-1.168781,0.493868,-1.129900,0.501602,0.342900,0.501602,0.342900,-0.101600,0.342900,-0.101600,$1*%
%AMFreePoly6*
4,1,19,0.342900,-0.101602,-1.129900,-0.101602,-1.168781,-0.093868,-1.201742,-0.071844,-1.223766,-0.038883,-1.231500,-0.000002,-1.231500,0.050998,-1.223766,0.089878,-1.201742,0.122840,-1.168781,0.144864,-1.129900,0.152598,-0.307100,0.152398,-0.307500,0.400000,-0.299766,0.438880,-0.277742,0.471842,-0.244781,0.493866,-0.205900,0.501600,0.342900,0.501600,0.342900,-0.101602,0.342900,-0.101602,
$1*%
%AMFreePoly7*
4,1,12,0.342900,-0.101600,-0.240900,-0.101600,-0.279781,-0.093866,-0.312742,-0.071842,-0.334766,-0.038881,-0.342500,0.000000,-0.334766,0.038880,-0.312742,0.071842,-0.279781,0.093866,-0.240900,0.101600,0.342900,0.101600,0.342900,-0.101600,0.342900,-0.101600,$1*%
%AMFreePoly8*
4,1,13,-0.355399,0.349899,-0.107100,0.101600,0.342900,0.101600,0.342900,-0.101600,-0.455900,-0.101600,-0.494781,-0.093867,-0.527742,-0.071843,-0.549766,-0.038881,-0.557500,0.000000,-0.558599,0.114099,-0.558599,0.799899,-0.355399,0.799899,-0.355399,0.349899,-0.355399,0.349899,$1*%
%AMFreePoly9*
4,1,13,0.342900,-0.101600,-0.629900,-0.101600,-0.668781,-0.093866,-0.701742,-0.071842,-0.723766,-0.038880,-0.731500,0.000000,-0.731500,0.399999,-0.723766,0.438880,-0.701742,0.471841,-0.668781,0.493866,-0.629900,0.501599,0.342900,0.501599,0.342900,-0.101600,0.342900,-0.101600,$1*%
%AMFreePoly10*
4,1,12,0.342900,-0.101600,-0.629900,-0.101600,-0.668781,-0.093867,-0.701742,-0.071842,-0.723766,-0.038881,-0.731500,0.000000,-0.723766,0.038880,-0.701742,0.071842,-0.668781,0.093866,-0.629900,0.101600,0.342900,0.101600,0.342900,-0.101600,0.342900,-0.101600,$1*%
%AMFreePoly11*
4,1,16,0.342900,-0.101600,-0.629900,-0.101600,-0.668781,-0.093866,-0.701742,-0.071842,-0.723766,-0.038881,-0.731500,0.000000,-0.731500,0.051000,-0.723766,0.089880,-0.701742,0.122842,-0.668781,0.144866,-0.629900,0.152600,-0.257100,0.152400,-0.257100,0.389602,-0.145100,0.501602,0.342900,0.501602,0.342900,-0.101600,0.342900,-0.101600,$1*%
G04 Aperture macros list end*
%ADD10C,0.000000*%
%ADD11RoundRect,0.102000X-0.212500X-0.200000X0.212500X-0.200000X0.212500X0.200000X-0.212500X0.200000X0*%
%ADD12RoundRect,0.102000X-0.575000X-0.475000X0.575000X-0.475000X0.575000X0.475000X-0.575000X0.475000X0*%
%ADD13RoundRect,0.102000X-0.375000X-0.150000X0.375000X-0.150000X0.375000X0.150000X-0.375000X0.150000X0*%
%ADD14RoundRect,0.237500X-0.250000X-0.237500X0.250000X-0.237500X0.250000X0.237500X-0.250000X0.237500X0*%
%ADD15RoundRect,0.237500X0.300000X0.237500X-0.300000X0.237500X-0.300000X-0.237500X0.300000X-0.237500X0*%
%ADD16RoundRect,0.237500X-0.300000X-0.237500X0.300000X-0.237500X0.300000X0.237500X-0.300000X0.237500X0*%
%ADD17RoundRect,0.237500X0.250000X0.237500X-0.250000X0.237500X-0.250000X-0.237500X0.250000X-0.237500X0*%
%ADD18RoundRect,0.237500X-0.237500X0.250000X-0.237500X-0.250000X0.237500X-0.250000X0.237500X0.250000X0*%
%ADD19R,0.254000X0.711200*%
%ADD20R,2.057400X2.540000*%
%ADD21RoundRect,0.250000X0.300000X0.300000X-0.300000X0.300000X-0.300000X-0.300000X0.300000X-0.300000X0*%
%ADD22R,0.711200X0.508000*%
%ADD23FreePoly0,180.000000*%
%ADD24RoundRect,0.237500X0.237500X-0.300000X0.237500X0.300000X-0.237500X0.300000X-0.237500X-0.300000X0*%
%ADD25RoundRect,0.237500X0.237500X-0.250000X0.237500X0.250000X-0.237500X0.250000X-0.237500X-0.250000X0*%
%ADD26R,0.508000X0.711200*%
%ADD27FreePoly0,270.000000*%
%ADD28RoundRect,0.250000X-0.400000X-0.625000X0.400000X-0.625000X0.400000X0.625000X-0.400000X0.625000X0*%
%ADD29RoundRect,0.237500X-0.237500X0.300000X-0.237500X-0.300000X0.237500X-0.300000X0.237500X0.300000X0*%
%ADD30C,2.700000*%
%ADD31RoundRect,0.150000X0.587500X0.150000X-0.587500X0.150000X-0.587500X-0.150000X0.587500X-0.150000X0*%
%ADD32O,2.540000X1.270000*%
%ADD33RoundRect,0.635000X0.635000X0.000010X-0.635000X0.000010X-0.635000X-0.000010X0.635000X-0.000010X0*%
%ADD34RoundRect,0.250001X0.849999X-0.462499X0.849999X0.462499X-0.849999X0.462499X-0.849999X-0.462499X0*%
%ADD35RoundRect,0.112500X0.350000X0.112500X-0.350000X0.112500X-0.350000X-0.112500X0.350000X-0.112500X0*%
%ADD36RoundRect,0.250000X-0.300000X-0.300000X0.300000X-0.300000X0.300000X0.300000X-0.300000X0.300000X0*%
%ADD37R,0.299999X0.449999*%
%ADD38R,1.599999X1.000000*%
%ADD39RoundRect,0.250000X0.300000X-0.300000X0.300000X0.300000X-0.300000X0.300000X-0.300000X-0.300000X0*%
%ADD40O,6.800000X1.400000*%
%ADD41RoundRect,0.500000X-3.500000X-2.000000X3.500000X-2.000000X3.500000X2.000000X-3.500000X2.000000X0*%
%ADD42RoundRect,0.100000X-0.100000X0.125000X-0.100000X-0.125000X0.100000X-0.125000X0.100000X0.125000X0*%
%ADD43RoundRect,0.088000X0.264000X-0.589000X0.264000X0.589000X-0.264000X0.589000X-0.264000X-0.589000X0*%
%ADD44RoundRect,0.150000X0.200000X-0.150000X0.200000X0.150000X-0.200000X0.150000X-0.200000X-0.150000X0*%
%ADD45FreePoly1,90.000000*%
%ADD46FreePoly2,90.000000*%
%ADD47FreePoly3,90.000000*%
%ADD48FreePoly1,180.000000*%
%ADD49FreePoly2,180.000000*%
%ADD50FreePoly4,180.000000*%
%ADD51FreePoly3,180.000000*%
%ADD52FreePoly5,90.000000*%
%ADD53FreePoly6,90.000000*%
%ADD54FreePoly7,90.000000*%
%ADD55FreePoly8,90.000000*%
%ADD56FreePoly9,180.000000*%
%ADD57FreePoly10,180.000000*%
%ADD58FreePoly11,180.000000*%
%ADD59RoundRect,0.150000X-0.200000X0.150000X-0.200000X-0.150000X0.200000X-0.150000X0.200000X0.150000X0*%
%ADD60RoundRect,0.100000X-0.125000X-0.100000X0.125000X-0.100000X0.125000X0.100000X-0.125000X0.100000X0*%
%ADD61RoundRect,0.250000X0.625000X-0.400000X0.625000X0.400000X-0.625000X0.400000X-0.625000X-0.400000X0*%
%ADD62R,1.700000X1.700000*%
%ADD63C,1.700000*%
%ADD64C,0.660400*%
G04 APERTURE END LIST*
D10*
%TO.C,Q10*%
G36*
X38728599Y-120345200D02*
G01*
X42563999Y-120345200D01*
X42563999Y-124256800D01*
X38728599Y-124256800D01*
X38728599Y-124460000D01*
X38017399Y-124460000D01*
X38017399Y-123952000D01*
X38728599Y-123952000D01*
X38728599Y-123190000D01*
X38017399Y-123190000D01*
X38017399Y-122682000D01*
X38728599Y-122682000D01*
X38728599Y-121920000D01*
X38017399Y-121920000D01*
X38017399Y-121412000D01*
X38728599Y-121412000D01*
X38728599Y-120650000D01*
X38017399Y-120650000D01*
X38017399Y-120142000D01*
X38728599Y-120142000D01*
X38728599Y-120345200D01*
G37*
%TO.C,Q8*%
G36*
X43846801Y-137293401D02*
G01*
X44050001Y-137293401D01*
X44050001Y-138004601D01*
X43542001Y-138004601D01*
X43542001Y-137293401D01*
X42780001Y-137293401D01*
X42780001Y-138004601D01*
X42272001Y-138004601D01*
X42272001Y-137293401D01*
X41510001Y-137293401D01*
X41510001Y-138004601D01*
X41002001Y-138004601D01*
X41002001Y-137293401D01*
X40240001Y-137293401D01*
X40240001Y-138004601D01*
X39732001Y-138004601D01*
X39732001Y-137293401D01*
X39935201Y-137293401D01*
X39935201Y-133458001D01*
X43846801Y-133458001D01*
X43846801Y-137293401D01*
G37*
%TD*%
D11*
%TO.C,Q2*%
X50602000Y-83525600D03*
X50602000Y-84175600D03*
X50602000Y-84825600D03*
X52477000Y-84825600D03*
X52477000Y-84175600D03*
X52477000Y-83525600D03*
D12*
X51539500Y-83850600D03*
D13*
X51539500Y-84825600D03*
%TD*%
D14*
%TO.C,R17*%
X39431750Y-89217251D03*
X41256750Y-89217251D03*
%TD*%
D15*
%TO.C,C23*%
X51343500Y-107636000D03*
X49618500Y-107636000D03*
%TD*%
D16*
%TO.C,C1*%
X56795500Y-127000000D03*
X58520500Y-127000000D03*
%TD*%
D17*
%TO.C,R12*%
X57046500Y-113792000D03*
X55221500Y-113792000D03*
%TD*%
D18*
%TO.C,R8*%
X48717200Y-85295100D03*
X48717200Y-87120100D03*
%TD*%
D16*
%TO.C,C21*%
X45327000Y-104521000D03*
X47052000Y-104521000D03*
%TD*%
D19*
%TO.C,U1*%
X55260999Y-121805700D03*
X55661001Y-121805700D03*
X56061000Y-121805700D03*
X56461000Y-121805700D03*
X56860999Y-121805700D03*
X57261001Y-121805700D03*
X57261001Y-117970300D03*
X56860999Y-117970300D03*
X56461000Y-117970300D03*
X56061000Y-117970300D03*
X55661001Y-117970300D03*
X55260999Y-117970300D03*
D20*
X56261000Y-119888000D03*
%TD*%
D21*
%TO.C,D8*%
X40243001Y-130175000D03*
X37443001Y-130175000D03*
%TD*%
D16*
%TO.C,C12*%
X39481750Y-90717251D03*
X41206750Y-90717251D03*
%TD*%
D18*
%TO.C,F1*%
X57607000Y-81890500D03*
X57607000Y-83715500D03*
%TD*%
D22*
%TO.C,Q10*%
X43923001Y-124206000D03*
X43923001Y-122936000D03*
X43923001Y-121666000D03*
X43923001Y-120396000D03*
D23*
X40767000Y-122174000D03*
%TD*%
D24*
%TO.C,C5*%
X53721000Y-118845500D03*
X53721000Y-117120500D03*
%TD*%
D16*
%TO.C,C3*%
X53239500Y-127000000D03*
X54964500Y-127000000D03*
%TD*%
D25*
%TO.C,R10*%
X59182000Y-115593500D03*
X59182000Y-113768500D03*
%TD*%
D15*
%TO.C,C2*%
X56742500Y-124930000D03*
X55017500Y-124930000D03*
%TD*%
D14*
%TO.C,R5*%
X54205500Y-88011000D03*
X56030500Y-88011000D03*
%TD*%
D25*
%TO.C,R30*%
X45161200Y-67257300D03*
X45161200Y-65432300D03*
%TD*%
D14*
%TO.C,R41*%
X41994501Y-130175000D03*
X43819501Y-130175000D03*
%TD*%
D25*
%TO.C,R4*%
X54864000Y-130706500D03*
X54864000Y-128881500D03*
%TD*%
D26*
%TO.C,Q8*%
X43796001Y-132098999D03*
X42526001Y-132098999D03*
X41256001Y-132098999D03*
X39986001Y-132098999D03*
D27*
X41764001Y-135255000D03*
%TD*%
D24*
%TO.C,C17*%
X56769000Y-56869500D03*
X56769000Y-55144500D03*
%TD*%
D17*
%TO.C,R16*%
X58470502Y-96840998D03*
X56645502Y-96840998D03*
%TD*%
D28*
%TO.C,R2*%
X54330000Y-132842000D03*
X57430000Y-132842000D03*
%TD*%
D15*
%TO.C,C7*%
X52322900Y-86258400D03*
X50597900Y-86258400D03*
%TD*%
D16*
%TO.C,C27*%
X61722000Y-90170000D03*
X63447000Y-90170000D03*
%TD*%
D17*
%TO.C,R34*%
X46505500Y-100203000D03*
X44680500Y-100203000D03*
%TD*%
D25*
%TO.C,R31*%
X46685200Y-67257300D03*
X46685200Y-65432300D03*
%TD*%
%TO.C,R14*%
X60579000Y-98321500D03*
X60579000Y-96496500D03*
%TD*%
D29*
%TO.C,C25*%
X44704000Y-109500500D03*
X44704000Y-111225500D03*
%TD*%
D25*
%TO.C,R43*%
X48209200Y-67257300D03*
X48209200Y-65432300D03*
%TD*%
D11*
%TO.C,Q1*%
X54102000Y-83525600D03*
X54102000Y-84175600D03*
X54102000Y-84825600D03*
X55977000Y-84825600D03*
X55977000Y-84175600D03*
X55977000Y-83525600D03*
D12*
X55039500Y-83850600D03*
D13*
X55039500Y-84825600D03*
%TD*%
D30*
%TO.C,H1*%
X38100000Y-154940000D03*
%TD*%
D14*
%TO.C,R42*%
X41740501Y-118491000D03*
X43565501Y-118491000D03*
%TD*%
D17*
%TO.C,R15*%
X58447002Y-95189998D03*
X56622002Y-95189998D03*
%TD*%
D31*
%TO.C,Q9*%
X42574501Y-128077000D03*
X42574501Y-126177000D03*
X40699501Y-127127000D03*
%TD*%
D14*
%TO.C,R23*%
X53240300Y-66751200D03*
X55065300Y-66751200D03*
%TD*%
D16*
%TO.C,C22*%
X46216000Y-106136000D03*
X47941000Y-106136000D03*
%TD*%
D14*
%TO.C,R24*%
X53240300Y-68580000D03*
X55065300Y-68580000D03*
%TD*%
D32*
%TO.C,J2*%
X59436000Y-150622000D03*
D33*
X59436000Y-148717000D03*
X59436000Y-146812000D03*
%TD*%
D34*
%TO.C,L1*%
X42760500Y-105937500D03*
X42760500Y-103612500D03*
%TD*%
D24*
%TO.C,C4*%
X51689000Y-119226500D03*
X51689000Y-117501500D03*
%TD*%
D17*
%TO.C,R19*%
X58189500Y-105283000D03*
X56364500Y-105283000D03*
%TD*%
D18*
%TO.C,R39*%
X63500000Y-92432500D03*
X63500000Y-94257500D03*
%TD*%
%TO.C,R21*%
X39624000Y-73255500D03*
X39624000Y-75080500D03*
%TD*%
D16*
%TO.C,C10*%
X39481750Y-95717251D03*
X41206750Y-95717251D03*
%TD*%
D18*
%TO.C,R20*%
X58775600Y-100382700D03*
X58775600Y-102207700D03*
%TD*%
D14*
%TO.C,R22*%
X41048300Y-69037200D03*
X42873300Y-69037200D03*
%TD*%
D16*
%TO.C,C20*%
X43549000Y-113030000D03*
X45274000Y-113030000D03*
%TD*%
D35*
%TO.C,Q7*%
X51535100Y-69585600D03*
X51535100Y-68285600D03*
X49760100Y-68935600D03*
%TD*%
D17*
%TO.C,R7*%
X57046500Y-91948000D03*
X55221500Y-91948000D03*
%TD*%
D36*
%TO.C,D7*%
X59179000Y-107188000D03*
X61979000Y-107188000D03*
%TD*%
D15*
%TO.C,C13*%
X58089501Y-103783000D03*
X56364501Y-103783000D03*
%TD*%
D25*
%TO.C,R3*%
X51689000Y-115847500D03*
X51689000Y-114022500D03*
%TD*%
%TO.C,R13*%
X58470800Y-78433300D03*
X58470800Y-76608300D03*
%TD*%
D14*
%TO.C,R9*%
X45188500Y-89408000D03*
X47013500Y-89408000D03*
%TD*%
D37*
%TO.C,U2*%
X41494251Y-92242252D03*
X40844250Y-92242252D03*
X40194251Y-92242252D03*
X40194251Y-94192250D03*
X40844250Y-94192250D03*
X41494251Y-94192250D03*
D38*
X40844250Y-93217251D03*
%TD*%
D29*
%TO.C,C8*%
X46863000Y-91212500D03*
X46863000Y-92937500D03*
%TD*%
D25*
%TO.C,R40*%
X38081001Y-134389500D03*
X38081001Y-132564500D03*
%TD*%
D17*
%TO.C,R6*%
X56030500Y-89535000D03*
X54205500Y-89535000D03*
%TD*%
D24*
%TO.C,C15*%
X55626000Y-64159300D03*
X55626000Y-62434300D03*
%TD*%
D35*
%TO.C,Q6*%
X51535100Y-67116000D03*
X51535100Y-65816000D03*
X49760100Y-66466000D03*
%TD*%
D39*
%TO.C,D6*%
X61341000Y-84458000D03*
X61341000Y-81658000D03*
%TD*%
D40*
%TO.C,Batt1*%
X50800000Y-76200000D03*
X50800000Y-141224000D03*
D41*
X50800000Y-79502000D03*
X50800000Y-137922000D03*
%TD*%
D25*
%TO.C,R18*%
X38760400Y-94113751D03*
X38760400Y-92288751D03*
%TD*%
D42*
%TO.C,Q5*%
X61360000Y-102177700D03*
X60560000Y-102177700D03*
X60960000Y-103327700D03*
%TD*%
D29*
%TO.C,C18*%
X51523500Y-109754500D03*
X51523500Y-111479500D03*
%TD*%
D43*
%TO.C,Q3*%
X45933600Y-87238400D03*
X47233600Y-87238400D03*
X46583600Y-85278400D03*
%TD*%
D44*
%TO.C,D2*%
X60274200Y-121702600D03*
X60274200Y-123102600D03*
%TD*%
D15*
%TO.C,C6*%
X55980500Y-86258400D03*
X54255500Y-86258400D03*
%TD*%
D30*
%TO.C,H2*%
X63500000Y-154940000D03*
%TD*%
D29*
%TO.C,C26*%
X42951400Y-109500500D03*
X42951400Y-111225500D03*
%TD*%
D16*
%TO.C,C24*%
X46216000Y-107636000D03*
X47941000Y-107636000D03*
%TD*%
D17*
%TO.C,R38*%
X60983500Y-109220000D03*
X59158500Y-109220000D03*
%TD*%
D45*
%TO.C,U5*%
X46967499Y-112201000D03*
D46*
X47367501Y-112201000D03*
D46*
X47767500Y-112201000D03*
D46*
X48167500Y-112201000D03*
D46*
X48567499Y-112201000D03*
D47*
X48967501Y-112201000D03*
D48*
X49424500Y-111744001D03*
D49*
X49424500Y-111343999D03*
D50*
X49424500Y-110944000D03*
D49*
X49424500Y-110544000D03*
D49*
X49424500Y-110144001D03*
D51*
X49424500Y-109743999D03*
D52*
X48967501Y-109287000D03*
D53*
X48167500Y-109287000D03*
D54*
X47367501Y-109287000D03*
D55*
X46967499Y-109287000D03*
D56*
X46510500Y-110144001D03*
D57*
X46510500Y-110944000D03*
D58*
X46510500Y-111343999D03*
%TD*%
D59*
%TO.C,D1*%
X60833000Y-112968000D03*
X60833000Y-111568000D03*
%TD*%
D37*
%TO.C,U3*%
X56077000Y-102257999D03*
X56727001Y-102257999D03*
X57377000Y-102257999D03*
X57377000Y-100308001D03*
X56727001Y-100308001D03*
X56077000Y-100308001D03*
D38*
X56727001Y-101283000D03*
%TD*%
D15*
%TO.C,C11*%
X58397002Y-98491998D03*
X56672002Y-98491998D03*
%TD*%
D60*
%TO.C,Q4*%
X60537400Y-99980800D03*
X60537400Y-100780800D03*
X61687400Y-100380800D03*
%TD*%
D25*
%TO.C,R26*%
X41452800Y-58367300D03*
X41452800Y-56542300D03*
%TD*%
D18*
%TO.C,R37*%
X62484000Y-134215500D03*
X62484000Y-136040500D03*
%TD*%
D61*
%TO.C,F2*%
X42545000Y-101499000D03*
X42545000Y-98399000D03*
%TD*%
D32*
%TO.C,J3*%
X42164000Y-150622000D03*
D33*
X42164000Y-148717000D03*
X42164000Y-146812000D03*
%TD*%
D16*
%TO.C,C14*%
X44654300Y-56388000D03*
X46379300Y-56388000D03*
%TD*%
D24*
%TO.C,C16*%
X55245000Y-56869500D03*
X55245000Y-55144500D03*
%TD*%
D18*
%TO.C,R11*%
X59182000Y-117197500D03*
X59182000Y-119022500D03*
%TD*%
D24*
%TO.C,C9*%
X44983400Y-92911000D03*
X44983400Y-91186000D03*
%TD*%
D36*
%TO.C,D3*%
X41272000Y-71069200D03*
X44072000Y-71069200D03*
%TD*%
D25*
%TO.C,R28*%
X45364400Y-62786900D03*
X45364400Y-60961900D03*
%TD*%
D15*
%TO.C,C19*%
X41845000Y-107696000D03*
X40120000Y-107696000D03*
%TD*%
D18*
%TO.C,R36*%
X61341000Y-86463500D03*
X61341000Y-88288500D03*
%TD*%
D25*
%TO.C,R29*%
X43840400Y-62786900D03*
X43840400Y-60961900D03*
%TD*%
%TO.C,R35*%
X54229000Y-109751500D03*
X54229000Y-107926500D03*
%TD*%
%TO.C,R1*%
X56896000Y-130706500D03*
X56896000Y-128881500D03*
%TD*%
D18*
%TO.C,R25*%
X40030400Y-59895100D03*
X40030400Y-61720100D03*
%TD*%
D62*
%TO.C,J6*%
X37541200Y-65379600D03*
D63*
X37541200Y-62839600D03*
X37541200Y-60299600D03*
X37541200Y-57759600D03*
%TD*%
D62*
%TO.C,JP1*%
X39243000Y-104907000D03*
D63*
X39243000Y-102367000D03*
%TD*%
D64*
%TO.C,J7*%
X53674488Y-146918279D03*
X47894486Y-146918279D03*
%TD*%
D62*
%TO.C,J4*%
X62992000Y-60706000D03*
D63*
X62992000Y-63246000D03*
X62992000Y-65786000D03*
X62992000Y-68326000D03*
X62992000Y-70866000D03*
X62992000Y-73406000D03*
%TD*%
D62*
%TO.C,JP2*%
X39624000Y-85857000D03*
D63*
X39624000Y-83317000D03*
%TD*%
D62*
%TO.C,J1*%
X38984000Y-144322800D03*
D63*
X41524000Y-144322800D03*
%TD*%
D62*
%TO.C,J5*%
X61849000Y-120510000D03*
D63*
X61849000Y-117970000D03*
X61849000Y-115430000D03*
%TD*%
M02*
